<svg width="124" height="207" viewBox="0 0 124 207" fill="none" xmlns="http://www.w3.org/2000/svg">
<path d="M31.1624 58.0428C31.028 59.2517 28.3416 62.6097 27.4014 63.4157C27.4014 63.4157 26.5955 60.9979 25.7895 59.5204C25.5209 59.1174 25.2523 58.7144 25.1179 58.4458C24.1777 57.5055 22.2972 56.9683 20.8197 56.6996C20.5511 56.6996 20.2824 56.6996 20.1481 56.5653C19.7451 56.5653 19.4765 56.5653 19.2078 56.431C18.6706 56.431 18.4019 56.431 18.4019 56.431C18.4019 56.431 16.6558 56.2967 15.4469 59.5204C14.238 62.7441 13.2977 68.9228 13.2977 68.9228C13.2977 68.9228 5.23852 60.9979 5.50716 59.1174C5.77581 57.2369 7.7906 58.9831 7.92492 59.1174C7.7906 58.9831 6.31308 56.431 6.71604 55.7594C7.119 54.9535 9.1338 55.8937 9.1338 55.8937C9.1338 55.8937 7.11898 51.8641 8.32786 51.0582C9.53675 50.2522 10.7457 52.4014 10.7457 52.4014C10.7457 52.4014 10.6113 46.2226 13.5664 46.0883C16.5215 45.8197 16.7901 48.5061 16.7901 48.5061C16.7901 48.5061 19.4765 44.7451 20.4167 45.0137C21.357 45.2824 20.8197 49.312 20.8197 49.4463C20.954 49.312 22.9688 47.7001 24.715 46.6256C25.118 46.3569 25.5209 46.2226 25.9239 45.954C26.4612 45.8197 26.8641 45.6853 27.1327 45.8197C28.3416 46.2226 26.8641 48.6404 26.3269 49.312C26.5955 48.909 27.4014 48.1031 27.9387 48.6404C28.6103 49.4463 26.8641 51.4611 27.4014 51.3268C29.0132 50.7895 29.6848 51.0582 29.8192 52.267C29.9535 53.6103 27.2671 56.2967 27.2671 56.2967C28.8789 55.7594 30.8937 56.5653 31.2967 57.5056C31.1624 57.7742 31.1624 57.9085 31.1624 58.0428Z" fill="#6E1D14"/>
<path d="M25.9239 46.0883C23.7747 48.6404 20.954 54.6848 20.0138 56.5653C19.6108 56.5653 19.3422 56.5653 19.0735 56.431C18.5362 56.431 18.2676 56.431 18.2676 56.431C18.2676 56.431 16.5214 56.2967 15.3125 59.5204C14.1037 62.7441 13.1634 68.9228 13.1634 68.9228C13.1634 68.9228 5.10419 60.9979 5.37283 59.1174C5.64148 57.2369 7.65627 58.9831 7.79059 59.1174C7.65627 58.9831 6.17875 56.431 6.58171 55.7594C6.98467 54.9535 8.99947 55.8937 8.99947 55.8937C8.99947 55.8937 6.98469 51.8641 8.19357 51.0582C9.40246 50.2522 10.6113 52.4014 10.6113 52.4014C10.6113 52.4014 10.477 46.2226 13.4321 46.0883C16.3871 45.8197 16.6558 48.5061 16.6558 48.5061C16.6558 48.5061 19.3422 44.7451 20.2824 45.0137C21.2227 45.2824 20.6854 49.312 20.6854 49.4463C20.8197 49.312 22.8345 47.7001 24.5807 46.6256C25.1179 46.4913 25.5209 46.2226 25.9239 46.0883Z" fill="#5B1511"/>
<path d="M27.5357 78.3253C27.5357 78.7282 27.5357 79.3998 27.4014 80.0714C27.2671 83.5638 26.9984 89.0709 26.5955 90.8171L16.7901 93.1005C16.7901 93.1005 15.3125 85.3099 14.3723 80.8773C14.238 80.2057 14.1037 79.6685 13.9693 79.1312C15.9841 78.4596 17.7303 78.0566 18.8049 77.9223C22.1629 77.2507 25.1179 77.6537 27.5357 78.3253Z" fill="#7CC2C7"/>
<path d="M29.1475 78.7281C28.7446 79.131 28.2073 79.534 27.5357 79.937C26.1925 80.7429 24.312 81.4145 21.4913 81.5488C18.4019 81.6831 15.9841 81.2802 14.3723 80.6086C13.432 80.2056 12.6261 79.937 12.2232 79.534C12.7605 79.2654 13.432 78.9967 13.9693 78.8624C15.9841 78.1908 17.7303 77.7878 18.8049 77.6535C22.1629 77.1162 25.2523 77.5192 27.67 78.1908C28.073 78.4594 28.6103 78.5938 29.1475 78.7281Z" fill="#449FA1"/>
<path d="M25.1179 75.2356C24.9836 75.6386 24.8493 76.3102 24.715 76.9818C24.0434 79.5339 22.8345 83.1605 21.4913 83.1605C19.7451 83.1605 19.2078 79.8025 18.6705 77.3847C18.5362 76.8474 18.5362 76.3102 18.4019 75.7729C19.8794 75.7729 21.6256 75.7729 23.2374 75.6386C23.7747 75.6386 24.4463 75.5042 25.1179 75.2356Z" fill="#F1B5AB"/>
<path d="M25.1179 75.2356C24.9836 75.6386 24.8493 76.3102 24.715 76.9818C22.4315 77.6534 20.0137 77.519 18.6705 77.3847C18.5362 76.8474 18.5362 76.3102 18.4019 75.7729C19.8794 75.7729 21.6256 75.7729 23.2374 75.6386C23.7747 75.6386 24.4463 75.5042 25.1179 75.2356Z" fill="#F5948D"/>
<path d="M29.1475 72.9523C28.7446 74.1612 26.7298 75.6387 24.5806 76.4446C23.909 76.579 23.3718 76.7133 22.7002 76.8476C21.2226 76.9819 19.6108 76.9819 18.2676 76.9819C18.1333 76.9819 17.9989 76.9819 17.8646 76.9819C16.7901 76.8476 15.8498 76.7133 15.3125 76.3103C13.9693 75.3701 13.5664 72.9523 13.0291 69.057C13.0291 69.057 13.432 62.7439 13.9693 60.3262C14.5066 57.9084 15.9841 56.9681 17.4617 56.6995C17.8646 56.5652 18.1332 56.5652 18.4019 56.5652C18.9392 56.5652 18.9392 56.6995 18.9392 56.6995C19.2078 56.6995 19.6108 56.6995 19.8794 56.8338C21.4913 56.9681 23.7747 57.5054 24.8493 58.58C25.9239 59.6546 27.1327 63.5499 27.2671 63.5499C28.3416 66.9079 29.4162 71.8777 29.1475 72.9523Z" fill="#F1B5AB"/>
<path d="M31.1623 58.043C31.028 59.2519 28.3416 62.6099 27.4014 63.4158C27.4014 63.4158 26.5954 60.998 25.7895 59.5205C27.267 59.1175 29.8191 58.5803 31.1623 58.043Z" fill="#5B1511"/>
<path d="M17.8646 76.8474C16.7901 76.7131 15.8498 76.5787 15.3125 76.1758C13.9693 75.2355 13.5664 72.8178 13.0291 68.9225C13.0291 68.9225 13.432 62.6094 13.9693 60.1916C14.5066 57.7739 15.9841 56.8336 17.4617 56.565C17.8646 56.4307 18.1333 56.4307 18.4019 56.4307L18.9392 56.565C19.2078 56.565 19.6108 56.565 19.8794 56.6993C17.9989 59.923 15.3125 66.9077 15.1782 68.9225C15.1782 70.6686 16.2528 74.9669 17.8646 76.8474Z" fill="#F5948D"/>
<path d="M11.8202 109.353C11.8202 109.622 11.6859 109.89 11.6859 110.159C11.2829 112.308 10.8799 115.129 10.3427 118.084C10.3427 118.084 9.40242 110.696 8.99945 106.667C8.59649 102.637 6.04443 99.1448 4.70122 96.3241C3.35801 93.5034 0 86.3844 0 78.4595C0 70.5346 3.49234 63.2812 3.49234 63.2812C4.02963 64.4901 4.70123 65.4304 5.50715 66.102C8.32788 68.6541 12.2232 68.3854 12.2232 68.3854C10.0741 71.6091 9.67106 81.0116 9.67106 81.0116C10.2083 80.7429 10.6113 80.34 11.1486 80.2056C11.6859 81.6832 13.2977 85.8471 13.4321 90.6826C13.7007 96.7271 12.6261 104.786 11.8202 109.353Z" fill="#7CC2C7"/>
<path d="M54.2655 68.5197C54.2655 68.5197 52.2507 73.6239 50.1016 76.4446C47.8181 79.2653 43.7885 83.6979 41.2364 86.3843C39.2216 88.5335 36.8039 91.4885 36.4009 93.369C36.1323 94.8465 34.2518 101.025 33.5802 103.443C33.5802 103.443 31.1624 94.0406 30.2221 91.6228L31.431 79.6683C31.9683 79.9369 32.237 80.0713 32.3713 80.0713C32.5056 80.0713 33.8488 78.8624 35.4606 77.3848C38.0127 75.1014 41.2364 72.012 42.4453 71.2061C44.3258 69.7286 48.3554 66.5049 48.3554 66.5049C48.6241 67.0422 49.1613 67.5794 49.6986 67.8481C51.4448 68.9227 54.2655 68.5197 54.2655 68.5197Z" fill="#7CC2C7"/>
<path d="M53.8626 125.069C53.3253 126.546 52.5193 129.233 51.5791 132.456C48.7584 141.859 44.8631 155.694 44.8631 155.694L43.1169 156.634H42.8483C42.8483 156.634 40.2962 150.993 40.0275 143.874C39.7589 138.366 40.9678 132.322 41.5051 129.904C41.6394 129.098 41.7737 128.695 41.7737 128.695C41.3707 128.83 40.9678 128.964 40.5648 129.098C34.789 130.71 24.9836 133.8 24.9836 133.8C24.9836 133.8 22.0286 143.471 19.6108 152.202C18.5362 156.097 17.596 159.723 17.0587 162.276C16.5214 164.559 15.8498 168.32 14.9096 172.618C14.9096 172.887 14.7753 173.156 14.7753 173.424C12.3575 185.513 9.13378 201.497 9.13378 201.497C8.86514 202.034 7.79059 202.034 7.2533 202.034C7.11898 202.034 6.98465 202.034 6.98465 202.034C6.98465 202.034 1.61184 182.424 2.55208 176.111C2.95505 173.424 3.76097 171.141 4.56689 169.395C5.64146 167.111 6.71603 165.768 6.71603 165.768C6.85035 164.156 6.98466 161.47 7.2533 158.246C7.92491 148.172 8.73083 132.456 9.26811 128.561C9.53675 126.009 10.074 122.248 10.7456 118.756C10.7456 118.621 10.7456 118.487 10.7456 118.353C10.7456 118.218 10.7456 118.218 10.7456 118.084C10.88 117.547 10.8799 117.144 11.0143 116.607C11.0143 116.472 11.0143 116.338 11.0143 116.204C11.4172 113.652 11.8202 111.234 12.0889 109.488V109.353C12.8948 104.786 13.835 96.7271 13.7007 90.6827C13.5664 85.8471 11.9545 81.6832 11.4173 80.2057C11.6859 80.0714 12.0888 79.937 12.3575 79.8027C12.8948 79.5341 13.5664 79.2654 14.1037 79.1311C14.238 79.6684 14.3723 80.2057 14.5066 80.8773C15.5812 85.3099 16.9244 93.1005 16.9244 93.1005L26.7298 90.817C27.1327 89.0708 27.4014 83.5637 27.5357 80.0714C27.5357 79.3998 27.5357 78.8625 27.67 78.3252C28.2073 78.4595 28.7446 78.5938 29.2819 78.8625C30.2221 79.1311 30.8937 79.5341 31.431 79.8027L30.2221 91.7573C31.1624 94.0407 33.5801 103.577 33.5801 103.577C33.0429 105.458 31.9683 112.711 31.5653 116.204C31.5653 116.338 31.5653 116.472 31.5653 116.607C31.5653 116.741 31.5653 117.01 31.5653 117.144C31.5653 117.278 31.5653 117.412 31.5653 117.547C31.5653 117.815 31.5653 117.95 31.5653 117.95C35.8636 116.338 41.3707 114.995 46.2063 114.189C51.7134 113.249 56.2803 112.98 56.8176 113.517C57.6235 114.457 55.743 119.293 53.8626 125.069Z" fill="#EE7123"/>
<path d="M59.6383 44.3419C59.3697 44.4762 59.3697 52.6698 58.5638 57.6396C57.7578 62.6095 54.2655 68.5196 54.2655 68.5196C52.1164 69.0569 50.6388 68.5196 49.6986 67.848C48.624 67.1764 48.2211 66.3705 48.2211 66.3705C48.2211 66.3705 48.4897 63.5497 50.1015 56.8337C51.7134 50.1177 55.743 43.4017 55.743 43.4017C54.9371 40.9839 54.9371 36.5513 55.0714 36.2827C55.8773 35.4767 56.8176 39.5064 56.8176 39.5064C56.8176 39.5064 58.6981 33.8649 59.6383 34.5365C60.5786 35.2081 58.6981 37.8945 58.4294 38.1631C58.5638 38.0288 60.5786 35.2081 61.1159 35.4767C61.6531 35.7454 59.6383 38.8348 59.101 39.6407C59.7726 38.8348 61.9218 36.417 62.3247 36.417C62.862 36.417 60.3099 40.8496 60.1756 41.1182C60.3099 40.9839 62.9963 38.0288 63.3993 38.9691C63.9366 39.775 59.907 44.2076 59.6383 44.3419Z" fill="#F1B5AB"/>
<path d="M16.1185 60.7292C17.596 60.4606 19.8794 60.4606 19.3422 59.9233C18.9392 59.5203 18.2676 59.1174 16.6558 59.2517C15.1782 59.5203 14.3723 60.9979 14.3723 60.9979C14.3723 60.9979 15.0439 60.8635 16.1185 60.7292Z" fill="#6E1D14"/>
<path d="M22.4315 59.789C21.8943 59.6546 21.4913 58.5801 23.5061 58.5801C25.5209 58.5801 26.1925 60.0576 26.1925 60.0576C26.1925 60.0576 23.2375 59.9233 22.4315 59.789Z" fill="#6E1D14"/>
<path d="M6.71603 201.9C6.71603 201.9 4.56687 204.721 4.29823 205.527H10.7456C10.7456 205.527 9.1338 202.437 8.73084 201.631L6.71603 201.9Z" fill="#442B6A"/>
<path d="M42.8483 156.634L43.5199 158.514H51.982C51.982 158.514 49.5643 152.067 42.8483 156.634Z" fill="#442B6A"/>
<path d="M19.4765 152.067C18.4019 155.963 17.4617 159.589 16.9244 162.141C16.3871 164.559 15.5812 168.589 14.6409 173.29C12.6261 174.768 9.93971 176.917 9.26811 176.917C8.59651 176.917 5.77576 171.947 4.29823 169.395C5.3728 167.111 6.44737 165.768 6.44737 165.768C6.58169 164.156 6.716 161.47 6.98464 158.246C8.19353 157.843 11.1486 156.634 14.6409 154.754C16.6557 153.545 18.2676 152.605 19.4765 152.067Z" fill="#2B91BE"/>
<path d="M53.8626 125.069C53.3253 126.546 52.5193 129.233 51.5791 132.456C47.1465 130.173 42.9826 129.77 41.3707 129.77C41.505 128.964 41.6394 128.561 41.6394 128.561C41.2364 128.696 40.8335 128.83 40.4305 128.964C41.908 123.457 44.5944 117.144 45.9376 114.055C51.4447 113.114 56.0117 112.846 56.549 113.383C57.6235 114.458 55.743 119.293 53.8626 125.069Z" fill="#2B91BE"/>
<path d="M13.9693 117.144C14.1036 117.144 14.238 117.144 14.3723 117.144V117.547C14.238 117.547 14.1036 117.547 13.9693 117.547C12.4918 117.278 11.4172 117.009 10.6113 116.741C10.6113 116.607 10.6113 116.472 10.6113 116.338C11.4172 116.607 12.4918 116.875 13.9693 117.144Z" fill="#6E2B28"/>
<path d="M26.3268 117.413V117.816C26.1925 117.816 26.0582 117.816 25.9239 117.816C24.715 117.95 23.3718 118.084 21.7599 118.084C21.4913 118.084 21.2227 118.084 20.954 118.084C18.9392 118.084 17.3273 117.95 15.8498 117.816C15.7155 117.816 15.5812 117.816 15.4469 117.816V117.413C15.5812 117.413 15.7155 117.413 15.8498 117.413C17.4617 117.547 19.4765 117.681 21.6256 117.681C23.2375 117.681 24.5807 117.547 25.9239 117.413C26.0582 117.413 26.1925 117.413 26.3268 117.413Z" fill="#6E2B28"/>
<path d="M31.431 116.069C31.431 116.204 31.431 116.338 31.431 116.472C30.4908 116.875 29.2819 117.278 27.4014 117.547C27.2671 117.547 27.1328 117.547 26.9984 117.547V117.144C27.1328 117.144 27.2671 117.144 27.4014 117.144C29.2819 116.875 30.6251 116.338 31.431 116.069Z" fill="#6E2B28"/>
<path d="M14.1037 119.428V119.831C13.9693 119.831 13.835 119.831 13.7007 119.696C12.2231 119.293 11.0143 119.025 10.2084 118.756C10.2084 118.622 10.2084 118.487 10.2084 118.353C11.0143 118.622 12.2231 119.025 13.7007 119.293C13.9693 119.428 14.1037 119.428 14.1037 119.428Z" fill="#6E2B28"/>
<path d="M25.7895 119.562C25.9238 119.562 26.0582 119.562 26.1925 119.427V119.83C26.0582 119.83 25.9238 119.83 25.7895 119.965C24.4463 120.368 22.9688 120.502 21.2226 120.502C21.0883 120.502 21.0883 120.502 20.954 120.502C18.9392 120.502 17.0587 120.233 15.4469 119.965C15.3125 119.965 15.1782 119.965 15.0439 119.965V119.562C15.1782 119.562 15.3125 119.562 15.4469 119.562C17.193 119.83 19.0735 120.099 21.0883 120.099C22.9688 120.233 24.4463 119.965 25.7895 119.562Z" fill="#6E2B28"/>
<path d="M31.2967 116.875V117.278C30.8937 117.681 29.5505 118.622 27.4014 119.428C27.2671 119.428 27.1328 119.562 26.9984 119.562V119.159C27.1328 119.159 27.2671 119.025 27.4014 119.025C29.8192 118.084 31.1624 116.875 31.2967 116.875Z" fill="#6E2B28"/>
<path d="M15.9841 116.607C15.8498 116.607 15.8498 116.472 15.9841 116.607H14.238C14.1037 116.607 14.1036 116.741 14.1036 116.741V117.144V117.547L13.9693 119.427V119.83L13.835 121.442C13.835 121.576 13.835 121.576 13.9693 121.576L15.1782 121.845H15.3125C15.3125 121.845 15.3125 121.711 15.4469 121.711L15.7155 120.099V119.696L15.9841 117.815V117.413L16.1185 116.741C15.9841 116.741 15.9841 116.607 15.9841 116.607ZM15.4469 117.681L15.1782 119.562V119.965L14.9096 121.442L13.9693 121.173L14.1036 119.696V119.293L14.238 117.413V117.01V116.741H15.4469L15.3125 117.278L15.4469 117.681Z" fill="#6E2B28"/>
<path d="M25.9238 117.816L25.7895 119.696C25.9238 119.696 26.0582 119.696 26.1925 119.562L26.3268 117.816C26.1925 117.681 26.0582 117.816 25.9238 117.816ZM27.1327 116.472H26.0582C25.9239 116.472 25.9238 116.607 25.9238 116.607V117.278V117.681L25.7895 119.562V119.965L25.6552 121.039V121.174H25.7895L27.1327 120.905C27.267 120.905 27.2671 120.771 27.2671 120.771V116.741C27.4014 116.607 27.267 116.472 27.1327 116.472ZM26.9984 120.636L26.0582 120.905V119.965V119.562L26.1925 117.816V117.413V117.01H26.8641V120.636H26.9984Z" fill="#6E2B28"/>
<path d="M19.6108 69.057C19.4765 68.9226 19.4765 68.9226 19.6108 68.7883H19.7451C19.8794 68.654 20.4167 68.654 21.2226 68.3854C22.4315 68.1167 23.1031 68.1167 23.5061 68.1167C22.5658 65.699 21.0883 61.535 21.2226 60.5948L21.3569 60.4604L21.4913 60.5948C21.357 61.2664 22.1629 64.0871 23.7747 68.251V68.3854V68.5197H23.6404C23.6404 68.5197 23.2374 68.1167 21.3569 68.654C20.2824 68.9226 19.8794 69.057 19.6108 69.057C19.7451 69.057 19.7451 69.057 19.6108 69.057Z" fill="#6E2B28"/>
<path d="M19.4765 71.7434C20.5511 71.6091 20.5511 71.6091 24.312 71.0718C24.312 71.0718 24.1777 73.3552 21.8942 73.4895C19.7451 73.7582 19.4765 71.7434 19.4765 71.7434Z" fill="white"/>
<path d="M18.9392 63.4155C18.9392 64.2214 18.6706 64.893 18.2676 64.893C17.8646 64.893 17.596 64.2214 17.596 63.4155C17.596 62.6096 17.8646 61.938 18.2676 61.938C18.5363 61.938 18.9392 62.6096 18.9392 63.4155Z" fill="#1E1724"/>
<path d="M24.8493 62.7441C24.8493 63.55 24.5807 64.0873 24.1777 64.0873C23.7747 64.0873 23.5061 63.4157 23.5061 62.7441C23.5061 61.9382 23.7747 61.4009 24.1777 61.4009C24.5807 61.4009 24.8493 61.9382 24.8493 62.7441Z" fill="#1E1724"/>
<path d="M28.8789 35.477C28.073 36.5516 24.8493 38.5664 24.8493 38.5664C24.8493 38.5664 24.715 39.1037 24.312 40.0439C23.5061 42.3274 22.0286 46.7599 20.6854 50.118C18.8049 54.8192 12.0889 68.5199 12.0889 68.5199C8.32788 68.7885 6.17876 67.311 4.83555 65.8335C3.76099 64.6246 3.35802 63.4157 3.35802 63.2814C3.49234 63.0127 6.58169 56.1624 10.3427 50.7896C14.1036 45.4167 19.7451 38.835 19.7451 38.835C18.2676 34.2681 19.2079 29.0296 20.2824 28.761C20.4167 28.761 20.551 28.761 20.551 28.8953C20.8197 29.1639 20.954 29.9699 20.954 30.7758C21.2227 29.8356 21.6256 28.8953 22.1629 28.8953C22.9688 28.8953 22.7002 32.2533 22.7002 32.6563C22.8345 32.119 23.2375 29.4326 24.0434 29.7012C24.9836 29.9699 24.0434 33.9995 24.1777 35.2084C24.312 36.4173 25.9239 35.3427 25.9239 35.3427C28.4759 33.7308 28.8789 35.477 28.8789 35.477Z" fill="#F1B5AB"/>
<path d="M21.2226 68.9227C19.2078 69.1913 16.9244 70.9375 15.9841 72.012C15.9841 72.012 20.6854 71.4747 22.9688 71.2061C25.5209 70.8031 26.9984 70.5345 26.9984 70.5345C26.9984 70.5345 25.6552 68.3854 21.2226 68.9227Z" fill="#6E1D14"/>
<path d="M20.954 39.6408C20.5511 40.3124 14.1037 47.4313 10.88 53.0728C8.59652 57.1024 6.17872 62.8782 4.96983 65.6989C3.89527 64.4901 3.49234 63.2812 3.49234 63.1469C3.62666 62.8782 6.71601 56.0279 10.477 50.655C14.238 45.2822 19.8794 38.7005 19.8794 38.7005C18.4019 34.1336 19.3421 28.8951 20.4167 28.6265C20.1481 30.104 19.6108 33.059 20.1481 34.9395C20.8197 37.6259 21.357 39.1035 20.954 39.6408Z" fill="#F5948D"/>
<path d="M28.8789 35.4771C28.2073 36.4173 24.8493 38.4321 24.8493 38.4321C24.8493 38.4321 24.715 38.9694 24.312 39.9096C24.4463 38.7007 24.5806 37.4919 24.5806 37.3575C24.715 37.3575 27.4014 36.4173 28.8789 35.4771Z" fill="#F5948D"/>
<path d="M56.8176 43.8047C56.8176 43.8047 53.4596 49.8491 52.385 55.4906C51.7134 59.1172 50.5045 64.7587 49.6986 67.848C48.624 67.1764 48.2211 66.3705 48.2211 66.3705C48.2211 66.3705 48.4897 63.5498 50.1015 56.8338C51.7134 50.1177 55.743 43.4017 55.743 43.4017C54.9371 40.9839 54.9371 36.5514 55.0714 36.2827C55.4744 38.1632 56.146 42.3271 56.8176 43.8047Z" fill="#F5948D"/>
<path d="M11.6859 110.159C11.2829 112.308 10.8799 115.129 10.3427 118.084C10.3427 118.084 9.40242 110.696 8.99945 106.667C8.59649 102.637 6.04443 99.1448 4.70122 96.3241C3.35801 93.5034 0 86.3844 0 78.4595C0 70.5346 3.49234 63.2812 3.49234 63.2812C4.02963 64.4901 4.70123 65.4304 5.50715 66.102C3.62666 71.2062 2.41777 78.3252 2.68641 82.2204C2.95505 86.3844 7.38762 95.6525 9.26811 100.891C10.3427 103.98 11.1486 107.741 11.6859 110.159Z" fill="#449FA1"/>
<path d="M49.5643 67.7138C47.5495 70.1315 39.8932 74.8328 35.3263 77.3848C37.8784 75.1014 41.1021 72.012 42.311 71.2061C44.1915 69.7286 48.2211 66.5049 48.2211 66.5049C48.4897 66.9078 49.027 67.4451 49.5643 67.7138Z" fill="#449FA1"/>
<path d="M11.6859 125.068C11.6859 125.068 10.074 136.62 8.99946 146.291C7.92489 155.962 7.2533 168.454 7.2533 168.454C7.2533 168.454 4.16395 174.364 4.16395 181.752C4.16395 188.199 6.31308 199.482 6.85036 202.034C6.71604 202.034 6.5817 202.034 6.5817 202.034C6.5817 202.034 1.20889 182.423 2.14914 176.11C2.5521 173.424 3.35802 171.14 4.16395 169.394C5.23851 167.111 6.31304 165.768 6.31304 165.768C6.44736 164.156 6.58172 161.469 6.85036 158.246C7.52196 148.172 8.32789 132.456 8.86517 128.561C9.13381 126.009 9.67106 122.248 10.3427 118.755C10.3427 118.621 10.3427 118.487 10.3427 118.352C10.3427 118.218 10.3427 118.218 10.3427 118.084C10.477 117.547 10.477 117.144 10.6113 116.606C10.6113 116.472 10.6113 116.338 10.6113 116.203C11.0143 113.651 11.4172 111.233 11.6859 109.487C12.0888 112.577 11.9545 121.845 11.6859 125.068Z" fill="#D15C27"/>
<path d="M42.9826 156.5L42.8483 156.634C42.8483 156.634 40.2962 150.993 40.0275 143.874C39.7589 138.366 40.9678 132.322 41.5051 129.904C41.6394 129.098 41.7737 128.695 41.7737 128.695C41.3707 128.83 40.9678 128.964 40.5648 129.098C34.789 130.71 24.9836 133.8 24.9836 133.8C24.9836 133.8 22.0286 143.471 19.6108 152.201C18.5362 156.097 17.596 159.723 17.0587 162.276C16.5214 164.559 15.8498 168.32 14.9096 172.618C15.4469 166.439 16.1184 160.126 17.0587 155.694C19.7451 143.471 23.3718 132.591 23.3718 132.591C29.1476 131.516 45.1317 124.666 45.1317 124.666C45.1317 124.666 43.9228 131.65 42.7139 140.247C41.505 146.963 42.4453 153.813 42.9826 156.5Z" fill="#D15C27"/>
<path d="M5.10417 206.198C4.7012 206.198 4.43256 205.93 4.43256 205.527C4.43256 205.392 4.43256 205.392 4.43256 205.258C4.7012 204.184 7.11898 188.199 9.80539 171.275C12.0888 157.037 14.5066 140.784 16.5214 128.158C17.596 121.308 18.4019 116.204 19.0735 112.577C20.1481 105.995 20.1481 105.995 20.8197 105.861C21.2227 105.727 21.6256 105.995 21.6256 106.398C21.6256 106.532 21.6256 106.667 21.4913 106.935C20.8197 109.085 15.3125 145.082 11.1486 171.544C9.67107 180.812 8.32788 189.408 7.38763 195.587C6.85035 198.676 6.4474 201.228 6.17876 202.975C6.04444 203.781 5.91009 204.586 5.77577 204.989C5.77577 205.795 5.64145 206.198 5.10417 206.198ZM21.2226 107.204C21.2226 107.204 21.0883 107.338 20.954 107.338C21.0883 107.338 21.2226 107.338 21.2226 107.204Z" fill="#90584D"/>
<path d="M57.3549 206.198C56.9519 206.198 56.6833 205.93 56.6833 205.527V106.667C56.6833 106.264 56.9519 105.995 57.3549 105.995C57.7578 105.995 58.0265 106.264 58.0265 106.667V205.527C58.0265 205.93 57.7578 206.198 57.3549 206.198Z" fill="#90584D"/>
<path d="M33.8488 206.199C33.5801 206.199 33.3115 206.064 33.1772 205.796C33.0428 205.258 27.67 161.067 24.4463 134.74C24.4463 134.606 24.4463 134.337 24.5806 134.203C24.715 134.068 24.8493 133.934 25.1179 133.934H57.8922C58.1608 133.934 58.5638 134.203 58.5638 134.471L73.339 205.258C73.4734 205.661 73.2047 206.064 72.8017 206.064C72.3988 206.199 71.9958 205.93 71.9958 205.527L57.3549 135.277H25.9239C28.8789 159.321 34.2517 203.781 34.5204 205.258C34.6547 205.661 34.3861 205.93 34.1174 206.064C33.9831 206.199 33.8488 206.199 33.8488 206.199Z" fill="#90584D"/>
<path d="M58.0265 134.606H14.3723V138.501H58.0265V134.606Z" fill="#A1D0C0"/>
<path d="M56.8176 160.261H10.7457V163.216H56.8176V160.261Z" fill="#A1D0C0"/>
<path d="M57.8922 189.006H6.98465V192.095H57.8922V189.006Z" fill="#A1D0C0"/>
<path d="M58.1608 104.786H19.8794V107.473H58.1608V104.786Z" fill="#A1D0C0"/>
<path d="M29.24 0H115.76C120.311 0 124 3.74447 124 8.3636V27.6864C124 32.3055 120.311 36.05 115.76 36.05H29.24C24.6891 36.05 21 32.3055 21 27.6864V8.3636C21 3.74447 24.6891 0 29.24 0Z" fill="#8ADEFF"/>
<path d="M115.121 29.4552H29.8791C28.8984 29.4552 28.1033 28.66 28.1033 27.6793C28.1033 26.6986 28.8984 25.9034 29.8791 25.9034H115.121C116.101 25.9034 116.896 26.6986 116.896 27.6793C116.896 28.66 116.101 29.4552 115.121 29.4552Z" fill="#53BBE3"/>
<path d="M115.121 22.3519H29.8791C28.8984 22.3519 28.1033 21.5568 28.1033 20.576C28.1033 19.5953 28.8984 18.8002 29.8791 18.8002H115.121C116.101 18.8002 116.896 19.5953 116.896 20.576C116.896 21.5568 116.101 22.3519 115.121 22.3519Z" fill="#53BBE3"/>
<path d="M106.619 5.15002H113.056C114.834 5.15002 116.275 6.87922 116.275 9.01252C116.275 11.1458 114.834 12.875 113.056 12.875H106.619C104.841 12.875 103.4 11.1458 103.4 9.01252C103.4 6.87922 104.841 5.15002 106.619 5.15002Z" fill="#FFBF41"/>
<path d="M93.7437 12.875H89.8812C88.8147 12.875 87.95 11.722 87.95 10.3C87.95 8.87793 88.8147 7.72498 89.8812 7.72498H93.7437C94.8103 7.72498 95.675 8.87793 95.675 10.3C95.675 11.722 94.8103 12.875 93.7437 12.875Z" fill="#EDEDED"/>
<path d="M83.4437 12.875H79.5812C78.5147 12.875 77.65 11.722 77.65 10.3C77.65 8.87793 78.5147 7.72498 79.5812 7.72498H83.4437C84.5103 7.72498 85.375 8.87793 85.375 10.3C85.375 11.722 84.5103 12.875 83.4437 12.875Z" fill="#2BB3CE"/>
<g clip-path="url(#clip0_1330_2798)">
<path d="M82.5716 59.3608L82.5716 43.2671C82.5716 42.8504 82.9262 42.5127 83.3637 42.5127C83.8013 42.5127 84.1559 42.8504 84.1559 43.2671L84.1559 59.3608C84.1559 61.1634 85.6956 62.6299 87.5883 62.6299C88.0259 62.6299 88.3805 62.9675 88.3805 63.3843C88.3805 63.801 88.0259 64.1387 87.5883 64.1387C84.8222 64.1387 82.5716 61.9953 82.5716 59.3608Z" fill="#CEE9F8"/>
<path d="M70.7427 66.4336C70.7427 65.1372 71.443 63.6775 72.786 63.4604C73.2174 63.3908 73.6263 63.6673 73.6994 64.0781C73.7721 64.4898 73.4821 64.8785 73.0508 64.948C72.5794 65.024 72.2053 66.0698 72.3636 66.8032C72.5377 67.6084 73.5143 68.3762 74.8467 68.2673C75.2826 68.2317 75.6663 68.5394 75.7036 68.9545C75.7408 69.3684 75.418 69.7351 74.982 69.7706C72.7896 69.9497 70.7427 68.5624 70.7427 66.4336Z" fill="#CEE9F8"/>
<path d="M100.985 64.694C101.298 63.2492 100.566 61.2979 99.011 61.0467C98.5796 60.977 98.1707 61.2536 98.0976 61.6644C98.024 62.076 98.315 62.4647 98.7462 62.5342C99.2017 62.6076 99.5971 63.6338 99.4334 64.3894C99.2605 65.1888 98.2966 65.9501 96.979 65.8548C96.9473 65.8511 96.9153 65.8486 96.8827 65.8486C95.4559 65.8486 94.2951 64.3822 94.2951 62.5796L94.2951 46.4858C94.2951 46.0691 93.9406 45.7314 93.503 45.7314C93.0655 45.7314 92.7109 46.0691 92.7109 46.4858L92.7109 62.5796C92.7109 65.1827 94.5385 67.3049 96.8011 67.355C98.6658 67.5406 100.6 66.4726 100.985 64.694Z" fill="#A1D7F3"/>
<path d="M94.2949 43.2695L94.2949 36.832C94.2949 36.4153 93.9403 36.0776 93.5028 36.0776C93.0652 36.0776 92.7107 36.4153 92.7107 36.832L92.7107 43.2695C92.7107 43.6863 93.0652 44.0239 93.5028 44.0239C93.9403 44.0239 94.2949 43.6862 94.2949 43.2695Z" fill="#A1D7F3"/>
<path d="M74.1222 69.0195C74.1222 68.6028 74.4768 68.2651 74.9143 68.2651C76.3412 68.2651 77.5019 66.7987 77.5019 64.9961L77.5019 36.832C77.5019 36.4153 77.8565 36.0776 78.294 36.0776C78.7316 36.0776 79.0861 36.4153 79.0861 36.832L79.0861 64.9961C79.0861 67.6305 77.2146 69.7739 74.9143 69.7739C74.4768 69.7739 74.1222 69.4361 74.1222 69.0195Z" fill="#CEE9F8"/>
<path d="M85.9514 49.7046L85.9514 43.2671C85.9514 42.8504 86.3059 42.5127 86.7435 42.5127C87.1811 42.5127 87.5356 42.8504 87.5356 43.2671L87.5356 49.7046C87.5356 50.176 87.9383 50.5596 88.4334 50.5596C88.8709 50.5596 89.2255 50.8972 89.2255 51.314C89.2255 51.7307 88.8709 52.0684 88.4334 52.0684C87.0648 52.0684 85.9514 51.008 85.9514 49.7046Z" fill="#CEE9F8"/>
<path d="M69.8979 56.9492C69.8979 56.5325 70.2524 56.1948 70.69 56.1948C72.5827 56.1948 74.1225 54.7284 74.1225 52.9258L74.1225 36.832C74.1225 36.4153 74.477 36.0776 74.9146 36.0776C75.3522 36.0776 75.7067 36.4153 75.7067 36.832L75.7067 52.9258C75.7067 55.5602 73.4562 57.7036 70.69 57.7036C70.2524 57.7036 69.8979 57.3658 69.8979 56.9492Z" fill="#A1D7F3"/>
<path d="M69.0529 44.8789C69.0529 44.4622 69.4074 44.1245 69.845 44.1245C70.34 44.1245 70.7427 43.741 70.7427 43.2695L70.7427 36.832C70.7427 36.4153 71.0973 36.0776 71.5348 36.0776C71.9724 36.0776 72.327 36.4153 72.327 36.832L72.3269 43.2695C72.3269 44.5729 71.2136 45.6333 69.845 45.6333C69.4074 45.6333 69.0529 45.2955 69.0529 44.8789Z" fill="#A1D7F3"/>
<path d="M95.0478 84.9924C97.3876 82.1851 96.936 78.5591 96.6333 77.1302C96.5665 76.8149 96.309 76.5679 95.9784 76.5019C94.5001 76.2069 90.7481 75.7667 87.8439 78.0451C87.1533 78.5869 85.3379 80.011 85.3379 82.165C85.3379 83.5665 86.0761 84.7279 87.0962 85.7177C87.5194 86.1282 88.807 87.3774 90.6635 87.428C92.9658 87.4908 94.4785 85.6757 95.0478 84.9924Z" fill="#6BC800"/>
<path d="M87.4057 86.0072C86.2338 84.9637 85.3377 83.7039 85.3377 82.1648C85.3377 80.0112 87.1533 78.5869 87.844 78.0448C90.7484 75.7665 94.4999 76.2071 95.9785 76.5018C96.3091 76.5682 96.5668 76.8146 96.6333 77.1304C96.7167 77.5247 96.8118 78.087 96.8561 78.7539C95.066 78.5346 92.057 78.5447 89.6363 80.4437C88.9456 80.9859 87.13 82.4102 87.13 84.5637C87.13 85.0551 87.2248 85.5386 87.4057 86.0072Z" fill="#57A000"/>
<path d="M111.531 76.7908C111.531 78.9445 113.346 80.3688 114.037 80.9107C116.941 83.189 120.693 82.7488 122.171 82.4539C122.502 82.3879 122.759 82.1409 122.826 81.8255C123.129 80.3966 123.58 76.7708 121.241 73.9633C120.671 73.28 119.158 71.4649 116.856 71.5277C115 71.5783 113.712 72.8276 113.289 73.2382C112.272 74.225 111.531 75.3854 111.531 76.7908Z" fill="#6BC800"/>
<path d="M114.036 80.9111C113.346 80.369 111.53 78.9447 111.53 76.7911C111.53 75.6453 112.043 74.6079 112.809 73.7363C112.797 73.8458 112.79 73.9682 112.79 74.1155C112.79 76.2691 114.606 77.6934 115.295 78.2355C117.985 80.3458 121.403 80.1235 123.066 79.8449C123.038 80.6677 122.924 81.3628 122.826 81.8255C122.759 82.1413 122.501 82.3877 122.171 82.4541C120.692 82.7488 116.941 83.1894 114.036 80.9111Z" fill="#57A000"/>
<path d="M117.653 47.8972C118.67 46.9102 119.411 45.75 119.411 44.3446C119.411 42.1908 117.595 40.7665 116.905 40.2247C114.001 37.9464 110.249 38.3866 108.77 38.6815C108.44 38.7475 108.182 38.9945 108.115 39.3099C107.548 41.9869 107.88 44.9868 109.701 47.1721C110.27 47.8553 111.783 49.6704 114.085 49.6076C115.942 49.5571 117.229 48.3078 117.653 47.8972Z" fill="#6BC800"/>
<path d="M118.083 47.4553C118.097 47.3342 118.104 47.1688 118.104 47.0661C118.104 44.9125 116.288 43.4882 115.597 42.9461C112.933 40.8559 109.555 41.0541 107.874 41.3287C107.9 40.4898 108.015 39.7796 108.116 39.3099C108.182 38.9941 108.44 38.7476 108.77 38.6812C110.249 38.3865 114 37.9459 116.905 40.2242C117.596 40.7664 119.411 42.1907 119.411 44.3442C119.411 45.5077 118.883 46.5639 118.083 47.4553Z" fill="#57A000"/>
<path d="M81.6738 86.7201C81.6738 86.2754 82.0526 85.9145 82.5205 85.9154C85.8799 85.9222 89.1217 84.2649 91.0012 81.3991C91.2484 81.0221 91.7696 80.9073 92.1653 81.1428C92.5611 81.3781 92.6818 81.8747 92.4344 82.2515C90.2147 85.6368 86.3998 87.5326 82.517 87.5248C82.051 87.5239 81.6738 87.1637 81.6738 86.7201Z" fill="#57A000"/>
<path d="M107.866 72.2356C107.866 71.7919 108.243 71.4318 108.709 71.4309C112.602 71.4231 116.412 73.3263 118.627 76.7043C118.874 77.0811 118.754 77.5777 118.358 77.8129C117.962 78.0484 117.441 77.9336 117.194 77.5566C115.311 74.6867 112.067 73.0336 108.713 73.0403C108.246 73.0412 107.866 72.6812 107.866 72.2356Z" fill="#57A000"/>
<path d="M112.584 43.3227C112.979 43.0873 113.501 43.202 113.748 43.579C115.63 46.449 118.874 48.1021 122.228 48.0953C122.695 48.0944 123.074 48.4538 123.075 48.8983C123.076 49.3426 122.699 49.7038 122.232 49.7047C118.34 49.7126 114.529 47.8094 112.315 44.4314C112.069 44.057 112.185 43.5595 112.584 43.3227Z" fill="#57A000"/>
<path d="M98.5723 48.9004C98.5723 49.3451 98.9508 49.7056 99.4178 49.7056C99.8847 49.7056 100.263 49.3451 100.263 48.9004C100.263 48.4557 99.8847 48.0952 99.4178 48.0952C98.9508 48.0952 98.5723 48.4557 98.5723 48.9004Z" fill="#6BC800"/>
<path d="M114.625 52.9229C114.625 53.3676 115.003 53.7281 115.47 53.7281C115.937 53.7281 116.316 53.3676 116.316 52.9229C116.316 52.4782 115.937 52.1177 115.47 52.1177C115.003 52.1177 114.625 52.4782 114.625 52.9229Z" fill="#57A000"/>
<path d="M108.711 61.7744C108.711 62.2191 109.09 62.5796 109.557 62.5796C110.024 62.5796 110.402 62.2191 110.402 61.7744C110.402 61.3297 110.024 60.9692 109.557 60.9692C109.09 60.9692 108.711 61.3297 108.711 61.7744Z" fill="#57A000"/>
<path d="M101.951 81.8914C101.951 81.447 102.33 81.0862 102.796 81.0862C103.263 81.0862 103.642 81.447 103.642 81.8914C103.642 82.3358 103.263 82.6966 102.796 82.6966C102.33 82.6966 101.951 82.3358 101.951 81.8914ZM102.796 82.6955L102.796 82.6966L102.796 82.6955ZM102.796 81.8914L102.796 81.8924L102.796 81.8914Z" fill="#6BC800"/>
<path d="M80.8288 70.627C80.8288 70.1826 81.2076 69.8218 81.6742 69.8218C82.1408 69.8218 82.5197 70.1826 82.5197 70.627C82.5197 71.0714 82.1408 71.4322 81.6742 71.4322C81.2076 71.4322 80.8288 71.0714 80.8288 70.627ZM81.6742 71.4311L81.6742 71.4322L81.6742 71.4311ZM81.6742 70.627L81.6742 70.628L81.6742 70.627Z" fill="#57A000"/>
<path d="M69.0001 81.8914C69.0001 81.447 69.379 81.0862 69.8456 81.0862C70.3122 81.0862 70.691 81.447 70.691 81.8914C70.691 82.3358 70.3122 82.6966 69.8456 82.6966C69.379 82.6966 69.0001 82.3358 69.0001 81.8914ZM69.8456 82.6955L69.8456 82.6966L69.8456 82.6955ZM69.8456 81.8914L69.8456 81.8924L69.8456 81.8914Z" fill="#6BC800"/>
</g>
<path d="M39.3351 49.1756L39.6327 50.5614C39.9454 52.0173 41.0827 53.1546 42.5387 53.4673L43.9245 53.7649C44.2585 53.8366 44.2585 54.3135 43.9245 54.3852L42.5387 54.6828C41.0827 54.9955 39.9454 56.1328 39.6327 57.5887L39.3351 58.9745C39.2635 59.3086 38.7865 59.3086 38.7149 58.9745L38.4173 57.5887C38.1046 56.1328 36.9673 54.9955 35.5113 54.6828L34.1255 54.3852C33.7915 54.3135 33.7915 53.8366 34.1255 53.7649L35.5113 53.4673C36.9673 53.1546 38.1046 52.0173 38.4173 50.5614L38.7149 49.1756C38.7865 48.8415 39.2635 48.8415 39.3351 49.1756Z" fill="#FFC91D"/>
<defs>
<clipPath id="clip0_1330_2798">
<rect width="51.5" height="54.075" fill="white" transform="translate(123.075 36.05) rotate(90)"/>
</clipPath>
</defs>
</svg>
