<svg width="197" height="201" viewBox="0 0 197 201" fill="none" xmlns="http://www.w3.org/2000/svg">
<path d="M88.1402 124.965C87.2938 125.981 86.6166 122.425 86.6166 122.425C86.6166 122.425 86.4473 124.457 85.9394 124.626C85.2622 124.795 84.4158 122.256 84.4158 122.256C84.4158 122.256 84.4158 123.61 83.7386 123.61C83.4 123.61 82.8921 122.764 82.7228 122.087C82.5535 121.579 82.3843 121.071 82.3843 121.071C82.3843 121.071 80.8606 117.854 81.5378 115.654C81.5378 115.654 80.3527 111.421 79.5063 109.728C78.8291 108.035 77.4747 105.835 77.4747 105.835C77.8133 105.665 77.9826 105.496 78.3212 105.157C79.1677 104.48 80.0142 103.634 81.3685 102.787C82.7228 101.941 84.4158 100.925 86.6166 100.079C86.9552 99.9094 87.2937 99.9094 87.6323 99.7401C87.6323 99.7401 86.4473 113.622 86.6166 113.791C86.7859 113.961 88.6481 116.331 88.9867 117.347C89.156 118.532 88.9867 123.949 88.1402 124.965Z" fill="#D64E27"/>
<path d="M82.7228 122.087C82.5535 121.579 82.3843 121.071 82.3843 121.071C82.3843 121.071 80.8606 117.855 81.5378 115.654C81.5378 115.654 80.3527 111.421 79.5063 109.728C78.8291 108.036 77.4747 105.835 77.4747 105.835C77.8133 105.665 77.9826 105.496 78.3212 105.158C79.1677 104.48 80.0142 103.634 81.3685 102.787C81.5378 106.004 81.8763 113.453 82.5535 115.146C82.7228 114.977 82.0457 118.532 82.7228 122.087Z" fill="#BF3B27"/>
<path d="M82.215 131.737C82.215 131.737 83.2308 139.016 82.7229 151.205C82.3843 163.225 80.5221 184.725 80.5221 184.725H78.4906C78.4906 184.725 70.0259 154.083 68.8409 147.819C67.6558 141.556 70.1952 136.985 70.1952 136.985C70.1952 136.985 62.4077 125.642 59.699 121.579C57.1596 117.516 48.1871 103.465 48.1871 103.465L43.7855 106.681C43.7855 106.681 42.7698 113.961 41.5847 119.378C40.5689 124.626 38.0295 141.386 38.0295 141.386C42.0926 153.406 38.876 164.918 37.6909 168.812C36.5059 172.536 32.1043 186.587 32.1043 186.587L31.4271 186.418L29.3956 186.08C29.3956 186.08 27.5334 147.989 27.3641 142.063C27.3641 140.201 27.1948 137.323 27.1948 133.937C27.0255 125.811 26.6869 114.469 26.8562 107.528C27.0255 99.5709 28.2106 88.7361 28.8877 81.1179C28.8877 80.9487 28.8877 80.7794 28.8877 80.6101C29.057 78.9171 29.057 77.3935 29.2263 76.0392C29.2263 75.8699 29.2263 75.5313 29.2263 75.1927C29.2263 75.0234 29.2263 74.8541 29.2263 74.5155C29.5649 68.5903 30.7499 62.665 31.0885 60.9721C31.0885 60.9721 31.0885 60.8028 31.0885 60.6335C31.0885 60.6335 32.2736 60.1256 34.4744 58.9406C35.8287 58.2634 37.5217 57.2476 39.5532 56.0626C44.8013 53.0153 48.3564 50.4759 48.3564 50.4759C48.3564 50.4759 51.2344 44.5507 53.2659 40.149C54.7896 36.7632 56.4825 33.208 57.1596 31.6844C58.3447 31.8537 59.699 32.1923 60.8841 32.3616C60.2069 33.5466 58.514 36.5939 56.9904 39.8105C55.1282 44.0428 52.0808 50.6452 52.0808 50.6452C54.9588 51.4917 65.6243 58.2634 65.6243 58.2634C73.4118 48.783 80.1835 43.5349 82.7229 41.6727C83.9079 42.5191 84.7544 43.3656 85.6009 44.0428C83.5694 45.5664 78.6599 49.2909 75.9512 51.8303C72.5653 55.0468 67.3172 60.6335 67.3172 60.6335C67.6558 61.6493 67.9944 64.0194 68.333 66.0509C68.5023 67.5745 68.6716 68.7596 68.6716 68.7596C68.333 69.0981 65.9629 72.3147 63.7621 75.362C62.4078 77.2242 60.7148 80.2715 59.5298 82.4723C59.3605 82.6416 59.3605 82.8109 59.1912 82.9802C58.514 84.3345 58.0061 85.181 57.8368 85.5196L58.0061 85.8582L82.215 131.737Z" fill="#6D43A5"/>
<path d="M34.8131 58.7712C33.2895 65.543 30.4115 86.366 29.7343 93.4763C29.2264 98.8937 28.0414 121.41 27.3642 133.599C27.1949 125.473 26.8563 114.13 27.0256 107.189C27.1949 99.2323 28.38 88.3975 29.0572 80.7793C29.0572 80.61 29.0572 80.4407 29.0572 80.2715C29.2265 78.5785 29.2264 77.0549 29.3957 75.7005C29.3957 75.5313 29.3957 75.1927 29.3957 74.8541C29.3957 74.6848 29.3957 74.5155 29.3957 74.1769C29.7343 68.2517 30.9194 62.3264 31.258 60.6335C31.258 60.6335 31.258 60.4642 31.258 60.2949C31.258 60.2949 32.7816 59.9563 34.8131 58.7712Z" fill="#6A3987"/>
<path d="M78.8292 184.556H78.4906C78.4906 184.556 70.0259 153.914 68.8409 147.65C67.6558 141.386 70.1952 136.815 70.1952 136.815C70.1952 136.815 62.4077 125.473 59.699 121.41C57.1596 117.347 48.1871 103.295 48.1871 103.295L43.7855 106.512C43.7855 106.512 42.7698 113.792 41.5847 119.209C40.5689 124.457 38.0295 141.217 38.0295 141.217C42.0926 153.237 38.876 164.749 37.6909 168.642C36.5059 172.367 32.1043 186.418 32.1043 186.418L31.4271 186.249C33.1201 180.154 36.5059 167.796 37.3524 161.701C38.3681 153.406 36.5059 142.571 36.5059 142.571C36.5059 142.571 36.8445 139.016 37.8602 130.552C38.876 122.087 42.2619 106.85 42.2619 106.85L47.6793 102.618C47.6793 102.618 51.573 107.358 56.1439 112.945C60.7148 118.532 74.0889 136.307 74.0889 136.307C74.0889 136.307 73.7504 141.048 73.4118 147.312C73.0732 153.575 75.4433 165.426 76.6283 172.028C77.6441 176.599 78.4906 181.847 78.8292 184.556Z" fill="#6A3987"/>
<path d="M69.1795 68.9289C68.8409 69.2675 66.4708 72.4841 64.27 75.7006C62.9156 77.5628 61.2227 80.6101 60.0377 82.8109C59.8684 82.9802 59.8683 83.1495 59.699 83.3188C59.0219 84.6732 58.514 85.5196 58.3447 85.8582C58.8526 84.1653 66.6401 68.7596 68.6716 66.2202C69.0102 67.7439 69.1795 68.9289 69.1795 68.9289Z" fill="#6A3987"/>
<path d="M57.4982 31.8537C56.8211 33.208 55.2974 36.9324 53.6045 40.3183C51.573 44.5506 48.695 50.6452 48.695 50.6452C48.695 50.6452 45.1399 53.0153 39.8918 56.2318C37.8603 57.4169 36.1673 58.4327 34.813 59.1098C32.6122 60.2949 31.4271 60.8028 31.4271 60.8028C31.5964 59.1098 32.2736 52.3381 35.1515 47.09C35.1515 47.09 26.5176 44.5506 21.7774 45.0585C21.7774 45.0585 19.5766 52.846 20.2538 60.2949C19.9152 60.2949 19.4073 60.2949 18.8994 60.1256C16.8679 59.9563 14.1592 59.787 12.1277 60.1256C11.7891 58.0941 9.75761 48.2751 9.41903 43.5349C9.08044 38.2868 9.75758 33.8852 9.75758 33.8852C9.75758 33.8852 16.36 31.0072 29.2263 29.9914C37.183 29.145 48.0178 29.9914 57.4982 31.8537Z" fill="#A6DDEB"/>
<path d="M89.3254 63.85C88.3096 69.7753 87.4632 76.0391 87.4632 76.0391C87.4632 76.0391 88.1403 79.2557 87.8017 83.9959C87.6324 88.3975 86.786 98.0472 86.6167 99.9094C83.4001 101.094 81.3686 102.618 79.845 103.803C79.3371 104.142 78.8292 104.65 78.4906 104.988C78.152 104.311 73.2425 92.9684 75.7819 88.2282C75.7819 88.2282 75.1047 81.9644 74.9355 77.0549C74.9355 72.1454 75.6127 64.0193 75.6127 64.0193L74.2583 63.6807L69.0102 68.7595C69.0102 68.7595 68.8409 67.913 68.6716 66.5587C68.3331 64.5272 67.8252 61.6492 67.4866 60.6334C67.4866 60.6334 72.7347 55.0468 76.1205 51.8302C78.8292 49.4601 83.7387 45.5664 85.7702 44.0427C87.8018 45.9049 88.9868 47.4286 89.1561 47.9365C89.664 49.2908 90.3411 57.7555 89.3254 63.85Z" fill="#A6DDEB"/>
<path d="M82.8923 41.8419C80.3529 43.7042 73.5812 48.9522 65.7937 58.4327C65.7937 58.4327 55.1282 51.6609 52.2502 50.8145C52.2502 50.8145 55.2975 44.212 57.1597 39.9797C58.5141 36.7632 60.3763 33.7159 61.0535 32.5308C61.7307 32.7001 62.5771 32.8694 63.2543 33.0387C66.9787 33.8852 70.1953 34.9009 72.5654 35.9167C75.9513 37.271 78.9986 39.1333 81.3687 40.8262C82.0458 41.1648 82.5537 41.5034 82.8923 41.8419Z" fill="#A6DDEB"/>
<path d="M39.2147 45.5664C39.2147 45.5664 36.3367 53.3539 34.813 58.9406C32.6122 60.1256 31.4272 60.6335 31.4272 60.6335C31.5965 58.9406 32.2736 52.1689 35.1516 46.9208C35.1516 46.9208 26.5177 44.3814 21.7775 44.8893C21.7775 44.8893 19.5767 52.6768 20.2538 60.1256C19.9152 60.1256 19.4074 60.1256 18.8995 59.9564C18.2223 56.5705 16.868 48.1058 19.2381 42.5192C19.4074 42.5192 31.4272 42.3499 39.2147 45.5664Z" fill="#66C8CE"/>
<path d="M80.0141 103.803C79.5062 104.142 78.9984 104.65 78.6598 104.988C78.3212 104.311 73.4117 92.9685 75.9511 88.2283C75.9511 88.2283 75.2739 81.9645 75.1046 77.055C75.1046 72.1455 75.7818 64.0194 75.7818 64.0194L74.4275 63.6808L69.1794 68.7596C69.1794 68.7596 69.0101 67.9131 68.8408 66.5588C70.8723 64.5273 73.581 61.48 74.2582 61.1414C75.1046 60.6335 78.8291 59.4485 78.8291 59.4485C77.8133 64.1887 78.8291 87.3818 78.8291 87.3818C77.8133 91.2756 79.1677 99.9095 80.0141 103.803Z" fill="#66C8CE"/>
<path d="M81.7071 40.8262C79.1677 41.1648 74.2582 41.3341 70.0259 39.6411C65.2857 37.7789 63.9314 34.393 63.5928 33.0387C67.3172 33.8852 70.5338 34.9009 72.9039 35.9167C76.1205 37.271 79.1677 39.1332 81.7071 40.8262Z" fill="#66C8CE"/>
<path d="M95.7585 191.328C95.7585 191.497 93.0498 191.836 92.2033 193.19C91.3568 194.544 91.8647 195.729 93.0498 195.729C94.2348 195.729 95.9277 196.237 95.7585 196.745C95.7585 197.253 96.6049 196.237 96.9435 196.407C97.2821 196.576 96.6049 198.099 97.6207 198.607C98.6364 198.946 98.4671 199.962 101.176 200.3C104.054 200.639 105.408 198.607 106.255 198.1C107.27 197.592 109.979 197.422 111.672 197.93C113.365 198.438 113.703 198.269 114.719 197.592C115.735 196.914 117.259 197.592 118.105 196.745C118.952 196.068 119.459 194.544 120.644 194.544C121.83 194.544 123.522 194.714 124.2 193.867C124.877 192.851 124.538 192.174 125.723 192.174C126.739 192.174 127.755 192.344 128.093 191.497C128.432 190.651 127.078 189.296 128.093 189.127C129.109 188.958 130.294 187.095 128.093 186.588C125.893 186.08 124.369 187.434 124.369 187.434L95.7585 191.328Z" fill="#7BC6C9"/>
<path d="M104.562 193.359L125.215 186.926L118.444 184.556L95.7584 190.651L104.562 193.359Z" fill="#D64E27"/>
<path d="M32.2736 186.249C31.935 186.249 30.0728 185.233 27.0255 186.249C23.9782 187.265 20.4231 189.804 20.4231 189.804H32.9508L32.2736 186.249Z" fill="#C72F47"/>
<path d="M78.8291 189.804H91.8646C91.8646 189.804 84.4157 184.556 78.3212 184.217L78.8291 189.804Z" fill="#C72F47"/>
<path d="M95.7584 190.651V192.513L104.562 195.391V193.359L95.7584 190.651Z" fill="#6E2C27"/>
<path d="M104.562 195.391L125.215 188.788V186.926L104.562 193.359V195.391Z" fill="#EE7123"/>
<path d="M101.345 179.985C101.176 179.985 100.837 179.816 100.668 179.646L1.12366 56.2319C0.785073 55.8933 0.954324 55.3854 1.29291 55.0468C1.6315 54.7082 2.1394 54.8775 2.47798 55.2161L102.022 178.631C102.361 178.969 102.192 179.477 101.853 179.816C101.684 179.985 101.514 179.985 101.345 179.985Z" fill="#CE8686"/>
<path d="M72.7347 32.5309C72.7347 32.5309 72.2268 33.3773 71.5496 34.5624C70.5339 36.4246 68.8409 38.6254 68.1638 38.4561C67.148 38.1175 66.8094 36.5939 66.6401 34.2238C66.6401 34.0545 66.6401 33.8852 66.6401 33.7159C66.6401 33.3773 66.6401 33.0387 66.6401 32.7002C66.8094 30.3301 67.148 27.2828 67.148 27.2828C67.148 27.4521 67.3173 27.6214 67.3173 27.7907C68.3331 29.3143 70.1953 31.0072 72.7347 32.5309Z" fill="#F1B5AB"/>
<path d="M99.9908 180.832C100.329 180.662 102.53 177.615 102.53 177.615L112.857 188.45L107.101 189.127L99.9908 180.832Z" fill="#2B91BE"/>
<path d="M63.0848 64.5272C60.5454 63.1729 47.1713 56.5705 47.002 56.4012H46.8327C46.8327 56.4012 46.6634 56.4012 46.6634 56.5705C46.4941 56.9091 42.9389 65.543 45.309 70.4525C45.9862 71.9761 47.3406 72.9919 49.0335 73.4998C49.88 73.6691 50.5571 73.8384 51.4036 73.8384C58.5139 73.8384 63.0848 64.8658 63.2541 64.8658C63.2541 64.6965 63.2541 64.5272 63.0848 64.5272ZM51.4036 73.3305C50.7264 73.3305 49.88 73.1612 49.2028 72.9919C47.6792 72.6533 46.4941 71.6375 45.817 70.2832C43.6161 65.8816 46.4941 58.2634 47.1713 56.9091C48.8642 57.7555 60.0376 63.3422 62.9156 64.6965C62.0691 66.0509 57.8367 73.3305 51.4036 73.3305Z" fill="#A6DDEB"/>
<path d="M59.6991 83.3187C59.8684 83.1495 59.8684 82.9802 60.0377 82.8109C58.8527 83.1494 57.1598 83.6573 55.2975 83.9959V82.8109C55.2975 82.8109 55.2975 82.6416 55.1282 82.6416H54.9589L53.7739 83.1494L53.6046 83.3187V84.3345C50.2187 84.8424 46.325 85.181 42.9391 84.3345C40.3997 83.6573 38.0296 82.4723 35.9981 80.9486L36.1674 80.2715C36.1674 80.1022 36.1674 80.1022 36.1674 80.1022L34.9824 79.2557H34.8131C34.8131 79.2557 34.6438 79.2557 34.6438 79.425L34.4745 79.9329C31.9351 77.7321 30.0728 75.5313 29.2264 74.5155C29.2264 74.6848 29.2264 74.8541 29.2264 75.1927C30.2421 76.3777 31.9351 78.4092 34.3052 80.4408L33.4587 83.8266C31.2579 82.6416 29.7343 81.2872 28.7185 80.4408C28.7185 80.6101 28.7185 80.7793 28.7185 80.9486C29.7343 81.7951 31.2579 82.9802 33.2894 84.1652L32.9508 85.6888C32.9508 85.6888 32.9508 85.8581 33.1201 85.8581L33.7973 86.366C33.7973 86.366 33.7973 86.366 33.9666 86.366C33.9666 86.366 34.1359 86.366 34.1359 86.1967L34.6438 84.6731C36.6753 85.6888 39.2147 86.7046 42.2619 87.2125C44.4628 87.7204 46.4943 87.8897 48.3565 87.8897C50.2187 87.8897 51.9117 87.7204 53.4353 87.5511V89.0747C53.4353 89.0747 53.4353 89.244 53.6046 89.244C53.6046 89.244 53.6046 89.244 53.7739 89.244L54.9589 88.9054L55.1282 88.7361V87.3818C56.4826 87.0432 57.4983 86.8739 58.3448 86.5353L58.1755 86.1967C57.329 86.366 56.3133 86.7046 55.1282 87.0432V84.6731C56.9904 84.1652 58.5141 83.6573 59.6991 83.3187ZM34.1359 85.6888L33.7973 85.5195L34.1359 84.1652L34.3052 83.8266L35.1516 80.61L35.3209 80.1022V79.7636L36.1674 80.2715L35.9981 80.61L35.8288 80.9486L34.8131 83.9959L34.6438 84.3345L34.1359 85.6888ZM42.6006 86.8739C39.5533 86.1967 37.0139 85.3503 34.9824 84.3345L35.9981 81.4565C38.0296 82.8109 40.3997 84.1652 42.9391 84.6731C44.632 85.0117 46.325 85.181 48.0179 85.181C50.0494 85.181 51.9116 85.0117 53.7739 84.6731V87.0432C50.7266 87.5511 46.8329 87.7204 42.6006 86.8739ZM54.7896 86.8739V87.2125V88.3975L54.1125 88.7361V87.5511V87.0432V84.6731V84.3345V83.488L54.7896 83.1494V84.1652V84.5038V86.8739Z" fill="#A6DDEB"/>
<path d="M85.7702 124.796C85.6009 124.796 85.4316 124.796 85.2623 124.457C84.0773 122.764 83.0615 118.362 83.0615 118.024C83.0615 117.855 83.2308 117.855 83.2308 117.855C83.4001 117.855 83.4001 118.024 83.4001 118.024C83.4001 118.362 84.4159 122.595 85.4316 124.118C85.6009 124.288 85.6009 124.288 85.6009 124.288C86.1088 124.118 86.1088 119.886 85.7702 117.855C85.7702 117.685 85.7702 117.685 85.9395 117.685C86.1088 117.685 86.1088 117.685 86.1088 117.855C86.6167 119.209 86.9553 124.288 85.7702 124.796C85.9395 124.796 85.9395 124.796 85.7702 124.796Z" fill="#AB3424"/>
<path d="M72.7347 32.5309C72.7347 32.5309 72.2268 33.3773 71.5496 34.5624C69.8567 34.2238 67.8252 33.208 66.8094 32.7002C66.9787 30.3301 67.3173 27.2828 67.3173 27.2828C67.3173 27.4521 67.4866 27.6214 67.4866 27.7907C68.3331 29.3143 70.1953 31.0072 72.7347 32.5309Z" fill="#F5948D"/>
<path d="M23.8089 79.7636C23.6396 79.9329 23.4703 79.9329 23.301 79.9329C22.9624 79.7636 22.2853 78.9171 21.9467 78.24C21.7774 77.9014 21.6081 77.5628 21.4388 77.5628C21.1002 78.0707 20.0844 81.7951 19.0687 81.7951C18.7301 81.7951 18.053 81.4565 17.0372 80.9487C15.5136 79.9329 13.482 78.4092 12.6356 77.2242C11.2812 75.5313 12.9742 72.6533 12.9742 72.6533C12.9742 72.6533 12.8049 70.1139 11.9584 67.7438C11.2812 65.3737 9.75758 60.2949 10.0962 60.2949C10.604 60.1256 11.2812 59.9563 11.9584 59.9563C13.9899 59.787 16.8679 59.787 18.8994 59.9563C19.238 59.9563 19.5766 59.9563 19.9151 60.1256C21.1002 60.2949 21.7774 60.2949 21.7774 60.2949L21.6081 71.4682C21.6081 71.4682 24.1475 76.2084 24.1475 77.3935C24.8246 78.0707 24.3168 79.425 23.8089 79.7636Z" fill="#D64E27"/>
<path d="M23.8088 79.7636C23.301 77.2242 21.7773 73.669 21.1001 71.6375C20.423 69.9446 19.5765 63.0036 19.2379 59.9563C19.5765 59.9563 19.9151 59.9563 20.2537 60.1256C21.4387 60.2949 22.1159 60.2949 22.1159 60.2949L21.9466 71.4682C21.9466 71.4682 24.486 76.2084 24.486 77.3935C24.8246 78.0707 24.3167 79.425 23.8088 79.7636Z" fill="#BF3B27"/>
<path d="M21.608 77.5627C21.2694 78.0706 20.2537 81.7951 19.2379 81.7951C18.8993 81.7951 18.2222 81.4565 17.2064 80.9486C19.5765 79.7636 21.2694 77.9013 21.608 77.5627Z" fill="#BF3B27"/>
<path d="M138.251 183.879C137.912 183.879 137.743 183.709 137.743 183.371V179.138C137.743 178.8 137.912 178.631 138.251 178.631C138.589 178.631 138.759 178.8 138.759 179.138V183.371C138.928 183.709 138.589 183.879 138.251 183.879Z" fill="#4B4063"/>
<path d="M160.09 186.079C159.751 186.079 159.582 185.91 159.582 185.572V181.678C159.582 181.339 159.751 181.17 160.09 181.17C160.428 181.17 160.598 181.339 160.598 181.678V185.572C160.598 185.91 160.259 186.079 160.09 186.079Z" fill="#4B4063"/>
<path d="M182.098 186.08C181.759 186.08 181.59 185.91 181.59 185.572V181.339C181.59 181.001 181.759 180.831 182.098 180.831C182.436 180.831 182.606 181.001 182.606 181.339V185.572C182.606 185.91 182.436 186.08 182.098 186.08Z" fill="#4B4063"/>
<path d="M187.177 152.052C186.838 152.898 186.499 154.591 186.161 156.453C185.653 159.501 185.145 163.564 184.806 167.457C184.637 168.981 184.468 170.335 184.299 171.859C183.791 177.615 183.452 182.186 183.452 182.186C183.452 182.186 176.003 183.54 159.074 182.863C158.058 182.863 156.873 182.863 155.857 182.694C141.467 182.016 137.235 179.985 137.235 179.477C137.235 178.969 134.019 149.343 133.511 144.772C133.511 144.433 133.511 144.264 133.511 144.264C133.511 144.264 135.712 145.449 140.621 146.973C143.838 147.989 148.07 149.004 153.657 150.02C154.842 150.189 156.027 150.359 157.381 150.528C158.058 150.697 158.905 150.697 159.751 150.867C178.035 153.237 187.177 152.052 187.177 152.052Z" fill="#F79738"/>
<path d="M187.177 152.052C186.838 152.898 186.499 154.591 186.161 156.453C182.098 156.961 176.003 157.3 166.692 156.453C147.731 154.93 137.743 148.496 133.68 144.941C133.68 144.603 133.68 144.433 133.68 144.433C133.68 144.433 135.881 145.619 140.79 147.142C144.007 148.158 148.239 149.174 153.826 150.189C155.011 150.359 156.196 150.528 157.55 150.697C158.228 150.867 159.074 150.867 159.92 151.036C178.035 153.237 187.177 152.052 187.177 152.052Z" fill="#ED8222"/>
<path d="M168.554 127.335L152.641 127.673L145.192 127.843L127.755 122.595L146.885 120.732C147.393 120.902 148.07 120.902 148.747 121.071C155.35 122.764 168.554 127.335 168.554 127.335Z" fill="#ED7D27"/>
<path d="M152.641 127.504L145.192 127.673L127.755 122.595L146.885 120.732C147.393 120.902 148.07 120.902 148.747 121.071C149.763 123.103 151.287 125.473 152.641 127.504Z" fill="#D64E27"/>
<path d="M156.027 182.863C141.637 182.186 137.404 180.154 137.404 179.646C137.404 179.139 133.511 144.433 133.511 144.433C133.511 144.433 135.712 145.619 140.621 147.142C143.668 156.453 149.594 173.721 156.027 182.863Z" fill="#ED8222"/>
<path d="M144.853 119.378L135.712 98.8936H138.589L147.393 119.378H144.853Z" fill="#5B2A53"/>
<path d="M141.129 185.741C141.129 187.434 139.775 188.619 138.251 188.619C136.727 188.619 135.373 187.265 135.373 185.741C135.373 184.048 136.727 182.863 138.251 182.863C139.775 182.863 141.129 184.217 141.129 185.741Z" fill="#6C5964"/>
<path d="M163.137 187.265C163.137 188.958 161.783 190.481 160.09 190.481C158.397 190.481 157.042 189.127 157.042 187.265C157.042 185.572 158.397 184.048 160.09 184.048C161.783 184.048 163.137 185.402 163.137 187.265Z" fill="#6C5964"/>
<path d="M181.929 188.788C183.612 188.788 184.976 187.348 184.976 185.572C184.976 183.795 183.612 182.355 181.929 182.355C180.246 182.355 178.881 183.795 178.881 185.572C178.881 187.348 180.246 188.788 181.929 188.788Z" fill="#6C5964"/>
<path d="M161.106 144.264L159.582 149.174C159.582 149.174 154.165 148.327 146.716 147.142C139.267 145.957 135.712 143.926 135.881 142.74L142.314 143.587L161.106 144.264Z" fill="#D64E27"/>
<path d="M177.019 130.551C177.019 131.229 176.511 131.736 175.834 131.736C175.157 131.736 174.649 131.229 174.649 130.551C174.649 129.874 175.157 129.366 175.834 129.366C176.511 129.366 177.019 129.874 177.019 130.551Z" fill="#7BC6C9"/>
<path d="M189.885 137.493C189.885 138.339 189.039 139.016 188.192 139.016C187.177 139.016 186.499 138.339 186.499 137.493C186.499 136.646 187.346 135.969 188.192 135.969C189.039 135.969 189.885 136.646 189.885 137.493Z" fill="#7BC6C9"/>
<path d="M195.98 143.926C195.98 144.603 195.472 145.111 194.795 145.111C194.118 145.111 193.61 144.603 193.61 143.926C193.61 143.248 194.118 142.74 194.795 142.74C195.472 142.74 195.98 143.248 195.98 143.926Z" fill="#7BC6C9"/>
<path d="M125.554 122.595L134.357 142.571L142.314 143.587L145.023 129.028L125.554 122.595Z" fill="#F7991C"/>
<path d="M142.314 143.587L165.169 144.264L169.57 128.858L145.023 129.028L142.314 143.587Z" fill="#FFC40C"/>
<path d="M144.853 129.197L145.361 127.673L125.215 121.748L125.893 123.441L144.853 129.197Z" fill="#EDD260"/>
<path d="M144.853 129.197L169.57 128.858L170.247 126.827L145.361 127.673L144.853 129.197Z" fill="#F5E38F"/>
<path d="M127.755 122.595L146.885 120.732V119.209L125.215 121.748L127.755 122.595Z" fill="#F5E38F"/>
<path d="M146.885 120.732L167.877 126.996L170.247 126.827L146.885 119.209V120.732Z" fill="#EDD260"/>
<path d="M115.566 100.417L131.31 130.89L133.68 130.551L117.767 99.5708L115.566 100.417Z" fill="#5B2A53"/>
<path d="M159.413 149.343C159.413 149.343 160.598 143.418 163.814 138.339C167.031 133.26 167.877 132.752 169.401 133.091C171.094 133.429 172.448 137.662 172.448 137.662C172.448 137.662 174.31 133.429 177.696 134.445C181.082 135.461 180.574 140.709 180.574 140.709C180.574 140.709 181.759 138.17 183.452 138.508C185.145 138.847 184.637 142.402 184.637 142.402C184.637 142.402 185.822 140.032 188.192 141.217C190.563 142.402 189.716 145.618 189.716 145.618C189.716 145.618 192.933 143.587 192.933 146.973C193.102 150.528 193.948 152.052 180.405 151.882C167.031 151.713 159.413 149.343 159.413 149.343Z" fill="#CDE4E1"/>
<path d="M186.838 146.634C186.838 147.481 186.161 148.158 185.314 148.158C184.468 148.158 183.791 147.481 183.791 146.634C183.791 145.788 184.468 145.11 185.314 145.11C186.161 145.11 186.838 145.788 186.838 146.634Z" fill="#7BC6C9"/>
<path d="M176.342 146.126C176.342 147.481 175.157 148.666 173.803 148.666C172.448 148.666 171.263 147.481 171.263 146.126C171.263 144.772 172.448 143.587 173.803 143.587C175.326 143.587 176.342 144.772 176.342 146.126Z" fill="#7BC6C9"/>
<path d="M169.909 141.217C170.657 141.217 171.263 140.61 171.263 139.862C171.263 139.114 170.657 138.508 169.909 138.508C169.161 138.508 168.554 139.114 168.554 139.862C168.554 140.61 169.161 141.217 169.909 141.217Z" fill="#7BC6C9"/>
<path d="M184.807 167.457C184.637 168.981 184.468 170.335 184.299 171.859C180.405 171.69 174.818 170.674 168.385 166.949C160.428 162.209 155.688 154.591 153.487 150.02C154.672 150.189 155.857 150.359 157.212 150.528C160.259 155.099 165.168 161.871 169.909 164.579C174.141 166.949 180.236 167.457 184.807 167.457Z" fill="#ED8222"/>
<path d="M184.637 167.965C180.066 167.965 174.818 166.78 170.078 164.579C160.767 160.008 154.842 151.544 154.672 151.544C154.503 151.374 154.503 151.036 154.842 150.867C155.011 150.697 155.35 150.697 155.519 151.036C155.519 151.205 124.538 146.804 170.417 163.733C179.558 167.119 189.885 168.134 194.287 164.071C195.303 163.056 195.811 161.701 195.641 160.178C195.303 156.622 192.086 152.729 190.055 151.374C189.885 151.205 189.716 150.867 189.885 150.697C190.055 150.359 190.393 150.359 190.563 150.528C192.933 151.882 196.318 156.284 196.657 160.178C196.826 162.209 196.318 163.733 194.964 164.918C192.933 166.949 189.039 167.965 184.637 167.965Z" fill="#5B2A53"/>
<path d="M187.177 152.39C186.161 153.237 180.066 153.745 167.2 152.898C162.46 152.56 157.72 151.713 153.318 150.867C145.869 149.343 139.605 147.312 136.727 146.296C132.326 144.772 133.003 142.571 133.849 141.725L136.389 143.079C136.219 144.264 140.113 145.788 151.964 147.989C153.995 148.327 156.196 148.666 158.566 149.174C175.495 151.882 187.177 151.205 187.177 151.205C187.177 151.205 188.192 151.713 187.177 152.39Z" fill="#FFC40C"/>
<path d="M153.318 150.867C145.869 149.343 139.605 147.312 136.727 146.296C132.326 144.772 133.003 142.571 133.849 141.725L136.389 143.079C136.219 144.264 140.113 145.788 151.964 147.989C152.302 149.004 152.81 150.02 153.318 150.867Z" fill="#F7991C"/>
<path d="M86.9552 18.3103C85.9395 20.5111 82.215 31.8537 81.5379 33.3773C81.03 34.5624 80.0142 36.2553 77.1362 35.7474C76.6284 35.5781 76.1205 35.5782 75.4433 35.2396C75.1047 35.0703 74.7661 34.901 74.4276 34.901C73.5811 34.5624 72.5653 34.0545 71.7189 33.5466C71.5496 33.3773 71.3803 33.3773 71.211 33.208C68.6716 31.6844 66.8094 29.8222 65.9629 28.4678C65.7936 28.2986 65.7936 28.1293 65.6243 27.96C64.7778 25.7592 65.7936 23.2198 65.7936 23.2198C64.9471 23.0505 64.2699 22.204 63.9314 21.3575C62.7463 18.9874 62.9156 15.0937 64.4393 14.4165C64.6086 14.4165 64.6085 14.2472 64.7778 14.2472C64.9471 14.2472 65.1164 14.2472 65.2857 14.2472C66.9787 14.5858 67.4865 16.7866 67.4865 16.7866C67.4865 16.7866 68.5023 13.9086 69.6874 12.2157C70.5338 11.0307 72.2267 10.0149 73.4118 9.50703C74.089 9.16844 74.5969 8.99915 74.5969 8.99915C75.9512 12.0464 79.8449 15.4323 83.2308 17.1252C84.4159 17.6331 85.7702 18.141 86.9552 18.3103Z" fill="#F1B5AB"/>
<path d="M67.6557 24.0662C67.6557 26.9442 69.6873 30.6686 71.2109 33.208C68.6715 31.6844 66.8093 29.8222 65.9628 28.4678C65.7935 28.2985 65.7935 28.1292 65.6242 27.96C64.7777 25.7591 65.7935 23.2198 65.7935 23.2198C64.947 23.0505 64.2699 22.204 63.9313 21.3575C64.6084 18.8181 64.7778 16.2787 64.4392 14.4165C64.6085 14.4165 64.6084 14.2472 64.7777 14.2472C64.947 14.2472 65.1164 14.2472 65.2856 14.2472C66.9786 14.5858 67.4864 16.7866 67.4864 16.7866C67.4864 16.7866 68.5022 13.9086 69.6873 12.2157C70.5337 11.0307 72.2266 10.0149 73.4117 9.50702C69.8565 13.4008 67.6557 19.8339 67.6557 24.0662Z" fill="#F5948D"/>
<path d="M71.2109 16.448C71.0416 16.1094 72.5652 14.5858 74.9353 15.0937C77.3054 15.6015 77.8133 17.4638 77.8133 17.4638C77.8133 17.4638 76.2897 16.9559 74.2582 16.6173C72.2267 16.2787 71.2109 16.448 71.2109 16.448Z" fill="#9D5E55"/>
<path d="M82.3843 19.8338C82.215 19.3259 83.0615 18.4795 84.7544 18.9874C86.4473 19.4952 85.7702 21.1882 85.7702 21.1882C85.7702 21.1882 85.0929 20.3417 84.2465 20.3417C83.4 20.1724 82.3843 20.1724 82.3843 19.8338Z" fill="#9D5E55"/>
<path d="M91.0183 17.9717L90.849 18.1409C90.0026 18.6488 88.6482 18.8181 86.9553 18.3102C85.7702 17.9717 84.5852 17.4638 83.0615 16.7866C79.6757 14.9244 75.7819 11.5385 74.4276 8.66054C74.4276 8.66054 70.7031 10.1842 69.5181 12.0464C68.333 13.7393 67.3173 16.6173 67.3173 16.6173C67.3173 16.6173 66.8094 14.4165 65.1165 14.0779C65.1165 14.0779 64.1007 9.507 65.9629 7.1369C67.4866 5.27467 69.5181 3.24316 74.4276 1.55023C75.7819 1.04235 77.1363 0.703763 78.8292 0.365176C87.1246 -1.49705 90.5104 4.25892 91.1876 6.45973C91.8648 8.66053 92.2033 16.2787 91.0183 17.9717Z" fill="#592019"/>
<path d="M65.2857 15.7709L65.1164 15.6016L64.9471 15.7709C64.9471 15.7709 65.2857 16.6173 65.2857 17.6331C64.9472 17.8024 63.7621 18.3103 63.9314 18.8181C64.1007 19.326 64.9472 19.326 65.2857 19.4953C65.2857 19.8339 65.1164 20.1725 65.1164 20.6804C65.1164 20.6804 65.1165 20.8496 65.2857 20.8496C65.2857 20.8496 65.455 20.8496 65.455 20.6804C66.1322 18.4795 65.2857 15.9401 65.2857 15.7709ZM64.4393 18.8181C64.27 18.4795 64.9472 18.141 65.455 17.9717C65.455 18.3103 65.455 18.8181 65.455 19.1567C65.1165 19.326 64.4393 19.1567 64.4393 18.8181Z" fill="#983222"/>
<path d="M79.5063 28.9757C79.337 28.9757 77.1362 28.4679 75.6126 27.4521C75.6126 27.4521 75.4433 27.2828 75.6126 27.2828C75.6126 27.2828 75.7818 27.1135 75.7818 27.2828C76.9669 28.1293 78.8291 28.6371 79.5063 28.8064C80.0142 26.4363 81.1992 21.019 81.1992 21.019L81.3685 20.8497L81.5379 21.019C81.3686 21.019 80.0142 26.6056 79.5063 28.9757C79.6756 28.9757 79.6756 28.9757 79.5063 28.9757Z" fill="#983222"/>
<path d="M77.8134 31.1765C75.4433 31.1765 74.089 29.9915 73.9197 29.9915V29.8222H74.0889C74.0889 29.8222 75.6126 31.1765 78.3213 31.0073C78.3213 31.0073 78.4906 31.0073 78.4906 31.1765C78.4906 31.1765 78.4905 31.3458 78.3213 31.3458C78.3213 31.1765 77.9827 31.1765 77.8134 31.1765Z" fill="#3C1515"/>
<path d="M74.7662 20.6803C74.0891 21.5268 73.9197 22.5425 74.4276 22.7118C74.7662 23.0504 75.6127 22.5425 76.2899 21.5268C76.967 20.6803 77.1363 19.6646 76.6284 19.4953C76.2898 19.326 75.4434 19.8339 74.7662 20.6803Z" fill="#3C1515"/>
<path d="M82.215 22.8812C81.5378 23.7276 81.3685 24.5741 81.8764 24.9127C82.2149 25.2513 83.0614 24.7434 83.5693 23.7276C84.2465 22.8812 84.4158 22.0347 83.9079 21.6961C83.5693 21.5268 82.7228 22.0347 82.215 22.8812Z" fill="#3C1515"/>
<path d="M76.967 35.5781C76.4591 35.4088 75.9512 35.4088 75.2741 35.0702C74.9355 34.9009 74.5969 34.7316 74.2583 34.7316C74.5969 33.8852 75.6126 32.0229 76.7977 32.3615C77.6442 32.5308 77.3056 34.5623 76.967 35.5781Z" fill="#592019"/>
<path d="M91.0183 17.9717L90.849 18.1409C90.0026 18.6488 88.6482 18.8181 86.9553 18.3102C85.7702 17.9717 84.5852 17.4638 83.0615 16.7866C79.6757 14.9244 75.7819 11.5385 74.4276 8.66054C74.4276 8.66054 70.7031 10.1842 69.5181 12.0464C68.333 13.7393 67.3173 16.6173 67.3173 16.6173C67.3173 16.6173 66.8094 14.4165 65.1165 14.0779C65.1165 14.0779 64.1007 9.507 65.9629 7.1369C67.4866 5.27468 69.5181 3.24316 74.4276 1.55023C74.2583 3.75104 75.4433 8.99912 78.4906 11.7078C81.5379 14.5858 86.1088 18.3102 91.0183 17.9717Z" fill="#461714"/>
</svg>
