<svg width="22" height="26" viewBox="0 0 22 26" fill="none" xmlns="http://www.w3.org/2000/svg">
<path d="M0.723675 10.2764L10.057 0.943116C10.307 0.693155 10.6461 0.552734 10.9997 0.552734C11.3532 0.552734 11.6923 0.693155 11.9423 0.943116L21.2757 10.2764C21.5257 10.5264 21.6663 10.8655 21.6663 11.2191V24.0005C21.6663 24.3541 21.5259 24.6932 21.2758 24.9433C21.0258 25.1933 20.6866 25.3338 20.333 25.3338H13.6663V16.0005H8.33301V25.3338H1.66634C1.31272 25.3338 0.973581 25.1933 0.723532 24.9433C0.473484 24.6932 0.333008 24.3541 0.333008 24.0005V11.2191C0.333083 10.8655 0.473609 10.5264 0.723675 10.2764Z" fill="#B7B7B7"/>
</svg>
