<svg width="162" height="204" viewBox="0 0 162 204" fill="none" xmlns="http://www.w3.org/2000/svg">
<g clip-path="url(#clip0_591_2343)">
<path d="M134.736 21.6484C134.736 21.6484 134.26 27.495 132.834 28.6011C132.834 28.6011 131.09 26.7049 128.237 27.811C126.335 28.4431 125.067 29.7072 124.432 30.3393C124.115 30.6553 123.957 30.9714 123.957 30.9714C123.957 30.9714 121.262 31.7615 119.043 27.495C116.824 23.3866 115.08 21.0163 114.605 17.3819C114.605 16.9079 114.446 16.4338 114.446 15.9598C114.446 13.1155 115.714 10.7452 116.665 9.79709C117.775 8.69097 118.885 9.00701 120.945 9.63908C121.421 9.79709 122.055 9.79709 122.689 9.95511C124.75 10.1131 127.444 9.95511 128.712 9.32304C130.297 8.37494 132.675 7.26882 132.834 8.21692C132.834 8.21692 132.834 8.37494 132.834 8.53296C132.834 9.16503 132.834 10.5872 132.834 12.0093C132.834 13.7475 132.992 15.6437 133.309 16.7498C134.102 18.488 134.419 20.0682 134.736 21.6484Z" fill="#F1B5AB"/>
<path d="M124.591 30.3393C124.274 30.6553 124.116 30.9713 124.116 30.9713C124.116 30.9713 121.421 31.7614 119.202 27.495C116.982 23.3865 115.239 21.0163 114.763 17.3819C114.763 16.9078 114.605 16.4338 114.605 15.9597C115.873 18.804 117.775 22.2804 119.519 25.1247C120.787 27.0209 122.372 29.0751 124.591 30.3393Z" fill="#F5948D"/>
<path d="M133.309 8.6911C132.041 10.1133 128.871 12.1675 123.164 10.1133C125.225 10.2713 127.92 10.1133 129.188 9.48118C130.773 8.53308 133.151 7.42696 133.309 8.37507C133.309 8.37507 133.309 8.53308 133.309 8.6911Z" fill="#F5948D"/>
<path d="M51.5168 98.4446C49.9316 103.659 46.1273 114.246 46.1273 114.246C46.1273 114.246 46.2858 118.671 45.9688 120.409C45.9688 120.567 45.8103 120.725 45.8103 120.883C45.1763 121.673 44.7007 120.725 44.7007 120.725C44.7007 120.725 43.7496 126.73 42.4815 126.098C41.372 125.466 42.6401 116.459 42.9571 114.878C43.4326 113.298 44.5422 101.289 44.8592 96.7064C45.1763 92.1239 46.4444 79.3246 47.2369 77.7444C47.2369 77.7444 47.871 77.9024 50.5657 78.5345C51.5168 78.6925 52.3093 78.8505 52.9434 79.1665C54.2115 79.6406 54.8455 79.9566 54.8455 79.9566C54.687 81.8528 52.9434 93.2301 51.5168 98.4446Z" fill="#F1B5AB"/>
<path d="M51.5168 98.4445C49.9317 103.659 46.1274 114.246 46.1274 114.246C46.1274 114.246 46.2859 118.671 45.9689 120.409C45.9689 118.039 45.8104 114.088 45.8104 113.93C45.8104 113.772 50.5657 97.6544 51.3583 92.7559C51.9924 88.1734 52.4679 83.1169 53.1019 79.1664C54.37 79.6405 55.0041 79.9565 55.0041 79.9565C54.6871 81.8527 52.9434 93.23 51.5168 98.4445Z" fill="#F5948D"/>
<path d="M152.331 195.309L150.27 196.573L149.953 196.731L149.795 196.889C149.795 196.889 149.319 195.783 148.685 194.045C145.99 186.776 139.016 167.972 138.065 161.81C136.955 154.067 140.284 149.168 140.284 149.168C140.284 149.168 137.272 140.635 135.37 132.418C134.26 127.362 131.724 118.671 130.139 113.14V112.982C129.663 111.56 129.346 110.454 129.188 109.506C128.871 108.242 128.554 107.452 128.554 107.452H128.395L128.078 107.61L127.127 108.084V108.242C122.055 126.256 122.055 126.098 120.153 134.947C118.409 143.48 115.556 151.064 113.654 158.807C112.703 162.758 110.325 172.397 108.264 180.772C106.362 188.83 104.618 195.625 104.618 195.625L103.35 195.783H103.033L101.448 196.099C101.448 196.099 97.1683 167.182 98.4365 159.913C99.8631 152.645 104.935 146.324 104.935 146.324C104.935 146.324 103.826 122.621 104.143 114.088C104.143 112.35 104.301 110.612 104.46 108.716C104.46 108.558 104.46 108.4 104.46 108.4C104.935 103.343 105.728 98.2867 106.204 95.6004C106.204 95.4424 106.204 95.4424 106.204 95.2843C106.362 94.1782 106.521 93.5462 106.521 93.5462C106.521 93.5462 106.838 93.5462 107.63 93.7042C109.057 93.8622 111.752 94.3362 115.239 94.4943C115.397 94.4943 115.397 94.4943 115.556 94.4943C118.409 94.6523 121.738 94.8103 125.067 94.8103C126.652 94.8103 128.237 94.6523 129.822 94.4943C129.98 94.4943 129.98 94.4943 130.139 94.4943C133.151 94.1782 136.004 93.5462 138.223 92.9141C138.382 92.9141 138.382 92.9141 138.54 92.9141C141.869 92.124 143.93 91.3339 143.93 91.3339C143.93 91.3339 144.088 92.124 144.247 93.3881C144.247 93.5462 144.247 93.5462 144.247 93.7042C144.564 96.2325 145.198 100.499 145.832 104.133C145.832 104.291 145.832 104.449 145.832 104.607C145.99 106.03 146.307 107.452 146.466 108.4C147.417 113.93 149.795 137.633 150.27 145.534C151.221 153.593 152.331 195.309 152.331 195.309Z" fill="#935FDB"/>
<path d="M108.423 180.93C106.521 188.988 104.777 195.783 104.777 195.783L103.509 195.941H103.192L101.607 196.257C101.607 196.257 97.3268 167.34 98.5949 160.071C100.021 152.803 105.094 146.482 105.094 146.482C105.094 146.482 103.984 122.779 104.301 114.246C104.301 112.508 104.46 110.77 104.618 108.874C104.618 108.716 104.618 108.558 104.618 108.558C105.094 103.501 105.886 98.4447 106.362 95.7584C106.362 95.6004 106.362 95.6004 106.362 95.4424C106.52 94.3363 106.679 93.7042 106.679 93.7042C106.679 93.7042 106.996 93.7042 107.789 93.8622C107.789 100.973 107.472 116.459 107.789 130.838C108.106 145.85 107.313 150.59 107.313 150.59C107.313 150.59 101.765 167.498 108.423 180.93Z" fill="#933999"/>
<path d="M148.685 194.045C145.99 186.776 139.016 167.972 138.065 161.81C136.955 154.067 140.284 149.168 140.284 149.168C140.284 149.168 137.272 140.635 135.37 132.418C134.26 127.362 131.724 118.671 130.139 113.14V112.982C129.663 111.56 129.346 110.454 129.188 109.506L143.296 148.22C143.296 148.22 142.661 153.593 142.82 164.97C142.82 172.871 146.624 186.618 148.685 194.045Z" fill="#933999"/>
<path d="M87.0235 156.911C88.4501 162.284 88.1331 169.71 86.548 175.715C84.9628 181.878 82.4266 192.781 82.4266 192.781C82.4266 192.781 82.2681 192.781 82.2681 192.939C82.1096 193.097 81.9511 193.097 81.7926 193.097C81.6341 193.097 81.6341 193.097 81.4756 193.255C80.2075 193.729 79.8904 192.939 79.8904 192.939C79.8904 192.939 77.9883 182.194 77.1957 173.503C76.4031 164.812 74.0255 151.696 73.0744 141.267C72.2818 131.944 70.0626 115.036 69.5871 111.718C69.5871 111.402 69.5871 111.086 69.5871 111.086C69.5871 111.086 69.5871 111.244 69.4286 111.402C68.7945 113.14 65.7828 121.357 63.8806 126.73C61.6615 132.734 56.5891 146.008 56.5891 146.008C56.5891 146.008 59.1253 150.59 60.5519 155.963C61.9785 161.335 61.0274 167.656 59.6008 173.661C58.1742 179.665 55.321 193.413 55.321 193.413C55.1624 193.413 55.1624 193.413 55.0039 193.571C54.8454 193.571 54.8454 193.571 54.6869 193.729C54.6869 193.729 54.6869 193.729 54.5284 193.729C53.1018 194.045 51.9922 193.097 51.9922 193.097C51.9922 193.097 51.9922 193.097 51.9922 192.939C51.8337 191.517 50.8826 182.194 50.09 174.609C49.139 166.234 46.7613 148.062 46.7613 148.062C46.7613 148.062 47.8709 134.947 49.2975 125.94C49.6145 124.043 50.09 121.515 50.5656 118.829C51.3581 115.353 52.1507 111.56 52.9433 108.084C53.4188 106.346 53.7358 104.607 54.2114 103.027C54.2114 102.869 54.3699 102.711 54.3699 102.553C54.8454 100.499 55.3209 98.7607 55.638 97.6546C55.638 97.4966 55.638 97.4966 55.7965 97.3386C55.955 96.5485 56.272 96.0744 56.272 95.7584C56.272 95.7584 58.6497 97.4966 66.4168 96.8645C75.7691 96.0744 79.5734 91.65 79.5734 91.65C79.5734 91.65 79.5734 91.4919 79.4149 91.3339C79.4149 91.3339 80.0489 92.124 81.1585 93.5462L81.317 93.7042C82.2681 94.9683 83.3777 96.5485 84.4873 98.2867C84.4873 98.2867 84.6458 98.4447 84.6458 98.6027C85.5969 100.183 86.548 101.763 87.182 103.343C89.4012 108.558 86.7065 120.725 85.7554 127.362C84.8043 133.999 82.4266 146.64 82.4266 146.64C82.4266 146.64 85.5969 151.538 87.0235 156.911Z" fill="#532294"/>
<path d="M87.0235 156.911C88.4501 162.284 88.1331 169.71 86.548 175.715C84.9628 181.878 82.4266 192.781 82.4266 192.781C82.4266 192.781 82.2681 192.781 82.2681 192.939C82.1096 193.097 81.9511 193.097 81.7926 193.097C82.5852 188.198 84.8043 172.397 84.1703 163.074C83.3777 151.854 80.5245 150.116 80.5245 150.116L80.049 151.696C80.2075 151.222 80.366 150.59 80.5245 149.642C82.1096 144.112 84.1703 123.727 84.1703 123.727C84.1703 123.727 77.5128 110.612 72.7574 105.871C68.002 101.131 62.7711 103.027 59.1253 106.978C56.5891 109.664 52.9433 115.51 50.7241 118.987C51.5167 115.51 52.3092 111.718 53.1018 108.242C53.5773 106.503 53.8943 104.765 54.3699 103.185C54.3699 103.027 54.5284 102.869 54.5284 102.711C55.0039 100.657 55.4795 98.9187 55.7965 97.8126C55.7965 97.6545 55.7965 97.6545 55.955 97.4965C56.1135 96.7064 56.4305 96.2324 56.4305 95.9164C56.4305 95.9164 58.8082 97.6545 66.5754 97.0225C75.9276 96.2324 79.7319 91.8079 79.7319 91.8079C79.7319 91.8079 79.7319 91.6499 79.5734 91.4919C79.5734 91.4919 80.2075 92.282 81.3171 93.7041L81.4756 93.8621C82.4266 95.1263 83.5362 96.7064 84.6458 98.4446C84.6458 98.4446 84.8043 98.6026 84.8043 98.7607C85.7554 100.341 86.7065 101.921 87.3405 103.501C89.5597 108.716 86.865 120.883 85.9139 127.52C84.9629 134.156 82.5852 146.798 82.5852 146.798C82.5852 146.798 85.5969 151.538 87.0235 156.911Z" fill="#3D2B60"/>
<path d="M63.8806 126.572C61.6614 132.576 56.589 145.85 56.589 145.85C56.589 145.85 59.1252 150.432 60.5518 155.805C61.9785 161.178 61.0274 167.498 59.6008 173.503C58.1741 179.507 55.3209 193.255 55.3209 193.255C55.1624 193.255 55.1624 193.255 55.0039 193.413C54.8454 193.413 54.8454 193.413 54.6869 193.571C54.6869 193.571 54.6869 193.571 54.5284 193.571C55.7965 188.04 58.3327 176.031 58.1742 169.078C57.8571 160.071 54.2113 146.482 54.2113 146.482C54.2113 146.482 61.5029 128.468 64.6732 119.777C67.8434 111.244 69.4286 111.086 69.4286 111.086C68.7945 113.14 65.9413 121.357 63.8806 126.572Z" fill="#3D2B60"/>
<path d="M78.1467 72.3718L77.9882 72.2138C77.9882 72.5298 77.9882 72.6879 77.8297 73.0039C77.8297 73.0039 77.8297 73.0039 77.8297 73.1619C77.6712 73.952 77.1956 74.5841 76.7201 75.0581C76.5616 75.2161 76.4031 75.3741 76.4031 75.3741C76.4031 75.8482 76.5616 79.0085 77.1956 82.959C77.8297 86.5934 79.0978 90.3858 79.4148 91.4919C79.4148 91.6499 79.5733 91.8079 79.5733 91.8079C79.5733 91.8079 78.9393 92.598 77.5127 93.5461C75.452 94.8102 71.9647 96.5484 66.4168 97.0225C65.1487 97.1805 64.1976 97.1805 63.2465 97.1805C58.0156 97.1805 56.4305 95.9164 56.4305 95.9164C56.906 91.4919 55.4794 80.5887 55.1624 78.3765C55.1624 78.2185 55.1624 78.0604 55.1624 78.0604V79.7986C54.6868 79.4826 54.0528 79.3246 53.4187 79.1666C50.8825 78.3765 47.5538 77.7444 47.5538 77.7444C47.5538 77.7444 47.5538 77.2704 47.7123 76.4803C47.7123 76.3223 47.7123 76.3223 47.7123 76.1642C48.0293 73.636 48.6634 68.5794 49.4559 65.4191C50.5655 60.9946 51.8336 53.7258 53.8943 52.3037C55.9549 51.0395 59.1252 49.9334 61.8199 49.6174C61.9784 49.6174 61.9784 49.6174 62.1369 49.6174C63.8806 49.4593 65.6242 49.3013 67.0508 49.3013C67.2093 49.3013 67.2093 49.3013 67.3679 49.3013C74.0254 49.3013 77.0371 50.5655 78.1467 51.0395C78.3052 51.0395 78.3052 51.1975 78.3052 51.1975H78.4637C79.0978 51.6716 80.5244 53.7258 82.7436 57.9923C84.3287 60.9946 85.9138 65.8931 86.7064 68.4214C86.7064 68.5794 86.7064 68.5794 86.8649 68.7374C87.1819 69.6855 87.3405 70.3176 87.3405 70.3176C84.0117 70.4756 81.4755 71.5817 80.0489 72.5298C79.2563 73.0039 78.7808 73.3199 78.7808 73.4779L78.1467 72.3718Z" fill="#FF7537"/>
<path d="M55.004 79.7987C54.5284 79.4827 53.8944 79.3247 53.2603 79.1667L53.5773 76.7964C53.5773 76.7964 54.8454 77.1124 55.004 78.5346C55.004 78.8506 55.004 79.3247 55.004 79.7987Z" fill="#E47D25"/>
<path d="M79.5734 91.4919C79.5734 91.6499 79.7319 91.8079 79.7319 91.8079C79.7319 91.8079 79.0978 92.598 77.6712 93.5461C76.8786 91.3339 75.769 87.6995 75.452 83.5911C74.818 77.2704 74.5009 76.1643 74.5009 76.1643C74.5009 76.1643 77.9882 72.5299 77.0371 69.8436L80.2074 72.5299C79.4148 73.0039 78.9393 73.3199 78.9393 73.478L78.3053 72.2138L78.1467 72.0558C78.1467 72.3718 78.1467 72.5299 77.9882 72.8459C77.9882 72.8459 77.9882 72.8459 77.9882 73.0039C77.8297 73.794 77.3542 74.4261 76.8786 74.9001C76.7201 75.0581 76.5616 75.2161 76.5616 75.2161C76.5616 75.6902 76.7201 78.8505 77.3542 82.801C77.8297 86.5934 79.0978 90.3858 79.5734 91.4919Z" fill="#E47D25"/>
<path d="M155.818 61.7847C155.818 61.7847 155.659 61.7847 155.342 61.6267H155.184C154.867 61.4687 154.233 61.3107 153.599 61.3107C153.44 61.3107 153.44 61.3107 153.282 61.3107C152.172 61.1526 150.904 60.9946 149.477 60.9946C148.368 60.9946 147.258 60.9946 146.307 61.1526C144.088 61.3107 142.344 61.6267 142.344 61.6267V61.7847L142.82 65.2611V65.4191C142.82 65.4191 142.82 65.4191 142.661 65.4191C142.344 65.4191 141.393 65.4191 140.125 65.4191C137.906 65.4191 134.736 65.4191 131.407 65.4191C125.701 65.4191 120.47 64.787 119.043 65.4191C118.25 65.7351 116.665 66.6832 115.08 67.4733C113.971 68.1054 113.02 68.5794 112.702 68.8955L112.544 69.0535C112.385 69.2115 112.068 69.8436 111.91 70.6337C111.593 71.8978 111.751 73.478 113.654 73.478C113.812 73.478 113.971 73.478 114.129 73.478C114.763 73.478 115.397 73.32 115.873 73.32C117.933 73.0039 119.836 72.3718 120.47 72.0558C120.628 72.0558 120.628 72.0558 120.628 72.0558C120.628 72.0558 120.628 72.0558 120.787 72.0558C121.104 72.0558 121.896 72.0558 122.847 72.2138C123.006 72.2138 123.164 72.2138 123.323 72.2138C124.115 72.3719 124.908 72.5299 125.542 72.8459C126.81 73.32 130.456 75.2162 134.26 76.9543C136.162 77.9025 138.065 78.6925 139.808 79.3246C141.076 79.7987 142.027 80.1147 142.978 80.4307C143.454 80.5887 143.93 80.7468 144.247 80.7468C143.93 86.2774 143.771 91.4919 143.771 91.4919C143.771 91.4919 142.661 91.966 140.759 92.44C137.272 93.5461 131.09 94.9683 124.908 95.1263C117.458 95.2843 110.008 94.3362 107.472 94.0202C106.838 93.8622 106.52 93.8622 106.52 93.8622L105.569 85.8033C105.569 85.8033 105.569 85.8033 106.045 81.8529C106.203 81.0628 106.362 79.9567 106.52 78.6925C107.472 71.5818 111.276 64.945 111.276 64.945C111.276 64.945 109.691 64.471 104.618 65.5771C102.558 66.0512 100.497 66.5252 99.0704 66.9993C97.0097 67.6313 95.7416 68.1054 95.7416 68.1054C95.5831 67.3153 95.4246 66.6832 95.1076 65.8932C95.1076 65.7351 95.1076 65.7351 95.1076 65.5771C93.5225 58.3083 92.8884 49.4594 94.4735 46.7731C96.3757 43.7708 100.18 40.6104 107.63 38.3982C110.8 37.4501 113.178 36.66 115.08 36.1859C117.775 35.3959 119.677 34.9218 121.421 34.7638L127.444 35.2378C127.444 35.2378 130.456 36.344 133.943 37.6081C136.796 38.7142 140.125 39.9784 142.344 40.9265C147.417 42.9807 149.794 46.141 151.221 50.0914C152.172 52.7777 153.599 57.3602 154.55 60.0465C154.55 60.2045 154.55 60.2045 154.708 60.3626C154.867 60.9946 155.025 61.4687 155.184 61.7847C155.818 61.7847 155.818 61.7847 155.818 61.7847Z" fill="#FF7537"/>
<path d="M134.577 37.45C125.225 41.5584 118.251 37.766 115.714 36.0278C118.409 35.2377 120.311 34.7637 122.055 34.6057L128.078 35.0797C128.237 35.0797 131.09 36.0278 134.577 37.45Z" fill="#E47D25"/>
<path d="M99.5461 66.8413C97.4854 67.4734 96.2173 67.9474 96.2173 67.9474C96.0588 67.1573 95.9003 66.5253 95.5832 65.7352C95.5832 65.5771 95.5832 65.5772 95.5832 65.4191C93.9981 58.1504 93.3641 49.3014 94.9492 46.6151C94.7907 51.6717 97.0099 61.7847 99.5461 66.8413Z" fill="#E47D25"/>
<path d="M144.722 80.7468C144.405 86.2774 144.247 91.492 144.247 91.492C144.247 91.492 143.137 91.966 141.235 92.4401C141.869 88.9637 142.661 83.4331 142.661 81.6949C142.661 81.6949 140.442 81.2209 138.54 80.1148C138.54 80.1148 134.894 85.0133 124.75 86.7515C114.605 88.4897 108.106 88.3316 108.106 88.3316L107.63 93.8623C106.996 93.7042 106.679 93.7042 106.679 93.7042L105.728 85.6454C105.728 85.6454 105.728 85.6454 106.204 81.6949C114.129 80.9048 130.932 79.4827 131.407 79.4827C131.566 79.4827 132.834 78.2185 134.26 76.7964C136.162 77.7445 138.065 78.5346 139.808 79.1666C141.076 79.6407 142.027 79.9567 142.978 80.2728C143.771 80.4308 144.247 80.5888 144.722 80.7468Z" fill="#E47D25"/>
<path d="M140.125 65.1032C140.125 63.681 140.125 61.9428 140.125 60.0466C140.125 53.7259 140.125 49.4595 140.125 49.4595L146.149 60.8367C143.929 60.9947 142.186 61.3108 142.186 61.3108V61.4688L142.661 64.9451V65.1032C142.661 65.1032 142.661 65.1032 142.503 65.1032C142.344 65.1032 141.393 65.1032 140.125 65.1032Z" fill="#E47D25"/>
<path d="M110.325 52.4617C110.642 52.7777 114.605 63.8389 115.397 68.1054L110.325 71.4237L112.544 68.7374C112.544 68.7374 112.386 65.2611 111.91 61.1526C111.276 57.2022 110.325 52.4617 110.325 52.4617Z" fill="#E47D25"/>
<path d="M146.149 104.133C143.613 101.763 141.235 97.8125 139.808 94.9682C141.71 94.4942 143.296 94.0201 144.564 93.7041C144.564 93.5461 144.564 93.5461 144.564 93.3881C143.296 93.7041 141.71 94.1781 139.65 94.8102C139.333 94.1781 139.016 93.5461 138.699 93.072C138.54 93.072 138.54 93.072 138.382 93.072C138.54 93.5461 138.857 94.1781 139.333 94.8102C136.638 95.4423 133.468 96.0743 129.663 96.5484C129.98 95.6003 130.297 94.8102 130.297 94.6522C130.139 94.6522 130.139 94.6522 129.98 94.6522C129.822 94.9682 129.663 95.6003 129.346 96.5484C128.712 96.5484 128.078 96.7064 127.444 96.7064C122.847 97.0224 118.568 97.0224 114.922 96.7064C115.239 95.9163 115.556 95.2843 115.714 94.8102C115.556 94.8102 115.556 94.8102 115.397 94.8102C115.239 95.2843 114.922 95.9163 114.605 96.7064C112.703 96.5484 110.959 96.3904 109.532 96.0743C109.532 96.0743 109.374 95.9163 109.374 96.0743C108.106 95.9163 107.155 95.7583 106.362 95.6003C106.362 95.7583 106.362 95.7583 106.362 95.9163C106.996 96.0743 107.947 96.2324 109.215 96.3904C108.74 97.4965 107.313 101.921 106.521 107.294C105.887 107.768 105.252 108.242 104.618 108.716C104.618 108.874 104.618 109.032 104.618 109.032C105.094 108.716 105.728 108.242 106.521 107.61C106.362 109.19 106.204 110.928 106.045 112.666C105.887 121.041 106.045 147.588 106.045 148.852C105.57 149.326 101.924 153.909 100.814 163.232C99.863 171.765 102.399 190.885 103.192 196.099H103.509C102.716 191.043 100.18 171.923 101.131 163.39C102.241 153.593 106.204 149.168 106.204 149.01C106.204 149.01 106.204 149.01 106.204 148.852C106.204 148.536 106.045 121.199 106.204 112.666C106.204 110.77 106.362 109.032 106.679 107.452C108.106 106.345 109.691 104.923 110.8 103.501C112.386 101.605 113.812 99.0767 114.605 97.0224C116.665 97.1805 119.043 97.3385 121.421 97.3385C123.323 97.3385 125.225 97.3385 127.127 97.1805C127.761 97.1805 128.395 97.0224 128.871 97.0224C128.395 98.4446 127.603 100.499 127.127 102.237C127.127 102.237 127.127 102.395 127.286 102.395C127.286 102.395 127.444 102.395 127.444 102.237C127.92 100.973 128.712 98.6026 129.346 96.8644C133.151 96.3904 136.479 95.7583 139.174 95.1262C140.759 97.9705 143.296 102.237 145.832 104.607C146.149 104.449 146.149 104.291 146.149 104.133ZM110.959 103.343C109.849 104.607 108.423 106.029 106.996 106.978C107.789 101.447 109.374 97.1805 109.691 96.3904C111.117 96.5484 112.861 96.8644 114.763 97.0224C113.812 98.9187 112.544 101.447 110.959 103.343Z" fill="#A6DDEB"/>
<path d="M150.27 196.573L149.953 196.731C149.953 196.573 149.795 196.415 149.795 196.257C146.307 185.512 144.088 177.927 143.296 173.661C142.979 172.397 142.662 170.974 142.503 169.868C141.076 163.706 139.65 157.859 141.71 148.852L130.139 113.14V112.982L128.395 107.61L128.078 107.926L127.286 108.558V108.4L130.456 106.187H130.615V106.345L128.554 107.452C128.554 107.452 128.554 107.452 128.712 107.61L142.027 148.852C139.967 157.859 141.393 163.706 142.82 169.868C143.137 171.132 143.454 172.397 143.771 173.819C144.564 178.085 146.783 185.67 150.27 196.257C150.27 196.257 150.27 196.415 150.27 196.573Z" fill="#A6DDEB"/>
<path d="M5.23092 195.309C3.64579 195.783 0.634051 197.679 0 202.262H8.87671C8.87671 202.262 9.82779 197.521 10.6204 195.941L5.23092 195.309Z" fill="#563A7F"/>
<path d="M139.016 78.8506C138.065 79.4826 128.078 84.8552 119.202 85.9613C109.849 87.0674 105.094 87.2255 101.924 83.4331C98.7535 79.6406 96.3758 68.1054 96.3758 68.1054C96.3758 68.1054 96.8513 67.4733 99.3875 66.5252C100.339 66.2092 101.607 65.7351 103.35 65.4191C109.374 63.9969 112.386 64.471 112.386 64.471C112.386 65.5771 112.544 67.1573 112.703 68.7375C112.227 69.3695 110.642 73.1619 113.812 73.1619C116.824 73.1619 121.104 71.7398 121.104 71.7398C121.104 71.7398 123.64 71.7398 126.018 72.6879C127.444 73.32 131.883 75.5322 136.321 77.5864C137.114 78.0605 138.065 78.3765 139.016 78.8506Z" fill="#F1B5AB"/>
<path d="M158.988 76.4802C158.988 78.0604 158.513 79.4826 157.72 80.2726C154.867 83.275 149.478 81.8528 144.722 80.5887C144.247 80.4307 143.771 80.2726 143.454 80.2726C142.186 79.9566 140.759 79.3245 139.016 78.6925C133.943 76.4802 127.603 73.3199 125.859 72.5298C123.481 71.5817 120.945 71.5817 120.945 71.5817C120.945 71.5817 116.824 73.1619 113.654 73.0039C112.861 73.0039 112.386 72.6878 112.069 72.3718C111.276 71.2657 112.227 69.0534 112.544 68.5794C113.02 67.9473 117.616 65.7351 119.043 64.945C120.47 64.1549 125.701 64.787 131.407 64.945C137.114 64.945 142.82 64.945 142.82 64.945V64.787L142.344 61.3106C142.344 61.3106 143.93 61.1526 145.832 60.9946C146.941 60.8365 148.209 60.8365 149.319 60.8365C152.648 60.8365 155.501 61.7846 155.66 61.7846C157.245 66.2091 159.147 72.3718 158.988 76.4802Z" fill="#F1B5AB"/>
<path d="M51.9922 193.097C51.9922 193.097 51.9922 193.097 51.9922 192.939C51.3581 192.939 50.7241 192.939 49.9315 193.097C47.2368 193.729 42.7984 197.521 42.7984 197.521H55.3209C55.3209 197.521 55.1624 193.729 55.3209 193.413C53.5773 194.203 51.9922 193.097 51.9922 193.097Z" fill="#D64E27"/>
<path d="M79.8905 192.939L77.8298 198.312C77.8298 198.312 80.8415 198.47 84.0118 198.312C84.0118 198.312 83.2192 194.993 82.4267 192.939C82.4267 192.939 82.4267 192.939 82.2682 193.097C80.2075 193.887 79.8905 192.939 79.8905 192.939Z" fill="#D64E27"/>
<path d="M111.434 16.5919C110.008 17.224 110.8 23.7027 115.239 22.9126C114.605 20.5423 113.337 18.3301 112.386 16.5919C112.227 16.4339 111.91 16.4339 111.434 16.5919Z" fill="#F1B5AB"/>
<path d="M117.458 15.6437C117.141 15.0117 118.409 13.9055 120.787 13.5895C123.164 13.2735 124.115 14.0636 124.115 14.0636C124.115 14.0636 124.274 14.5376 121.896 14.8536C119.36 15.0117 117.458 15.6437 117.458 15.6437Z" fill="#441211"/>
<path d="M129.822 13.7475C129.188 13.4314 131.566 11.8513 133.785 12.1673V13.2734C133.785 13.2734 130.614 14.2215 129.822 13.7475Z" fill="#441211"/>
<path d="M101.765 196.257C101.765 196.257 105.252 194.361 108.423 194.519C111.593 194.677 112.861 197.679 112.861 197.679H101.607V196.257H101.765Z" fill="#D64E27"/>
<path d="M149.794 196.889C149.794 196.889 152.331 193.887 155.818 194.045C159.305 194.045 162 197.679 162 197.679C162 197.679 150.746 197.995 149.794 197.837V196.889Z" fill="#D64E27"/>
<path d="M134.736 21.6484C135.845 24.4927 136.479 27.8111 133.309 30.6554C132.992 30.9714 132.675 31.1294 132.358 31.2874C131.407 31.9195 130.139 32.3935 128.871 32.7096C126.652 33.3416 124.274 33.4997 122.372 33.1836C122.213 33.1836 122.055 33.1836 121.896 33.0256C121.738 33.0256 121.579 32.8676 121.421 32.8676C121.104 32.7096 120.945 32.7096 120.628 32.5516C117.616 31.1294 116.507 27.9691 115.556 24.0186C115.556 23.7026 115.397 23.2286 115.239 22.9125C114.605 20.5423 113.337 18.33 112.385 16.5918C111.91 15.8018 111.593 15.1697 111.276 14.5376C110.166 12.4834 110.483 8.84901 113.654 5.0566C116.824 1.42221 120.153 0.158076 123.481 5.92554e-05C126.493 -0.157958 131.724 0.948161 134.102 2.52833C134.577 2.84437 134.894 3.31842 135.211 3.95048C136.162 6.32074 135.37 10.2712 135.053 12.0094C134.894 12.9575 134.577 14.2216 134.26 15.3277C133.943 16.2758 133.785 17.0659 133.785 17.0659C132.992 14.6956 133.309 9.48108 133.151 8.53298C132.992 7.42686 130.614 8.69099 129.029 9.6391C127.444 10.5872 123.481 10.5872 121.262 9.95513C119.201 9.48108 118.092 9.16505 116.982 10.1131C115.873 11.0612 114.605 13.4315 114.763 16.5918C114.763 16.9079 114.763 17.2239 114.922 17.5399C115.397 21.0163 117.141 23.3866 119.36 27.653C120.47 29.8653 121.896 30.6554 122.847 30.9714C123.64 31.2874 124.274 30.9714 124.274 30.9714C124.274 30.9714 125.701 28.9172 128.395 27.8111C131.09 26.7049 132.992 28.6011 132.992 28.6011C134.419 27.337 134.736 21.6484 134.736 21.6484Z" fill="#591813"/>
<path d="M64.6732 62.2588V64.629L73.8669 63.5229V61.1526L64.6732 62.2588Z" fill="#563A7F"/>
<path d="M128.712 54.5159L129.346 57.9923C129.346 57.9923 136.955 56.0961 139.491 56.2541L138.382 53.0937C138.382 53.0937 134.577 52.9357 128.712 54.5159Z" fill="#D64E27"/>
<path d="M86.548 195.467C86.2309 195.467 85.9139 195.467 85.5969 195.309C84.3288 194.993 83.3777 194.045 83.0607 192.781C82.4266 190.253 84.0118 186.46 86.865 184.09C88.7671 182.352 90.8278 181.404 93.364 180.93C94.9491 172.871 95.9002 159.123 95.4247 150.432C94.7906 138.581 90.1938 125.308 83.0607 115.037C75.4521 103.817 66.8924 100.815 61.82 102.553C58.3327 103.817 52.3092 112.192 46.1272 124.834C42.7984 131.47 29.8004 158.017 26.4716 166.392C23.1429 174.767 15.5343 193.887 15.3757 194.045C15.0587 194.677 14.2662 195.151 13.6321 194.835C12.9981 194.519 12.5225 193.729 12.8395 193.097C12.8395 192.939 20.6067 173.819 23.9354 165.444C27.2642 156.911 40.4208 130.206 43.7495 123.569C48.5049 113.93 55.4795 101.921 61.0274 99.8669C64.3562 98.6027 68.4775 99.0768 72.5988 101.131C77.1957 103.501 81.6341 107.61 85.5969 113.298C92.8885 123.885 97.6439 137.633 98.4364 149.958C98.912 158.491 97.9609 171.923 96.5343 180.298C98.7534 180.14 101.448 180.14 104.46 180.456C105.252 180.456 105.728 181.088 105.728 181.878C105.728 182.668 105.094 183.142 104.301 183.142C100.814 182.984 98.1194 182.826 95.9002 183.142C95.7417 183.774 95.5832 184.248 95.4247 184.722C92.5715 194.203 88.6086 195.467 86.548 195.467ZM92.5715 183.932C90.9863 184.406 89.7182 185.196 88.6086 186.302C86.2309 188.356 85.2799 191.201 85.5969 192.307C85.7554 192.623 85.9139 192.781 86.0724 192.781C87.9746 193.097 90.6693 190.727 92.5715 184.248C92.5715 184.09 92.5715 183.932 92.5715 183.932Z" fill="#B15026"/>
<path d="M12.9981 192.781C11.8885 193.255 4.43843 194.835 4.43843 196.257C4.43843 197.521 14.4247 195.151 14.4247 195.151L12.9981 192.781Z" fill="#AB463E"/>
<path d="M136.004 166.076L135.211 174.767L134.577 181.404L133.309 194.835C133.309 196.889 126.969 198.469 119.202 198.469C118.409 198.469 117.616 198.469 116.665 198.469C110.008 198.153 104.935 196.731 104.935 194.835C104.935 194.835 104.301 188.356 103.509 181.404C103.509 181.088 103.509 180.93 103.35 180.614C103.192 178.559 102.875 176.663 102.716 174.767C102.241 170.026 101.765 166.234 101.765 166.234C102.082 167.182 104.46 168.13 108.106 168.762C111.117 169.236 114.763 169.552 118.884 169.552C128.237 169.552 135.687 167.972 136.004 166.076Z" fill="#A6DDEB"/>
<path d="M116.665 198.311C110.008 197.995 104.935 196.573 104.935 194.677C104.935 194.677 104.301 188.198 103.509 181.246C103.509 180.93 103.509 180.772 103.35 180.456C103.192 178.401 102.875 176.505 102.716 174.609C102.241 169.868 101.765 166.076 101.765 166.076C102.082 167.024 104.46 167.972 108.106 168.604C110.008 178.243 113.178 192.307 116.665 198.311Z" fill="#66C8CE"/>
<path d="M136.004 165.918C136.004 167.972 128.395 169.552 118.884 169.552C114.763 169.552 110.959 169.236 107.947 168.762C104.46 168.13 102.241 167.34 101.765 166.234C101.765 166.076 101.765 166.076 101.765 165.918C101.765 164.654 104.777 163.548 109.374 162.916C112.068 162.6 115.397 162.284 118.884 162.284C128.395 162.284 136.004 163.864 136.004 165.918Z" fill="#E69548"/>
<path d="M135.211 174.767L134.577 181.404C132.2 182.036 127.286 182.826 118.568 183.3C115.714 183.458 113.337 183.3 111.276 183.142C107.472 182.826 104.935 182.194 103.509 181.404C103.509 181.088 103.509 180.93 103.35 180.614C103.192 178.559 102.875 176.663 102.716 174.767C104.143 175.399 106.362 176.031 109.691 176.505C112.069 176.821 115.239 176.979 118.885 176.979C127.444 176.821 132.517 175.557 135.211 174.767Z" fill="#A3D6B7"/>
<path d="M124.749 196.889C124.749 192.939 127.92 189.621 132.041 189.621C136.004 189.621 139.333 192.781 139.333 196.889C139.333 200.84 136.162 204.158 132.041 204.158C128.078 204 124.749 200.84 124.749 196.889Z" fill="#703E3E"/>
<path d="M132.041 202.42C129.029 202.42 126.493 199.892 126.493 196.889C126.493 193.887 129.029 191.359 132.041 191.359C135.053 191.359 137.589 193.887 137.589 196.889C137.589 199.892 135.053 202.42 132.041 202.42Z" fill="#E78234"/>
<path d="M103.667 198.312C103.667 196.257 105.411 194.519 107.472 194.519C109.532 194.519 111.276 196.257 111.276 198.312C111.276 200.366 109.532 202.104 107.472 202.104C105.252 201.946 103.667 200.366 103.667 198.312Z" fill="#703E3E"/>
<path d="M107.313 200.366C106.203 200.366 105.252 199.418 105.252 198.311C105.252 197.205 106.203 196.257 107.313 196.257C108.423 196.257 109.374 197.205 109.374 198.311C109.374 199.418 108.581 200.366 107.313 200.366Z" fill="#E78234"/>
<path d="M78.3053 51.1975C76.5616 54.3578 75.6105 61.3106 75.6105 61.4686C75.6105 61.4686 75.6105 61.6266 75.452 61.6266L75.2935 61.4686C75.2935 61.1526 76.2446 54.3578 77.9882 51.1975C78.1468 51.1975 78.1468 51.1975 78.3053 51.1975Z" fill="#601112"/>
<path d="M62.6125 56.7281V58.4663V58.7823L62.2955 70.7916C62.2955 70.7916 62.2955 70.9496 62.137 70.9496C62.137 70.9496 61.9785 70.9496 61.9785 70.7916L62.454 56.7281L58.3327 53.8838C58.3327 53.8838 58.3327 53.8838 58.3327 53.7258C58.3327 53.7258 58.3327 53.7258 58.3327 53.5677C59.4423 52.3036 61.1859 50.4074 61.82 49.6173C61.9785 49.6173 61.9785 49.6173 62.137 49.6173C61.6615 50.4074 59.7593 52.4616 58.6497 53.7258L62.6125 56.7281C62.6125 56.5701 62.6125 56.5701 62.6125 56.7281Z" fill="#601112"/>
<path d="M62.6126 58.7824C62.4541 58.7824 62.4541 58.7824 62.6126 58.7824C62.4541 58.6244 62.4541 58.6244 62.6126 58.4664L69.2701 54.674L67.2094 49.3014V49.1434C67.2094 49.1434 67.3679 49.1434 67.3679 49.3014L69.4286 54.832V54.99L62.6126 58.7824Z" fill="#601112"/>
<path d="M85.7554 164.338C85.1213 157.543 81.317 150.748 80.8415 150.116C80.8415 149.484 81.4755 143.48 81.9511 134.947C82.1096 131.944 82.5851 128.626 82.9022 125.466C83.6947 119.145 84.4873 112.508 83.3777 107.768C82.5851 104.291 81.6341 101.289 80.683 99.0767C81.1585 99.0767 81.4755 99.2348 81.9511 99.2348C82.7436 99.2348 83.6947 99.0767 84.6458 98.9187C84.6458 98.7607 84.4873 98.7607 84.4873 98.6027C83.0607 98.9187 81.7926 99.0767 80.683 98.9187C79.8904 97.1805 79.2564 95.9164 79.0979 95.4424C80.0489 94.9683 80.8415 94.4943 81.4755 94.1782L81.317 94.0202C78.9393 95.4424 74.6595 97.6546 68.953 98.4447C62.454 99.3928 58.0157 98.4447 55.955 97.8126C55.955 97.9706 55.955 97.9706 55.7965 98.1286C56.272 98.2867 57.0646 98.4447 58.0157 98.6027C57.6986 99.0768 56.1135 101.447 54.5284 103.027C54.5284 103.185 54.3699 103.343 54.3699 103.501C56.272 101.605 58.1742 98.7607 58.3327 98.6027C59.7593 98.9187 61.5029 99.0767 63.7221 99.0767C65.3073 99.0767 67.0509 98.9187 69.1116 98.7607C71.4892 98.4447 73.7084 97.8126 75.6106 97.1805C75.9276 97.4966 77.9883 98.9187 80.8415 99.2348C81.7926 101.447 82.7436 104.449 83.5362 108.084C84.6458 112.824 83.8532 119.461 83.0607 125.782C82.7436 128.942 82.2681 132.26 82.1096 135.263C81.317 143.796 80.683 150.116 80.683 150.116C80.683 150.116 80.683 150.116 80.683 150.274C80.683 150.274 84.8043 157.385 85.5969 164.496C86.2309 170.816 82.4266 189.304 81.4755 193.413C81.6341 193.413 81.6341 193.413 81.7926 193.255C82.7436 188.672 86.3894 170.658 85.7554 164.338ZM75.6106 96.7065C76.8787 96.2324 77.8298 95.7584 78.7808 95.2843C78.9393 95.6004 79.5734 96.7065 80.366 98.6027C77.9883 98.2867 76.2446 97.0225 75.6106 96.7065Z" fill="#A6DDEB"/>
<path d="M69.7455 111.402C69.7455 111.56 69.7455 111.56 69.7455 111.402C69.587 111.56 69.4285 111.56 69.4285 111.402V111.244C69.27 110.77 68.7944 109.98 68.4774 109.348C67.6848 111.244 63.405 122.621 61.1858 129.574C59.7592 133.998 58.0156 138.897 56.7475 142.215C55.9549 144.27 55.3209 146.166 55.3209 146.324C56.1134 147.272 58.8081 154.699 59.1252 161.335C59.4422 167.656 56.1134 186.934 54.8453 193.255C54.6868 193.255 54.6868 193.255 54.5283 193.413C55.6379 187.408 59.1252 167.814 58.8081 161.493C58.4911 154.225 55.4794 147.114 55.1623 146.64C55.0038 146.482 55.1623 146.166 56.589 142.215C57.8571 138.897 59.7592 133.998 61.0273 129.574C63.405 121.989 68.3189 109.19 68.3189 109.032C68.3189 109.032 68.3189 108.874 68.4774 108.874H68.6359C68.7944 109.348 69.7455 110.928 69.7455 111.402Z" fill="#A6DDEB"/>
<path d="M125.542 55.1479C125.383 55.1479 125.383 54.9899 125.542 55.1479C123.957 50.7234 121.738 44.0867 121.579 43.7707V43.6126C121.579 43.6126 121.738 43.4546 121.738 43.6126C121.738 43.6126 121.896 43.7707 125.542 54.5158L127.127 44.0867C127.127 44.0867 127.127 43.9287 127.286 43.9287L127.444 44.0867L125.542 55.1479C125.542 54.9899 125.542 54.9899 125.542 55.1479Z" fill="#601112"/>
<path d="M125.542 55.1481C125.384 55.1481 125.384 54.99 125.542 55.1481L124.274 45.351C124.274 45.351 124.274 45.193 124.432 45.193C124.432 45.193 124.591 45.193 124.591 45.351L125.542 55.1481C125.542 54.99 125.542 54.99 125.542 55.1481Z" fill="#601112"/>
<path d="M142.82 65.261C142.82 65.261 142.661 65.261 142.82 65.261C142.661 65.103 142.661 64.945 142.82 64.945C142.82 64.945 145.198 64.787 146.466 64.629C146.466 64.629 146.624 64.629 146.624 64.787C146.624 64.787 146.624 64.945 146.466 64.945C145.198 65.103 142.82 65.261 142.82 65.261Z" fill="#601112"/>
<path d="M112.227 18.014H112.068V18.172C112.068 18.172 112.544 18.646 113.178 19.2781C113.02 19.4361 112.544 20.0682 112.703 20.5422C112.861 20.7003 113.02 20.7003 113.178 20.7003C113.495 20.7003 113.654 20.7003 113.812 20.5422C113.971 20.8583 113.971 21.0163 113.971 21.3323C113.971 21.3323 113.971 21.4904 114.129 21.4904L114.288 21.3323C113.971 19.2781 112.227 18.014 112.227 18.014ZM112.861 20.3842C112.703 20.2262 113.02 19.9102 113.337 19.5941C113.495 19.9102 113.654 20.0682 113.812 20.3842C113.337 20.3842 112.861 20.5422 112.861 20.3842Z" fill="#983222"/>
<path d="M129.188 23.2285C128.554 23.2285 127.92 23.0705 127.127 22.5965C127.127 22.5965 126.969 22.4384 127.127 22.4384C127.127 22.4384 127.286 22.2804 127.286 22.4384C128.871 23.3865 130.297 22.9125 130.773 22.7545C130.456 22.2804 129.505 21.0163 128.871 19.2781C128.078 17.2239 128.871 14.2216 128.871 14.2216L129.029 14.0635L129.188 14.2216C129.188 14.2216 128.554 17.2239 129.188 19.2781C129.822 21.3323 131.09 22.7545 131.09 22.7545C131.09 22.7545 131.09 22.7545 131.09 22.9125V23.0705C130.773 22.7545 130.139 23.2285 129.188 23.2285Z" fill="#983222"/>
<path d="M123.164 23.7026C123.323 23.7026 126.176 24.4927 128.395 24.1767C130.614 23.7026 131.724 23.7026 131.724 23.7026C131.724 23.7026 130.614 27.021 127.92 27.179C125.225 27.4951 123.164 23.7026 123.164 23.7026Z" fill="white"/>
<path d="M121.579 17.698C121.579 18.6461 121.421 19.4362 121.104 19.4362C120.787 19.4362 120.47 18.6461 120.47 17.698C120.47 16.7499 120.628 15.9598 120.945 15.9598C121.262 15.9598 121.579 16.7499 121.579 17.698Z" fill="#601112"/>
<path d="M130.931 16.4339C130.931 17.382 130.773 18.1721 130.456 18.1721C130.139 18.1721 129.822 17.382 129.822 16.4339C129.822 15.4858 129.98 14.6957 130.297 14.6957C130.456 14.6957 130.773 15.4858 130.931 16.4339Z" fill="#601112"/>
<path d="M103.35 65.5772C103.192 65.5772 103.192 65.4191 103.35 65.5772C103.192 65.4191 103.192 65.2611 103.35 65.2611C109.691 63.839 112.227 64.313 112.386 64.313L112.544 64.471L112.386 64.6291C112.227 64.6291 109.532 64.155 103.35 65.5772Z" fill="#601112"/>
<path d="M111.91 62.2587C111.91 62.4167 111.751 62.4167 111.751 62.4167C111.593 62.4167 103.826 61.1526 95.7415 65.8931C95.7415 65.7351 95.7415 65.7351 95.7415 65.5771C103.984 60.8366 111.91 62.1007 111.91 62.1007C111.91 62.1007 111.91 62.1007 111.91 62.2587Z" fill="#601112"/>
<path d="M155.342 60.0464C150.27 58.1502 143.137 59.4144 142.027 59.5724C141.869 59.5724 141.869 59.5724 141.869 59.5724C141.869 59.5724 141.71 59.5724 141.71 59.4143C141.71 59.4143 141.71 59.2563 141.869 59.2563C141.869 59.2563 141.869 59.2563 142.027 59.2563C143.137 59.0983 150.111 57.8342 155.184 59.7304C155.184 59.8884 155.184 59.8884 155.342 60.0464Z" fill="#601112"/>
<path d="M55.1624 78.3766C55.0039 78.3766 55.0039 78.5346 55.1624 78.3766C55.0039 78.5346 55.0039 78.5346 55.1624 78.3766C55.0039 78.3766 55.0039 78.3766 55.0039 78.3766C52.4677 77.1124 48.9804 76.4804 47.5538 76.3224C47.5538 76.1643 47.5538 76.1643 47.5538 76.0063C48.9804 76.1643 52.1506 76.6384 54.6868 77.9025L54.5283 77.7445C54.0528 77.4285 48.3463 73.7941 50.724 64.9451L50.8825 64.7871L51.0411 64.9451C48.6634 73.7941 54.6868 77.4285 54.8454 77.4285L55.1624 77.9025L55.3209 78.0605C55.1624 78.3766 55.1624 78.3766 55.1624 78.3766Z" fill="#601112"/>
<path d="M86.865 68.8954C81.7926 68.7374 78.4638 72.0558 78.1468 72.2138C78.1468 72.2138 78.1468 72.2138 78.1468 72.3718C78.1468 72.5298 77.9882 72.8459 77.9882 73.0039C77.9882 73.0039 77.9882 73.0039 77.9882 73.1619C77.6712 73.952 77.3542 74.426 76.8787 75.0581C76.7201 75.2161 76.5616 75.3741 76.5616 75.3741C76.2446 75.5322 76.0861 75.8482 75.7691 76.0062C74.6595 76.6383 73.5499 76.7963 72.4403 76.7963C71.1722 76.7963 70.2211 76.4803 70.2211 76.4803L70.0626 76.3222L70.2211 76.1642C70.2211 76.1642 73.2329 76.9543 75.6106 75.6902C76.8787 75.0581 77.6712 73.794 78.1468 72.2138L75.135 66.0511V65.8931H75.2935L78.3053 71.8978C78.9393 71.2657 82.2681 68.4214 87.0235 68.5794C86.7065 68.5794 86.865 68.7374 86.865 68.8954Z" fill="#601112"/>
<path d="M124.274 45.1929C124.274 45.1929 124.115 45.0349 123.957 44.8768C122.53 43.9287 117.616 41.5585 117.616 41.5585C117.616 41.5585 118.25 39.9783 119.043 38.2401C120.153 35.7119 121.262 32.7095 121.421 32.7095C121.579 32.7095 121.738 32.8675 121.896 32.8675C122.055 32.8675 122.213 32.8675 122.372 33.0256C122.372 33.8157 122.372 36.818 123.006 39.1882C123.006 39.1882 123.006 39.1882 123.006 39.3462C123.798 42.1905 124.274 45.1929 124.274 45.1929Z" fill="#2B91BE"/>
<path d="M133.151 41.4006C130.932 42.3487 124.908 44.877 124.433 45.1931C124.75 45.035 125.859 42.1907 126.81 39.1884C127.603 36.8182 128.395 34.1319 128.871 32.7097L129.505 32.5517L131.883 38.3983L133.151 41.4006Z" fill="#2B91BE"/>
<path d="M132.2 31.2875C131.249 31.9195 129.981 32.3936 128.712 32.7096C126.493 33.3417 124.116 33.4997 122.213 33.1837C122.055 33.1837 121.896 33.1837 121.738 33.0257C121.579 33.0257 121.421 32.8676 121.262 32.8676C120.945 32.7096 120.787 32.7096 120.47 32.5516C117.458 31.1295 116.348 27.9691 115.397 24.0187C115.397 23.7027 115.239 23.2286 115.08 22.9126C114.446 20.5423 113.178 18.3301 112.227 16.5919C111.752 15.8018 111.435 15.1697 111.117 14.5377C110.008 12.4834 110.325 8.84905 113.495 5.05664C112.703 8.375 112.861 12.3254 114.446 16.4339C114.446 16.7499 114.446 17.0659 114.605 17.382C115.08 20.8583 116.824 23.2286 119.043 27.4951C120.153 29.7073 121.579 30.4974 122.53 30.8134C124.433 31.7615 128.078 32.3936 132.2 31.2875Z" fill="#441211"/>
<path d="M135.053 11.8514C134.894 12.7995 134.577 14.0636 134.26 15.1697C133.943 16.1178 133.785 16.9079 133.785 16.9079C132.992 14.5376 133.309 9.32308 133.151 8.37498C133.943 7.11084 134.736 5.53067 135.211 3.9505C136.321 6.16274 135.37 10.2712 135.053 11.8514Z" fill="#441211"/>
<path d="M123.006 39.3464C121.262 39.1884 119.994 38.8723 119.043 38.3983C120.153 35.87 121.262 32.8677 121.421 32.8677C121.579 32.8677 121.738 33.0257 121.896 33.0257C122.055 33.0257 122.213 33.0257 122.372 33.1837C122.372 33.8158 122.372 36.8181 123.006 39.3464Z" fill="#50298D"/>
<path d="M131.883 38.3981C129.98 38.8722 128.237 39.1882 126.81 39.3462C127.603 36.976 128.395 34.2897 128.871 32.8675L129.505 32.7095L131.883 38.3981Z" fill="#50298D"/>
<path d="M107.947 168.762C104.46 168.13 102.241 167.34 101.765 166.234C101.765 166.076 101.765 166.076 101.765 165.918C101.765 164.654 104.777 163.548 109.374 162.916C107.947 164.812 107.789 167.024 107.947 168.762Z" fill="#D2833B"/>
<path d="M106.362 165.76C106.204 165.76 106.204 165.76 106.045 165.76C105.569 165.602 105.411 165.128 105.569 164.654L108.423 157.543C108.581 157.227 108.898 157.069 109.215 157.069L127.761 155.963C128.078 155.963 128.554 156.121 128.554 156.595L130.773 164.022C130.931 164.496 130.614 164.97 130.297 164.97C129.98 164.97 129.346 164.812 129.346 164.496L127.286 157.701L109.849 158.649L107.155 165.286C106.996 165.602 106.679 165.76 106.362 165.76Z" fill="#D45927"/>
<path d="M90.1937 80.1148C90.0351 80.5888 89.4011 82.169 87.9745 84.3812C86.3893 86.9095 84.1702 89.9118 81.4755 92.2821C76.403 96.3905 67.8434 99.5509 67.8434 99.5509C67.5263 101.447 65.9412 103.975 65.1486 103.817H64.9901C64.3561 103.659 64.8316 102.237 64.8316 102.237C64.8316 102.237 63.405 104.923 62.6124 104.765C61.8199 104.607 63.088 102.237 63.088 101.921C62.1369 103.185 60.3933 105.081 59.9177 104.607C59.4422 104.133 62.1369 99.5509 62.1369 99.5509C62.1369 99.5509 60.0762 100.973 59.6007 100.657C59.1252 100.341 60.3933 99.0768 61.6614 97.8127C62.9295 96.5485 65.6242 96.2325 66.2582 96.2325C66.8923 96.2325 69.587 93.2302 73.0743 89.2798L73.2328 89.1217C76.7201 85.1713 81.4755 78.8506 81.4755 78.8506C81.1584 78.3766 78.6222 73.162 78.6222 73.162C78.6222 73.162 78.9392 72.846 79.7318 72.3719C80.3659 72.0559 81.3169 71.4238 82.7436 70.9498C85.9138 69.6857 87.1819 70.1597 87.1819 70.1597C87.9745 71.2658 90.5107 79.1667 90.1937 80.1148Z" fill="#F1B5AB"/>
<path d="M82.4266 79.4827C82.4266 79.4827 77.3542 85.6454 73.2328 89.2798C76.7201 85.3294 81.4755 79.0087 81.4755 79.0087C81.1585 78.5346 78.6223 73.3201 78.6223 73.3201C78.6223 73.3201 78.9393 73.004 79.7319 72.53C81.7925 75.8483 82.4266 78.3766 82.4266 79.4827Z" fill="#F5948D"/>
<path d="M88.1331 84.2232C86.548 86.7515 84.3288 89.7538 81.6341 92.1241C76.4031 96.3905 67.8435 99.5509 67.8435 99.5509C67.5264 101.447 65.9413 103.975 65.1487 103.817H64.9902C66.2583 101.763 67.2094 98.9188 67.2094 98.9188C67.2094 98.9188 72.4403 96.7065 78.6223 92.4401C83.0607 89.5958 86.3894 86.2774 88.1331 84.2232Z" fill="#F5948D"/>
<path d="M139.016 78.8506C138.065 79.4827 128.078 84.8553 119.202 85.9614C109.849 87.0675 105.094 87.2255 101.924 83.4331C98.7535 79.6407 96.3758 68.1054 96.3758 68.1054C96.3758 68.1054 96.8513 67.4734 99.3875 66.5253C100.022 69.3696 101.607 78.8506 106.679 82.801C106.679 82.801 115.873 84.8553 123.64 82.801C129.346 81.2209 134.102 78.8506 136.321 77.5865C137.114 78.0605 138.065 78.3766 139.016 78.8506Z" fill="#F5948D"/>
<path d="M158.988 76.4804C158.988 78.0605 158.513 79.4827 157.72 80.2728C154.867 83.2751 149.478 81.8529 144.722 80.5888C144.247 80.4308 143.771 80.2728 143.454 80.2728C142.186 79.9567 140.759 79.3247 139.016 78.6926C133.943 76.4804 127.603 73.32 125.859 72.5299C123.481 71.5818 120.945 71.5818 120.945 71.5818C120.945 71.5818 116.824 73.162 113.654 73.004C112.861 73.004 112.386 72.6879 112.068 72.3719C113.654 72.0559 116.665 71.4238 118.25 70.6337C120.311 69.5276 122.213 69.0536 123.164 69.2116C124.115 69.3696 130.139 72.3719 142.344 75.2162C151.063 77.4285 156.135 77.4285 158.988 76.4804Z" fill="#F5948D"/>
<path d="M145.832 64.787L142.82 64.9451L142.344 61.4687C142.344 61.4687 143.93 61.3107 145.832 61.1526C145.832 62.8908 145.832 64.787 145.832 64.787Z" fill="#F5948D"/>
<path d="M139.967 79.3247C138.065 78.6926 131.565 75.5323 126.335 73.004C123.323 71.5818 122.213 71.7399 120.628 72.0559C120.311 72.0559 120.153 72.2139 119.836 72.2139C119.202 72.3719 118.409 72.5299 117.616 72.846C116.19 73.32 114.605 73.7941 113.178 73.32C112.385 73.004 111.91 72.688 111.593 72.2139C111.276 71.5818 111.434 70.9498 111.434 70.9498C111.434 70.9498 111.593 69.6856 112.227 68.7375C112.227 68.2635 111.91 65.1031 111.91 64.7871C111.91 64.6291 111.434 56.7282 110.008 51.9877C110.008 51.9877 110.008 51.8297 110.166 51.8297C110.166 51.8297 110.325 51.8297 110.325 51.9877C111.751 56.7282 112.227 64.7871 112.227 64.7871C112.227 65.1031 112.544 68.7375 112.544 68.7375C112.544 68.7375 112.544 68.7375 112.544 68.8956C111.91 69.8437 111.751 71.1078 111.751 71.1078C111.751 71.1078 111.593 71.5818 111.91 72.2139C112.068 72.688 112.544 73.004 113.337 73.162C114.763 73.6361 116.19 73.162 117.616 72.688C118.409 72.3719 119.043 72.2139 119.836 72.0559C120.153 72.0559 120.311 71.8979 120.628 71.8979C122.213 71.5818 123.323 71.4238 126.493 72.846C131.566 75.3743 138.223 78.3766 139.967 79.1667C140.125 79.1667 140.125 79.1667 139.967 79.3247C140.125 79.3247 140.125 79.3247 139.967 79.3247Z" fill="#601112"/>
<path d="M155.818 61.7847C155.818 61.7847 155.66 61.7847 155.342 61.6267H155.184C154.708 61.4686 154.233 61.3106 153.599 61.3106C153.44 61.3106 153.44 61.3106 153.282 61.3106C152.331 61.1526 151.38 60.9946 150.112 60.9946C145.673 60.9946 142.344 61.4686 142.344 61.4686C142.344 61.4686 142.186 61.4686 142.186 61.3106C142.027 60.8366 141.869 60.2045 141.71 59.4144C140.918 55.622 139.967 49.6174 139.967 49.4593C139.967 49.4593 139.967 49.3013 140.125 49.3013C140.125 49.3013 140.284 49.3013 140.284 49.4593C140.284 49.6174 141.235 55.464 142.027 59.2564C142.027 59.4144 142.027 59.4144 142.027 59.5724C142.186 60.2045 142.344 60.6786 142.344 61.1526C142.979 60.9946 145.99 60.6786 149.953 60.6786C152.648 60.6786 154.55 61.1526 155.501 61.4686C155.818 61.7847 155.818 61.7847 155.818 61.7847Z" fill="#601112"/>
<path d="M67.2093 47.8793C67.0508 49.4595 67.5263 50.5656 66.4168 52.6199C65.3072 54.6741 63.5635 56.8863 62.6124 56.7283C61.5029 56.5703 61.9784 52.1458 62.1369 50.4076C62.1369 49.7755 61.9784 48.9855 61.8199 48.1954C61.5029 47.4053 61.1858 46.6152 60.8688 46.1412C61.0273 46.1412 61.0273 46.1412 61.1858 46.1412C63.5635 45.6671 65.7827 43.6129 67.3678 41.7167C67.2093 42.9808 67.3678 46.6152 67.2093 47.8793Z" fill="#F1B5AB"/>
<path d="M67.2093 47.8793C65.1486 48.6694 63.088 48.3533 61.8199 48.0373C61.5029 47.2472 61.1858 46.4571 60.8688 45.9831C61.0273 45.9831 61.0273 45.9831 61.1858 45.9831C63.5635 45.509 65.7827 43.4548 67.3678 41.5586C67.2093 42.9807 67.3678 46.6151 67.2093 47.8793Z" fill="#F5948D"/>
<path d="M128.871 32.7095C128.554 34.1317 127.92 36.0279 127.286 38.0821C126.176 41.5585 124.75 45.1929 124.433 45.3509C124.433 45.3509 123.957 42.3486 123.164 39.5043C123.006 39.1882 123.006 38.8722 123.006 38.5562C122.53 36.3439 122.53 33.9737 122.53 33.1836C124.274 33.3416 126.652 33.3416 128.871 32.7095Z" fill="#F1B5AB"/>
<path d="M128.871 32.7095C128.554 34.1317 127.92 36.0279 127.286 38.0821C125.384 38.5562 123.798 38.5562 122.847 38.5562C122.372 36.3439 122.372 33.9737 122.372 33.1836C124.274 33.3416 126.652 33.3416 128.871 32.7095Z" fill="#F5948D"/>
<path d="M81.4754 43.6127C80.2073 44.2448 78.7807 44.5608 77.6711 44.4028C75.1349 44.0868 73.0743 42.1906 72.5987 39.6623C71.8062 35.8699 72.9157 29.5492 72.5987 27.811C72.4402 26.0728 72.1232 26.2309 71.3306 26.0728C71.3306 26.0728 69.904 23.8606 70.0625 22.4384C70.0625 22.2804 70.0625 21.4903 70.3795 20.5422C70.8551 19.1201 72.1232 17.3819 75.1349 17.3819C80.2073 17.3819 82.585 22.9125 82.268 27.179C81.951 31.4454 79.0977 36.976 80.2073 38.0821C81.1584 39.1883 83.5361 38.0821 84.1702 37.134C84.1702 37.134 85.4383 41.5585 81.4754 43.6127Z" fill="#D0412B"/>
<path d="M77.5127 44.4029C74.9765 44.0869 72.9159 42.1907 72.4403 39.6624C71.6478 35.87 72.7574 29.5493 72.4403 27.8111C72.2818 26.0729 71.9648 26.2309 71.1722 26.0729C71.1722 26.0729 69.7456 23.8607 69.9041 22.4385C69.9041 22.2805 69.9041 21.4904 70.2212 20.5423C73.0744 19.5942 76.4031 20.0683 76.2446 25.7569C76.0861 32.3936 73.3914 36.186 74.6595 40.1364C75.6106 41.8746 76.7202 43.4548 77.5127 44.4029Z" fill="#C02C26"/>
<path d="M73.5499 36.344C72.7574 38.2402 69.5871 40.1364 69.5871 40.1364C69.2701 40.9265 68.7945 42.0326 68.002 42.9807C67.685 43.4548 67.3679 43.7708 66.8924 44.2449C65.4658 45.825 63.4051 47.2472 61.503 47.7213C61.3445 47.7213 61.3445 47.7213 61.1859 47.7213C57.6987 48.3533 54.6869 47.0892 52.7848 43.2968C50.7241 39.3463 51.0411 30.4974 51.9922 29.2333C57.0646 30.1814 62.137 28.2852 63.7221 27.8111C65.3073 27.3371 65.6243 27.8111 67.0509 29.8653C67.3679 30.1814 67.5264 30.6554 67.8435 31.1295C68.7945 33.3417 69.4286 36.186 69.4286 36.186C69.4286 35.5539 70.2212 34.4478 71.1722 33.6577C71.6478 33.1837 72.1233 32.8676 72.5988 32.8676C74.0255 32.3936 74.3425 34.4478 73.5499 36.344Z" fill="#F1B5AB"/>
<path d="M73.5499 36.3441C72.7573 38.2403 69.5871 40.1365 69.5871 40.1365C69.27 40.9266 68.7945 42.0328 68.0019 42.9809C67.6849 43.4549 67.3679 43.7709 66.8923 44.245C68.7945 39.8205 68.319 33.8159 67.8434 31.1296C68.7945 33.3418 69.4286 36.1861 69.4286 36.1861C69.4286 35.5541 70.2211 34.4479 71.1722 33.6578C71.6477 33.1838 72.1233 32.8678 72.5988 32.8678C74.0254 32.3937 74.3424 34.4479 73.5499 36.3441Z" fill="#F5948D"/>
<path d="M71.6478 22.4386C70.5382 22.1225 69.4286 22.7546 68.9531 23.2287C69.5871 24.3348 70.0627 25.5989 70.3797 26.705C73.867 26.073 73.2329 22.9126 71.6478 22.4386Z" fill="#563A7F"/>
<path d="M71.3307 33.6577C70.3796 34.4478 69.587 35.5539 69.587 36.186C69.587 36.186 69.1115 34.1318 68.4774 32.2356C68.1604 31.2875 67.6849 30.4974 67.2093 29.8653C65.7827 27.8111 65.4657 27.337 63.8806 27.8111C62.2954 28.2851 57.223 30.1813 52.1506 29.2332C50.724 28.9172 50.2485 26.705 51.3581 24.8088C52.4677 22.9126 60.8688 18.6461 65.4657 19.9102C66.8923 20.3843 68.1604 21.6484 69.1115 23.3866C69.1115 23.3866 69.1115 23.3866 69.1115 23.5446C69.587 24.6507 70.0626 25.7569 70.5381 27.021C71.1721 29.5493 71.4892 32.2356 71.3307 33.6577Z" fill="#D0412B"/>
<path d="M71.6477 34.6057H71.4892C71.4892 34.6057 69.9041 36.3438 69.7455 37.608C69.7455 37.608 69.7455 37.766 69.9041 37.766C69.9041 37.766 70.0626 37.766 70.0626 37.608C70.0626 37.45 70.0626 37.2919 70.2211 37.1339C70.3796 37.1339 70.5381 37.2919 70.6966 37.2919C70.8551 37.2919 71.0137 37.2919 71.1722 37.1339C71.4892 36.8179 71.3307 35.8698 71.1722 35.5538C71.4892 35.0797 71.8062 34.9217 71.8062 34.7637C71.8062 34.7637 71.8062 34.6057 71.6477 34.6057ZM70.8551 36.8179C70.6966 36.9759 70.3796 36.9759 70.2211 36.8179C70.3796 36.5019 70.5381 36.0278 70.8551 35.7118C71.0137 36.1858 71.0137 36.6599 70.8551 36.8179Z" fill="#983222"/>
<path d="M56.589 42.1906C55.9549 42.1906 55.4794 42.1906 55.4794 42.1906H55.3209V42.0326C55.3209 42.0326 57.3816 35.8699 57.5401 35.7119L57.6986 35.5539L57.8571 35.7119C57.8571 35.8699 56.1135 40.7685 55.7964 41.8746C56.1135 41.8746 57.0645 41.8746 57.6986 41.8746C58.1741 41.8746 58.3326 41.7166 58.4911 41.7166C58.6497 41.5585 58.6497 41.5585 58.6497 41.5585C58.6497 41.5585 58.6497 41.4005 58.8082 41.4005C58.8082 41.4005 58.9667 41.4005 58.9667 41.5585C58.9667 41.5585 58.9667 41.7166 58.8082 41.8746C58.6497 42.0326 58.3326 42.1906 57.8571 42.1906C57.223 42.1906 56.906 42.1906 56.589 42.1906Z" fill="#983222"/>
<path d="M57.6986 44.2449C57.6986 44.2449 59.2837 44.5609 61.0273 43.9288C62.771 43.2967 63.8806 42.9807 63.8806 42.9807C63.8806 42.9807 62.454 45.351 60.3933 45.825C58.1741 46.1411 57.6986 44.2449 57.6986 44.2449Z" fill="white"/>
<path d="M60.7103 33.9737C60.5518 33.6576 61.8199 32.2355 63.5636 32.2355C65.1487 32.0775 66.7338 33.1836 66.7338 33.1836C66.7338 33.1836 64.6732 33.1836 63.2465 33.3416C61.6614 33.6576 60.7103 33.9737 60.7103 33.9737Z" fill="#D0412B"/>
<path d="M56.9061 34.6057C56.9061 34.6057 56.1135 33.4996 54.6869 33.3416C53.4188 33.1836 52.3092 33.9736 52.3092 33.9736C52.3092 33.9736 53.1018 34.2897 54.5284 34.2897C56.1135 34.4477 56.9061 34.6057 56.9061 34.6057Z" fill="#D0412B"/>
<path d="M56.1136 36.6601C55.9551 37.4502 55.638 37.9242 55.321 37.9242C55.004 37.9242 54.8455 37.2921 54.8455 36.5021C55.004 35.712 55.321 35.2379 55.638 35.2379C56.1136 35.2379 56.2721 35.87 56.1136 36.6601Z" fill="#601112"/>
<path d="M64.3562 35.7119C64.1977 36.502 63.8807 36.976 63.5636 36.976C63.2466 36.976 63.0881 36.344 63.0881 35.5539C63.2466 34.7638 63.5636 34.2897 63.8807 34.2897C64.3562 34.4478 64.5147 35.0798 64.3562 35.7119Z" fill="#601112"/>
<path d="M71.3307 33.6578C70.3796 34.4478 69.587 35.554 69.587 36.186C69.587 36.186 69.1115 34.1318 68.4774 32.2356C69.1115 29.2333 69.1115 25.5989 69.1115 23.3867C69.587 24.4928 70.0626 25.5989 70.5381 26.863C71.1722 29.5493 71.4892 32.2356 71.3307 33.6578Z" fill="#C02C26"/>
<path d="M111.276 183.142C107.472 182.826 104.935 182.194 103.509 181.404C103.509 181.088 103.509 180.93 103.35 180.614C103.192 178.559 102.875 176.663 102.716 174.767C104.143 175.399 106.362 176.031 109.691 176.505C110.166 178.243 110.8 181.088 111.276 183.142Z" fill="#89C09C"/>
</g>
<defs>
<clipPath id="clip0_591_2343">
<rect width="162" height="204" fill="white"/>
</clipPath>
</defs>
</svg>
