<svg width="131" height="180" viewBox="0 0 131 180" fill="none" xmlns="http://www.w3.org/2000/svg">
<path d="M129.289 0H79.5516V41.3559H129.289V0Z" fill="#CDB9B9"/>
<path d="M129.151 0V41.3559H114.587L120.633 0H129.151Z" fill="#BAA8A8"/>
<path d="M127.502 35.9974H124.342L123.655 8.24365H127.64V35.9974H127.502ZM124.617 35.7226H127.228V8.65584H123.93L124.617 35.7226Z" fill="#403651"/>
<path d="M56.4693 88.2077H33.7991C33.7991 88.2077 34.4861 84.4981 36.547 83.9485C37.6462 83.6737 39.8445 83.1241 42.455 82.7119C44.9281 82.2998 47.8134 82.1624 50.2865 82.5746C55.3701 83.3989 55.7823 83.9485 55.7823 83.9485L56.4693 88.2077Z" fill="#9A706F"/>
<path d="M56.4693 88.2077H50.2865C48.0882 86.4216 45.3403 84.3607 42.3176 82.7119C44.7907 82.2998 47.676 82.1624 50.1491 82.5746C55.2327 83.3989 55.6449 83.9485 55.6449 83.9485L56.4693 88.2077Z" fill="#442B6A"/>
<path d="M31.0512 71.1709C31.0512 71.1709 29.4025 87.5209 27.2042 87.9331C25.9676 88.2079 23.0823 88.3453 20.0596 88.3453C17.3117 88.3453 14.5638 88.2079 13.6021 87.9331C11.8159 87.2461 9.89246 71.1709 9.89246 71.1709H27.479H31.0512Z" fill="#2B91BE"/>
<path d="M31.0512 71.1706C31.0512 71.1706 29.4025 87.5206 27.2042 87.9328C25.9676 88.2076 23.0823 88.345 20.0596 88.345C23.7693 83.6735 26.3798 75.155 27.479 71.0332L31.0512 71.1706Z" fill="#1F89AE"/>
<path d="M78.8646 168.996H9.20547V172.431H78.8646V168.996Z" fill="#CDB9B9"/>
<path d="M78.8646 168.996V172.293H54.8205L55.7823 168.996H78.8646Z" fill="#BAA8A8"/>
<path d="M130.8 88.0703L130.663 104.832V105.107L130.388 126.129V126.403L130.25 147.425V147.837L129.976 168.859V169.133V172.293H78.8646V88.0703H130.8Z" fill="#CDB9B9"/>
<path d="M130.8 88.0703L130.662 104.832V105.107L130.525 126.129V126.403L130.388 147.425V147.7L130.25 168.721V168.996V172.293H104.283C107.305 157.455 118.434 101.398 120.907 88.0703H130.8Z" fill="#BAA8A8"/>
<path d="M130.663 104.832H78.8646V105.107H130.663V104.832Z" fill="#403651"/>
<path d="M78.8879 125.718L78.8831 125.993L130.396 126.903L130.401 126.628L78.8879 125.718Z" fill="#403651"/>
<path d="M78.8983 147.076L78.8935 147.351L130.269 148.254L130.274 147.979L78.8983 147.076Z" fill="#403651"/>
<path d="M129.976 168.858H78.8646V169.133H129.976V168.858Z" fill="#403651"/>
<path d="M78.8646 88.0703V168.996H9.20548L8.93067 146.051L8.5185 107.993V107.718L8.38106 88.0703H78.8646Z" fill="#5B4E6C"/>
<path d="M32.4252 88.0703L8.93067 146.051L8.38106 88.0703H32.4252Z" fill="#6A5E7C"/>
<path d="M72.5445 123.244L71.7201 158.279H15.8004L15.1134 123.244H72.5445Z" fill="#9A8382"/>
<path d="M39.9819 123.244L21.1588 158.279H15.9378L30.7764 123.244H39.9819Z" fill="#A89595"/>
<path d="M78.8646 88.0703V168.996H55.9197L76.3915 88.0703H78.8646Z" fill="#4B415B"/>
<path d="M72.5445 123.244L71.7202 158.279H51.9353L62.9268 123.244H72.5445Z" fill="#867474"/>
<path d="M115.137 103.87C114.45 109.504 112.114 125.167 112.114 125.167C113.488 127.365 115.824 132.311 114.862 143.44C113.9 154.569 108.954 169.545 108.954 169.545L108.405 169.683L107.58 169.82C107.58 169.82 104.42 133.41 104.145 129.838C103.871 126.266 101.672 102.909 101.672 102.909C101.672 102.909 101.535 103.046 101.26 103.321C100.024 104.832 96.1765 109.778 93.7034 113.763C90.6807 118.434 83.2613 128.602 83.2613 128.602C87.5205 132.586 90.131 139.318 91.2302 145.776C92.4667 152.371 93.7034 170.782 93.7034 170.782L93.4285 170.644L92.0546 169.957C92.0546 169.957 84.4979 153.333 80.6508 144.814C76.6664 136.296 72.6819 128.876 72.8193 128.327C72.9567 127.777 78.7273 114.587 80.376 109.916C82.1622 105.382 90.5432 87.3831 90.5432 87.3831C90.5432 87.3831 94.9398 88.8944 101.535 87.6579C105.107 86.9709 108.13 85.4595 110.191 84.0856C111.977 82.849 113.076 81.7499 113.351 81.4751C116.099 85.7343 115.961 98.2373 115.137 103.87Z" fill="#A6DDEB"/>
<path d="M115.137 103.87C114.45 109.504 112.114 125.167 112.114 125.167C113.488 127.365 115.824 132.311 114.862 143.44C113.9 154.569 108.954 169.545 108.954 169.545L108.405 169.683C109.229 164.736 112.939 144.127 113.213 139.181C113.488 133.548 111.152 126.678 111.152 126.678C111.152 126.678 112.389 104.97 112.526 99.0616C112.526 93.8406 111.29 88.3448 110.328 84.0856C112.114 82.849 113.213 81.7499 113.488 81.4751C116.099 85.7343 115.961 98.2373 115.137 103.87Z" fill="#66C8CE"/>
<path d="M101.26 100.161V103.321C100.024 104.832 96.1765 109.778 93.7033 113.763C90.6807 118.434 83.2613 128.601 83.2613 128.601C87.5205 132.586 90.131 139.318 91.2302 145.776C92.4667 152.371 93.7033 170.782 93.7033 170.782L93.4285 170.644C92.879 166.935 91.6424 158.141 90.6806 153.47C89.4441 147.424 87.2458 138.356 84.7727 135.196C82.2996 131.899 79.4142 128.052 79.4142 128.052C79.4142 128.052 86.971 118.297 92.7416 111.839C98.5122 105.244 101.26 100.161 101.26 100.161Z" fill="#66C8CE"/>
<path d="M128.189 63.7514C127.365 63.7514 126.678 63.7514 125.991 63.8888C123.655 64.301 121.869 65.5376 121.869 65.5376C121.869 65.5376 120.908 64.988 119.534 64.1636C118.022 63.2018 115.961 61.9653 113.9 60.454C109.916 57.7061 106.618 54.9582 106.618 54.9582C106.618 54.9582 106.481 62.3775 106.344 64.7132C106.344 67.1863 106.756 68.6977 108.817 71.3082C112.664 75.9796 113.351 81.4754 113.351 81.4754C113.076 81.8876 111.977 82.8493 110.328 84.0859C108.267 85.4598 105.107 87.1086 101.535 87.7956C94.9398 89.0321 90.5432 87.5207 90.5432 87.5207C90.4058 84.7728 90.2684 69.7968 90.131 68.4229C90.131 68.1481 89.9936 67.7359 89.8562 67.4611C89.444 66.4993 88.7571 65.5376 88.4823 65.1254V64.988C88.3449 65.4002 86.1466 69.522 84.2231 72.2699C81.2004 76.5292 77.216 78.4527 77.216 78.4527C77.3533 77.3535 77.216 76.2544 77.216 75.43C76.9412 71.4456 75.7046 70.3464 75.7046 70.3464C75.7046 70.3464 77.7655 65.1254 79.4142 60.7287C80.5134 57.8434 81.7499 53.9964 82.9865 50.4241C83.6734 48.638 84.2231 46.8519 84.7727 45.3405C84.9101 44.9283 85.0474 44.5161 85.3222 44.2414C86.9709 41.0813 89.1693 41.2187 90.4058 41.3561L91.0928 42.5926C91.505 43.1422 91.9172 43.5544 92.3294 43.5544C93.2912 43.5544 94.3903 41.3561 94.8025 39.8447C94.8025 39.7073 94.665 39.5699 94.665 39.4325L94.9398 39.2951C96.1764 38.0586 97.9625 37.9212 100.161 38.3334C101.397 38.6082 102.909 39.0204 104.283 39.7073C104.832 39.9821 105.382 40.2569 105.931 40.5317C110.74 43.0048 119.671 52.2103 123.106 56.0573C123.243 56.1947 123.381 56.3321 123.518 56.4695C126.953 60.1792 128.189 63.7514 128.189 63.7514Z" fill="#563A7F"/>
<path d="M100.298 38.4711C99.0617 40.1199 95.7642 44.1043 92.192 44.3791C89.4441 44.6539 86.971 44.3791 85.4597 44.2417C87.1084 41.0816 89.3066 41.219 90.5432 41.3564L91.2302 42.593C91.6424 43.1426 92.0546 43.5547 92.4668 43.5547C93.4285 43.5547 94.5277 41.3564 94.9399 39.8451C94.9399 39.7077 94.8025 39.5703 94.8025 39.4329L95.0773 39.2955C96.1765 38.3337 98.1 38.0589 100.298 38.4711Z" fill="#3D2B60"/>
<path d="M88.4823 64.9878C88.3449 65.4 86.1466 69.5218 84.223 72.2697C81.2004 76.529 77.2159 78.4525 77.2159 78.4525C77.3533 77.3533 77.2159 76.2542 77.2159 75.4298C78.5899 74.6054 80.6508 72.8193 82.8491 69.934C85.4596 66.6365 86.8336 63.2017 86.8336 63.2017C86.8336 63.2017 87.5205 64.1634 88.4823 64.9878Z" fill="#3D2B60"/>
<path d="M90.5432 65.8117L89.8562 67.323C89.444 66.3612 88.7571 65.3995 88.4823 64.9873C89.1692 65.3995 89.8562 65.8117 90.5432 65.8117Z" fill="#3D2B60"/>
<path d="M128.189 63.7515C127.365 63.7515 126.678 63.7515 125.991 63.8889C125.716 62.5149 124.892 59.3548 123.793 56.6069C126.953 60.1792 128.189 63.7515 128.189 63.7515Z" fill="#3D2B60"/>
<path d="M106.344 64.7129C106.344 67.186 106.756 68.6974 108.817 71.3079C112.664 75.9793 113.351 81.4751 113.351 81.4751C113.076 81.8873 111.977 82.849 110.328 84.0856C108.954 79.8263 106.756 72.6818 105.931 70.7583C104.695 68.0104 104.42 63.8885 104.42 63.8885C101.535 65.5373 97.9625 64.4381 97.9625 64.4381C97.9625 64.4381 101.26 62.9268 103.046 61.1406C104.832 59.3545 104.42 52.21 104.42 52.21C104.42 52.21 112.664 58.3927 115.137 60.4537C116.786 61.8276 118.297 63.0642 119.534 64.3007C118.022 63.339 115.961 62.1024 113.9 60.5911C109.916 57.8432 106.618 55.0953 106.618 55.0953C106.618 55.0953 106.481 62.2398 106.344 64.7129Z" fill="#3D2B60"/>
<path d="M96.4512 25.8302C96.3138 27.7537 93.1537 29.4024 93.1537 29.4024C93.2911 30.0894 93.2911 31.0512 93.0164 32.1503C93.0164 32.4251 92.8789 32.5625 92.8789 32.8373C92.4667 34.2113 91.7798 35.7226 90.818 37.0965C90.2684 37.6461 89.8562 38.1957 89.444 38.6079L89.3067 38.7453C87.9327 39.707 86.1466 39.8444 81.75 39.4322C75.7046 38.8827 75.5672 35.4478 75.5672 33.1121C75.5672 30.9138 74.6054 27.2041 74.6054 27.2041C74.6054 27.2041 74.8802 27.2041 75.4297 26.9293C76.2541 26.3797 77.6281 25.5554 79.4142 23.9066C82.4369 21.2961 83.8109 18.2734 83.8109 18.2734C84.6353 19.7848 87.5205 23.9066 89.8562 25.1432C89.9936 25.1432 90.1311 25.2806 90.2685 25.2806C92.7416 26.2423 93.5659 23.4944 94.2529 22.8075C95.0772 22.2579 96.5886 23.9066 96.4512 25.8302Z" fill="#F1B5AB"/>
<path d="M96.4512 25.8303C96.3138 27.7538 93.1537 29.4025 93.1537 29.4025C93.2911 30.0895 93.2911 31.0513 93.0164 32.1504C93.0164 32.4252 92.8789 32.5626 92.8789 32.8374C92.4667 34.2114 91.7798 35.7227 90.818 37.0966C91.9171 33.2496 90.818 28.166 89.9937 25.2807C90.131 25.2807 90.2684 25.4181 90.4058 25.4181C92.8789 26.3798 93.7033 23.6319 94.3903 22.945C95.0773 22.258 96.5886 23.9067 96.4512 25.8303Z" fill="#F5948D"/>
<path d="M95.0773 38.8827C95.0773 39.1575 95.0772 39.4323 94.9398 39.8445C94.5276 41.3558 93.4285 43.4168 92.4667 43.5541C92.0546 43.5541 91.6423 43.142 91.2301 42.5924C90.818 42.0428 90.4058 41.2184 90.131 40.5315C89.8562 39.8445 89.4441 39.0201 89.3067 38.4705C89.8563 38.0584 90.2684 37.6462 90.818 36.9592C91.9171 35.7227 92.6041 34.2113 92.8789 32.7V32.5626C92.8789 32.4252 93.0164 32.2878 93.0164 32.1504C93.0164 32.2878 93.0163 32.2878 93.1537 32.4252C93.7033 34.2113 94.5277 36.4096 94.8025 37.7836C94.9399 38.3331 95.0773 38.7453 95.0773 38.8827Z" fill="#F1B5AB"/>
<path d="M94.8025 37.7837C93.4285 39.0202 91.3676 40.1194 90.131 40.5316C89.8562 39.8446 89.4441 39.0202 89.3067 38.4707C89.8563 38.0585 90.2684 37.6463 90.818 36.9593C91.9171 35.7228 92.6041 34.2114 92.8789 32.7001V32.5627L93.0164 32.4253C93.7033 34.2114 94.3903 36.4097 94.8025 37.7837Z" fill="#F5948D"/>
<path d="M77.2159 78.4527C76.1168 79.964 70.4836 83.3989 58.805 83.2615C58.805 83.2615 59.0798 82.5745 59.492 81.6128C60.0415 80.2388 60.8659 78.1779 61.4155 77.2161C61.4155 77.2161 64.713 76.3918 68.4226 74.743C73.9184 72.2699 75.4298 70.209 75.7045 70.209C75.8419 70.3464 76.8038 71.0333 77.2159 73.7812C77.2159 74.1934 77.3533 74.6056 77.3533 75.0178C77.4907 77.0787 77.2159 78.4527 77.2159 78.4527Z" fill="#F1B5AB"/>
<path d="M77.2159 78.4528C76.1168 79.9641 70.4836 83.399 58.805 83.2616C58.805 83.2616 59.0798 82.5746 59.492 81.6128C62.3773 81.2007 68.2852 80.5137 70.8957 79.5519C73.3688 78.5902 75.9794 76.3918 77.3533 75.1553C77.4907 77.0788 77.2159 78.4528 77.2159 78.4528Z" fill="#F5948D"/>
<path d="M128.876 79.0026C128.602 79.0026 128.327 79.14 128.052 79.14C126.816 79.4148 125.442 79.9643 124.48 80.2391C124.205 79.0026 123.655 75.8425 122.831 72.8198C121.732 68.9727 121.732 65.5379 121.732 65.5379C123.106 64.4387 124.48 63.8891 125.716 63.6143C126.953 63.2022 127.777 63.2021 127.777 63.2021C129.838 66.9118 129.014 77.079 128.876 79.0026Z" fill="#F1B5AB"/>
<path d="M128.876 79.0021C128.602 79.0021 128.327 79.1395 128.052 79.1395C128.052 76.8038 127.915 73.3689 127.64 71.0332C127.228 68.2853 126.266 64.9878 125.854 63.6138C127.09 63.2017 127.915 63.2017 127.915 63.2017C129.838 66.9113 129.014 77.0785 128.876 79.0021Z" fill="#F5948D"/>
<path d="M93.7033 170.782C93.7033 170.782 92.3293 168.721 89.444 168.995C86.5588 169.27 84.91 172.43 84.91 172.43H93.7033V170.782Z" fill="#D64E27"/>
<path d="M106.069 172.293H112.526L109.091 169.545H107.58L106.069 172.293Z" fill="#D64E27"/>
<path d="M82.437 26.3796C81.8874 26.517 81.8874 24.8683 83.1239 24.1813C84.3605 23.6318 86.4214 24.5935 86.4214 24.5935C86.4214 24.5935 84.91 24.8683 83.9483 25.1431C82.9865 25.5553 82.437 26.3796 82.437 26.3796Z" fill="#E35933"/>
<path d="M104.42 39.8447C100.298 38.0586 96.8634 37.509 95.0773 39.4326L94.8025 39.57C94.2529 38.196 93.2911 35.1733 92.8789 32.7002C93.2911 31.3263 93.2911 30.0897 93.1537 29.4027C93.1537 29.4027 96.3138 27.8914 96.4512 25.8305C96.5886 23.9069 95.0772 22.2582 94.2528 22.8078C93.4285 23.3574 92.6041 26.2427 90.2684 25.2809C87.7953 24.3191 84.7726 19.7851 83.8109 18.1363C83.8109 18.1363 82.4369 21.159 79.4142 23.7695C77.6281 25.2809 76.2541 26.2426 75.4297 26.7922C73.781 27.4792 72.407 27.6166 71.9948 26.9296C71.9948 26.9296 71.9949 26.7922 71.8575 26.7922C71.4453 25.4183 72.2697 20.4721 75.5672 17.0372C78.8646 13.4649 80.9255 11.404 84.3604 11.2666C88.2074 11.2666 93.4285 17.312 96.5886 21.9834C97.2755 22.9452 97.8251 23.7696 98.2373 24.5939C98.3747 24.7313 98.5121 25.0061 98.5121 25.1435C100.023 27.8914 102.084 33.1124 103.458 36.8221C103.733 38.0586 104.145 39.1578 104.42 39.8447Z" fill="#E35933"/>
<path d="M90.5432 41.356C89.9936 41.356 89.1692 41.2186 88.4823 41.4934C87.2457 41.7682 85.8718 42.8673 84.91 45.4779C84.3605 46.9892 83.6735 48.6379 83.1239 50.5615L82.1621 42.73L81.75 39.2951C86.1466 39.7073 87.9327 39.5699 89.444 38.4707L90.5432 41.356Z" fill="#E35933"/>
<path d="M89.8562 65.8122C88.6196 65.5374 87.7953 64.8504 87.2457 63.8887C85.1848 60.3164 87.2457 53.5841 87.3831 53.3093C87.3831 53.1719 87.5206 53.1719 87.5206 53.1719L87.6579 53.3093C87.6579 53.3093 85.597 60.179 87.5206 63.6139C88.0701 64.5757 88.8945 65.1252 89.9936 65.4C90.131 65.4 90.131 65.5374 90.131 65.5374C89.9936 65.8122 89.8562 65.8122 89.8562 65.8122Z" fill="#A6DDEB"/>
<path d="M101.26 63.8886C101.26 63.8886 101.123 63.8886 101.123 63.7512C101.123 63.6139 101.123 63.6138 101.26 63.6138C101.672 63.4764 104.97 61.6903 105.244 57.9806C105.244 57.8432 105.382 57.8433 105.382 57.8433C105.519 57.8433 105.519 57.9806 105.519 57.9806C105.244 62.2399 101.26 63.8886 101.26 63.8886Z" fill="#A6DDEB"/>
<path d="M107.031 55.3702C107.031 55.3702 106.893 55.3702 107.031 55.3702C105.794 54.4084 103.458 50.9735 103.046 49.05C103.046 48.9126 103.046 48.9126 103.184 48.9126C103.321 48.9126 103.321 48.9126 103.321 49.05C103.596 50.8361 105.931 54.271 107.031 55.2327C107.168 55.0954 107.168 55.2328 107.031 55.3702C107.168 55.3702 107.031 55.3702 107.031 55.3702Z" fill="#A6DDEB"/>
<path d="M101.81 104.557C101.672 104.557 101.672 104.42 101.672 104.42L100.573 94.9398C100.573 94.8024 100.573 94.8024 100.71 94.665C100.848 94.665 100.848 94.665 100.985 94.8024L102.084 104.283C101.947 104.42 101.947 104.42 101.81 104.557Z" fill="#732D29"/>
<path d="M94.3903 24.8682C94.6651 24.3186 94.9398 23.9064 94.9398 23.9064V23.769H94.8025C94.8025 23.769 94.1155 24.7308 93.8407 26.2422C93.8407 26.5169 93.8407 26.7917 93.8407 27.2039C93.8407 27.2039 93.8407 27.3413 93.9781 27.3413C93.9781 27.3413 94.1155 27.3413 94.1155 27.2039C94.1155 26.9291 94.1155 26.6543 94.1155 26.3795C94.3903 26.3795 95.0772 26.3795 95.352 25.83C95.352 25.4178 94.6651 25.0056 94.3903 24.8682ZM94.9398 25.83C94.8024 26.1048 94.2528 26.2422 93.9781 26.2422C93.9781 25.83 94.1155 25.4178 94.2529 25.143C94.5277 25.143 95.0772 25.5552 94.9398 25.83Z" fill="#983222"/>
<path d="M81.063 35.3102C80.6508 35.3102 80.376 35.1729 80.376 35.1729C80.376 35.1729 80.376 35.1728 80.376 35.0354C80.376 35.0354 80.376 32.1502 80.1012 30.7762C79.8264 28.9901 79.4142 28.1657 79.4142 28.1657V28.0283H79.5516C79.5516 28.0283 79.9638 28.8527 80.2386 30.6388C80.5134 32.0128 80.5134 34.4859 80.5134 34.8981C80.6508 34.8981 80.9256 35.0354 81.2004 35.0354C81.6125 34.8981 82.0247 34.4859 82.2995 33.7989C82.2995 33.7989 82.4369 33.6615 82.4369 33.7989C82.4369 33.7989 82.5743 33.9363 82.4369 33.9363C82.1622 34.7607 81.6125 35.1728 81.2004 35.3102C81.2004 35.3102 81.2004 35.3102 81.063 35.3102Z" fill="#983222"/>
<path d="M84.3604 36.547C84.223 36.547 84.223 36.547 84.3604 36.547C84.223 36.4096 84.3604 36.4096 84.3604 36.4096C84.3604 36.4096 86.4214 35.9974 87.5206 34.3486H87.6579V34.486C86.5588 36.2722 84.3604 36.547 84.3604 36.547Z" fill="#983222"/>
<path d="M78.4525 30.6389C78.7273 31.3258 78.5899 32.0128 78.3151 32.1502C77.9029 32.2876 77.3534 31.8754 77.216 31.0511C76.9412 30.3641 77.0785 29.6771 77.3533 29.5397C77.7655 29.4023 78.1777 29.8145 78.4525 30.6389Z" fill="#1E1724"/>
<path d="M84.2231 28.4411C84.4978 29.1281 84.3605 29.8151 84.0857 29.9525C83.6735 30.0899 83.2613 29.5403 82.9865 28.8533C82.7117 28.1664 82.8491 27.4794 83.1239 27.342C83.5361 27.2046 83.9483 27.7542 84.2231 28.4411Z" fill="#1E1724"/>
<path d="M79.0021 28.0287C78.5899 27.754 76.9411 27.4792 76.1167 27.8913C75.2924 28.3035 75.155 29.2653 75.7046 29.5401C76.2542 29.6775 76.2542 29.5401 76.9412 28.9905C77.7655 28.3035 79.0021 28.0287 79.0021 28.0287Z" fill="#E35933"/>
<path d="M89.3067 38.4707L90.6806 41.356C90.1311 41.2186 89.4441 41.2186 88.6197 41.356C87.1084 41.4934 84.3605 41.7682 82.1621 42.5925L81.75 39.1577C86.0092 39.7073 87.9327 39.4325 89.3067 38.4707Z" fill="#CF3D28"/>
<path d="M104.42 39.8444C100.298 38.0583 96.8634 37.5087 95.0773 39.4322L94.8025 39.5697C94.2529 38.1957 93.2911 35.173 92.8789 32.6999C93.2911 31.326 93.2911 30.0894 93.1537 29.4024C93.1537 29.4024 96.3138 27.8911 96.4512 25.8302C96.5886 23.9066 95.0772 22.2579 94.2529 22.8075C93.4285 23.3571 92.6042 26.2424 90.2685 25.2806C87.7954 24.3188 84.7726 19.7848 83.8109 18.136C83.8109 18.136 82.4369 21.1587 79.4142 23.7692C77.6281 25.2806 76.2541 26.2423 75.4297 26.7919C73.781 27.4789 72.4071 27.6163 71.9949 26.9293C71.9949 26.9293 71.9949 26.7919 71.8575 26.7919C73.5063 26.2423 76.6663 24.8684 79.4142 22.3953C83.1239 18.9604 83.8109 16.4873 83.8109 16.4873C83.8109 16.4873 88.4823 24.5936 93.2911 22.8075C94.8024 22.2579 95.7642 21.9831 96.5886 21.9831C97.2756 22.9449 97.8252 23.7692 98.2374 24.5936C97.8252 27.0667 97.5504 31.6008 99.3365 33.5243C100.436 34.7608 102.084 35.9974 103.458 36.8218C103.733 38.0583 104.145 39.1575 104.42 39.8444Z" fill="#CF3D28"/>
<path d="M60.4538 80.1012C59.9042 81.2004 59.492 82.4369 59.2172 83.3987C58.805 84.4978 58.6676 85.1848 58.6676 85.1848C58.6676 85.1848 57.0189 85.4596 53.7214 85.1848C50.4239 84.91 47.9508 83.2613 47.9508 83.2613C47.9508 83.2613 45.2029 84.7726 44.7907 84.223C44.3785 83.6735 45.6151 82.7117 45.6151 82.7117C45.0655 82.1621 41.2185 82.9865 41.2185 82.9865C41.2185 82.9865 41.2185 82.8491 41.6306 82.1621C41.768 82.0247 41.9055 81.7499 42.1803 81.3377C43.142 79.9638 46.5769 78.1777 48.7752 78.1777C50.9735 78.1777 52.0726 78.7273 53.4466 78.1777C54.9579 77.6281 61.2781 74.3306 61.9651 75.4298C62.1025 75.842 61.4155 77.6281 60.4538 80.1012Z" fill="#F79738"/>
<path d="M59.0798 83.3983C58.6676 84.4975 58.5302 85.1845 58.5302 85.1845C58.5302 85.1845 56.8815 85.4593 53.584 85.1845C50.2865 84.9097 47.8134 83.2609 47.8134 83.2609C47.8134 83.2609 45.0655 84.7723 44.6533 84.2227C44.2412 83.6731 45.4777 82.7114 45.4777 82.7114C44.9281 82.1618 41.081 82.9862 41.081 82.9862C41.081 82.9862 41.0811 82.8488 41.4933 82.1618C42.3176 81.7496 43.1419 81.3374 43.8289 81.3374C45.6151 81.3374 48.6377 81.3374 48.6377 81.3374C48.6377 81.3374 51.9353 82.8488 53.8588 83.2609C55.2328 83.5357 57.5685 83.3983 59.0798 83.3983Z" fill="#E18726"/>
<path d="M129.701 84.6357C129.014 87.521 128.052 88.7575 128.052 88.7575C128.052 88.7575 128.602 92.1924 128.052 93.8411C127.64 94.8029 127.502 95.2151 127.228 95.2151C127.09 95.2151 126.953 95.0777 126.953 94.9403C126.953 95.0777 127.09 95.902 125.716 96.589C124.342 97.276 123.518 96.8638 123.243 96.4516V96.3142C123.106 95.902 123.793 92.3298 123.655 92.055C123.518 91.9176 121.732 92.8793 121.182 92.7419C121.045 92.7419 121.045 92.6046 121.045 92.6046C120.907 92.055 121.732 90.8184 122.694 89.9941C123.655 89.0323 123.93 88.2079 123.93 88.2079C123.93 88.2079 123.793 86.6966 123.655 84.3609C123.518 82.0252 123.381 80.7886 123.381 80.7886C123.381 80.7886 123.93 80.5138 124.755 80.239C125.854 79.8268 127.64 79.1399 129.014 79.0025C129.701 78.8651 130.388 78.8651 130.8 79.0025C130.8 78.8651 130.525 81.8878 129.701 84.6357Z" fill="#F79738"/>
<path d="M129.701 84.6355C129.014 87.5208 128.052 88.7574 128.052 88.7574C128.052 88.7574 128.602 92.1923 128.052 93.841C127.64 94.8028 127.502 95.2149 127.228 95.2149C127.502 92.8792 127.365 89.1696 127.365 89.1696C127.365 89.1696 127.365 88.2078 128.052 86.0095C128.602 83.9486 128.739 81.7502 128.876 78.7276C129.563 78.5902 130.25 78.5902 130.663 78.7276C130.8 78.865 130.525 81.8876 129.701 84.6355Z" fill="#E18726"/>
<path d="M124.48 91.78C124.48 91.78 124.342 94.2531 123.381 96.4514V96.314C123.243 95.9018 123.93 92.3296 123.793 92.0548C123.655 91.9174 121.869 92.8792 121.32 92.7418C121.182 92.7418 121.182 92.6044 121.182 92.6044C122.144 91.78 123.381 90.5435 123.793 90.5435C124.342 90.6809 124.48 91.78 124.48 91.78Z" fill="#E18726"/>
<path d="M75.4297 113.763H13.1899V118.846H75.4297V113.763Z" fill="#403651"/>
<path d="M18.6857 94.3906H13.1899V100.161H18.6857V94.3906Z" stroke="#9A706F" stroke-width="0.75" stroke-miterlimit="10"/>
<path d="M26.3798 94.3906H20.884V100.161H26.3798V94.3906Z" stroke="#9A706F" stroke-width="0.75" stroke-miterlimit="10"/>
<path d="M63.4764 94.3906H57.9807V100.161H63.4764V94.3906Z" stroke="#9A706F" stroke-width="0.75" stroke-miterlimit="10"/>
<path d="M71.9949 94.3906H66.4991V100.161H71.9949V94.3906Z" stroke="#9A706F" stroke-width="0.75" stroke-miterlimit="10"/>
<path d="M53.7214 94.9399H31.326V100.161H53.7214V94.9399Z" stroke="#9A706F" stroke-width="0.75" stroke-miterlimit="10"/>
<path d="M71.7201 158.279H15.8004L15.1134 123.244H72.5445L71.7201 158.279Z" stroke="#725051" stroke-width="0.75" stroke-miterlimit="10"/>
<path d="M15.8004 73.6438C14.0143 73.6438 10.5794 73.6438 8.79322 73.2316C8.51843 73.2316 8.3811 72.9568 8.5185 72.8194C8.5185 72.5446 8.79327 72.4072 8.93066 72.5446C11.2664 72.9568 16.8996 72.9568 16.8996 72.9568C17.1743 72.9568 17.3117 73.0942 17.3117 73.369C17.3117 73.6438 17.1743 73.7812 16.8996 73.7812C16.7622 73.6438 16.35 73.6438 15.8004 73.6438Z" fill="#52B9CA"/>
<path d="M29.1277 73.781C28.9903 73.781 28.7155 73.6436 28.7155 73.3688C28.7155 73.094 28.8529 72.9566 29.1277 72.9566L32.4252 72.5444C32.7 72.5444 32.8373 72.6818 32.8373 72.9566C32.8373 73.2314 32.7 73.3688 32.4252 73.3688L29.1277 73.781Z" fill="#52B9CA"/>
<path opacity="0.4" d="M59.2172 155.806L56.0571 168.996L55.2328 172.293H27.0668L26.5172 168.996L24.3189 155.806H59.2172Z" fill="#857490"/>
<path d="M78.8646 107.717V107.992C76.2541 107.992 70.7583 107.992 59.492 107.992C48.7752 107.992 32.5626 107.992 8.51849 107.992V107.717C17.4492 107.717 67.3234 107.717 78.8646 107.717Z" fill="#9A706F"/>
<path d="M29.6772 88.0703C29.6772 88.0703 29.1277 85.7346 30.639 84.3607C32.2878 82.9867 33.6617 84.9103 33.6617 84.9103C33.6617 84.9103 33.5243 82.4372 34.3487 82.2998C35.3105 82.1624 35.86 83.6737 35.86 83.6737C35.86 83.6737 35.9974 79.6893 38.3331 79.1397C40.6688 78.5901 43.1419 83.2615 43.1419 83.2615C43.1419 83.2615 43.6916 81.338 44.9281 81.338C46.1647 81.338 46.4394 84.9103 46.4394 84.9103C46.4394 84.9103 47.5386 82.2998 49.8743 83.2615C52.21 84.2233 50.5613 88.2077 50.5613 88.2077L29.6772 88.0703Z" fill="#C6E8F0"/>
<path d="M33.7991 80.2388C35.4479 79.5518 33.9365 76.6665 32.4252 77.903C30.9139 79.277 32.013 80.9257 33.7991 80.2388Z" fill="#C6E8F0"/>
<path d="M39.4323 76.5289C39.4323 75.9794 39.8445 75.7046 40.2567 75.7046C40.8063 75.7046 41.081 76.1168 41.081 76.5289C41.081 77.0785 40.6689 77.3533 40.2567 77.3533C39.7071 77.3533 39.4323 76.9411 39.4323 76.5289Z" fill="#C6E8F0"/>
<path d="M39.9819 83.2617C39.9819 84.2235 39.1575 85.0479 38.1958 85.0479C37.234 85.0479 36.4097 84.2235 36.4097 83.2617C36.4097 82.3 37.234 81.4756 38.1958 81.4756C39.1575 81.4756 39.9819 82.3 39.9819 83.2617Z" fill="#9CD9E7"/>
<path d="M43.6916 85.8718C43.6916 86.5588 43.1419 87.1084 42.455 87.1084C41.768 87.1084 41.2185 86.5588 41.2185 85.8718C41.2185 85.1848 41.768 84.6353 42.455 84.6353C43.0045 84.6353 43.6916 85.1848 43.6916 85.8718Z" fill="#9CD9E7"/>
<path d="M11.6786 74.3306C11.6786 74.3306 13.8768 74.3306 14.976 74.3306C14.976 74.3306 15.5256 84.7726 14.1516 84.7726C12.9151 84.91 11.6786 74.3306 11.6786 74.3306Z" fill="#36A5CC"/>
<path d="M54.8205 154.981L53.0344 177.376H26.3798L25.0059 166.385L24.8684 165.835L24.5936 163.774V163.225L23.6319 155.393H24.3189L32.2878 155.256H32.5626L50.4239 155.118L54.8205 154.981Z" fill="#FFC40C"/>
<path d="M33.6617 177.377H33.2496C32.9748 171.332 32.4252 160.203 32.2878 155.256H32.7C32.8374 160.065 33.387 170.919 33.6617 177.377Z" fill="#45201F"/>
<path d="M22.8075 170.645L20.884 177.926L13.4647 178.476L0 179.575C0 179.575 2.47309 172.018 2.47309 171.606L19.0978 170.919L22.8075 170.645Z" fill="#A6D6B4"/>
<path d="M54.8205 154.981L53.0344 177.376H41.081C44.3785 171.606 48.6378 160.202 50.4239 155.118L54.8205 154.981Z" fill="#F7981D"/>
<path d="M29.2651 177.377H26.3798L25.0059 166.385V165.836L24.7311 163.775L24.5936 163.225L23.6319 155.394H24.3189C25.4181 160.477 28.3033 172.98 29.2651 177.377Z" fill="#F7981D"/>
<path d="M24.8684 166.385L23.4945 165.836C23.4945 165.836 23.3571 165.836 23.3571 165.698V165.561L24.3189 163.363C24.3189 163.225 24.4562 163.225 24.5936 163.225C24.731 163.225 24.7311 163.363 24.7311 163.5L23.7693 165.561L24.7311 165.973L31.0512 155.668C31.0512 155.531 31.1886 155.531 31.326 155.668C31.4634 155.668 31.4634 155.806 31.326 155.943L24.8684 166.523C25.0058 166.385 25.0058 166.385 24.8684 166.385Z" fill="#45201F"/>
<path d="M54.8205 155.119C54.8205 155.393 54.5457 155.806 54.1335 155.806H45.7525H23.7693C23.3571 155.806 23.0823 155.531 23.0823 155.119C23.0823 154.706 23.3571 154.432 23.7693 154.432H46.0273H54.1335C54.5457 154.432 54.8205 154.706 54.8205 155.119Z" fill="#F7981D"/>
<path d="M54.8205 155.119C54.8205 155.394 54.5457 155.806 54.1335 155.806H45.7525L46.1647 154.569H54.271C54.5458 154.432 54.8205 154.707 54.8205 155.119Z" fill="#D68028"/>
<path d="M22.8075 170.645L20.884 177.926L13.4647 178.476L19.0978 170.782L22.8075 170.645Z" fill="#83C392"/>
<path opacity="0.4" d="M16.8996 169.683L23.6319 169.545V172.293H9.20547V170.37L13.4647 169.683L13.602 168.996L21.8457 88.0703H24.7311L16.8996 168.996V169.683Z" fill="#857490"/>
<path d="M28.0285 55.3701L20.0596 117.747L13.1899 172.293H10.7168L17.3117 119.259L25.4181 55.3701H28.0285Z" fill="#563A7F"/>
<path d="M20.0596 117.748L13.1899 172.293H10.7168L17.3117 119.259L20.0596 117.748Z" fill="#3D2B60"/>
<path d="M31.6008 149.76C31.6008 150.86 30.7764 151.684 29.6773 151.684C28.5781 151.684 27.7538 150.86 27.7538 149.76C27.7538 148.661 28.5781 147.837 29.6773 147.837C30.639 147.837 31.6008 148.661 31.6008 149.76Z" fill="#C6E8F0"/>
<path d="M47.5386 144.677C47.5386 146.326 46.1646 147.7 44.5159 147.7C42.8672 147.7 41.4933 146.326 41.4933 144.677C41.4933 143.028 42.8672 141.654 44.5159 141.654C46.1646 141.654 47.5386 143.028 47.5386 144.677Z" fill="#C6E8F0"/>
<path d="M38.8827 151.822C38.8827 152.509 38.3331 153.058 37.6461 153.058C36.9592 153.058 36.4096 152.509 36.4096 151.822C36.4096 151.135 36.9592 150.585 37.6461 150.585C38.3331 150.585 38.8827 151.135 38.8827 151.822Z" fill="#C6E8F0"/>
<path d="M29.2651 154.431C29.2651 154.431 29.6773 152.645 31.0512 152.508C32.4252 152.371 33.7991 153.47 33.7991 153.47C33.7991 153.47 34.7609 152.371 35.86 152.508C36.9592 152.645 37.0966 154.431 37.0966 154.431C37.0966 154.431 41.081 151.546 44.1037 154.431H29.2651Z" fill="#C6E8F0"/>
</svg>
