<svg width="206" height="164" viewBox="0 0 206 164" fill="none" xmlns="http://www.w3.org/2000/svg">
<path d="M7.71697 106.367L6.25945 158.837C6.25945 158.837 5.19944 158.837 4.00693 158.837C2.41692 158.837 0.296894 158.837 0.0318917 158.837C-0.498114 158.837 5.72944 119.484 7.45195 108.884C7.58446 107.294 7.71697 106.367 7.71697 106.367Z" fill="#EA6B24"/>
<path d="M25.4721 158.837H18.3171L16.8595 155.79L17.1245 150.357H23.4846L25.4721 158.837Z" fill="#EA6B24"/>
<path opacity="0.4" d="M7.31945 108.884C7.58445 107.294 7.71695 106.367 7.71695 106.367L6.25943 158.837C6.25943 158.837 5.19942 158.837 4.00691 158.837L7.31945 108.884Z" fill="#845857"/>
<path opacity="0.4" d="M20.9671 158.837H18.3171L16.8595 155.79L17.1245 150.357H19.9071L20.9671 158.837Z" fill="#845857"/>
<path d="M39.7823 158.705H28.5197V150.357H17.1245L16.727 158.837H6.25943L7.71695 106.367H31.6997L39.7823 158.705Z" fill="#F5A42A"/>
<path d="M28.2547 111.932C28.2547 112.329 27.9897 112.594 27.5921 112.594H13.547C13.1495 112.594 12.8845 112.329 12.8845 111.932V110.209C12.8845 109.812 13.1495 109.547 13.547 109.547H27.5921C27.9897 109.547 28.2547 109.812 28.2547 110.209V111.932Z" fill="#EA6B24"/>
<path d="M39.7823 158.705H30.3747L31.0372 106.367H31.6997L39.7823 158.705Z" fill="#F79738"/>
<path d="M9.57196 137.637H33.6872L20.5696 119.749L9.57196 137.637Z" fill="#93D6E8"/>
<path d="M31.1697 136.445H11.957C11.957 136.445 11.8245 136.445 11.8245 136.312C11.8245 136.18 11.8245 136.18 11.8245 136.18L20.7021 121.869L20.8346 121.737H20.9671L31.3022 136.047V136.18C31.3022 136.445 31.1697 136.445 31.1697 136.445ZM12.222 136.18H30.9047L20.8346 122.4L12.222 136.18Z" fill="#9754B1"/>
<path d="M38.3247 157.115C38.3247 157.247 38.1922 157.247 38.3247 157.115C38.1922 157.247 38.1923 157.247 38.1923 157.247H29.7122C29.5797 157.247 29.5797 157.115 29.5797 157.115V149.165H15.5345V157.247C15.5345 157.38 15.402 157.38 15.402 157.38H7.84944H7.71695V157.247L9.43945 106.234H9.70447L7.98195 156.982H15.137V148.9C15.137 148.767 15.2695 148.767 15.2695 148.767H29.7122C29.8447 148.767 29.8447 148.9 29.8447 148.9V156.85H37.9272L30.3747 106.102H30.6397L38.3247 157.115Z" fill="#FFC40C"/>
<path d="M11.5595 111.137C11.5595 111.799 11.2945 112.329 10.897 112.329C10.4995 112.329 10.2345 111.799 10.2345 111.137C10.2345 110.474 10.4995 109.944 10.897 109.944C11.162 109.944 11.5595 110.474 11.5595 111.137Z" fill="#FFC40C"/>
<path d="M30.3747 111.137C30.3747 111.799 30.1097 112.329 29.7122 112.329C29.4472 112.329 29.0497 111.799 29.0497 111.137C29.0497 110.474 29.3147 109.944 29.7122 109.944C30.1097 109.944 30.3747 110.474 30.3747 111.137Z" fill="#FFC40C"/>
<path d="M20.5696 133.132L18.9796 126.772H23.3521L21.6296 133.132H20.5696Z" fill="#942AB4"/>
<path d="M20.4371 134.722C20.4371 134.325 20.8346 133.927 21.2321 133.927C21.6296 133.927 22.0271 134.325 22.0271 134.722C22.0271 135.12 21.6296 135.517 21.2321 135.517C20.7021 135.517 20.4371 135.12 20.4371 134.722Z" fill="#942AB4"/>
<path d="M201.8 136.312L201.402 138.962L198.354 157.38C195.572 158.042 192.922 158.307 190.537 158.44C182.984 158.837 177.684 157.38 177.684 157.38L175.299 137.24L175.167 136.312H201.8Z" fill="#F7981D"/>
<path d="M201.8 136.312L201.402 138.962C199.017 139.36 196.632 139.625 194.247 139.757C185.767 140.022 178.214 138.035 175.167 137.24L175.034 136.312H201.8Z" fill="#DD8426"/>
<path d="M201.8 136.312L201.402 138.962L198.354 157.38C195.572 158.042 192.922 158.307 190.537 158.44C191.332 155.26 193.319 146.515 194.247 139.757C194.379 138.565 194.512 137.372 194.644 136.312H201.8Z" fill="#DD8426"/>
<path d="M187.357 135.12H184.707C184.707 135.12 184.177 132.735 183.779 130.35C183.382 128.097 182.984 125.977 182.852 125.712C182.852 125.712 183.514 126.242 185.104 126.11L186.694 132.47L187.357 135.12Z" fill="#055257"/>
<path d="M187.357 135.12H184.707C184.707 135.12 184.177 132.735 183.779 130.35C184.574 131.012 185.767 132.072 186.694 132.602L187.357 135.12Z" fill="#014245"/>
<path d="M189.609 121.207L188.152 121.472L186.562 121.87L185.767 119.087C186.959 119.219 187.754 118.822 188.284 118.557C188.682 118.292 188.947 118.027 188.947 118.027L189.609 121.207Z" fill="#1DA8B7"/>
<path d="M189.609 121.207L188.152 121.472V118.557C188.549 118.292 188.814 118.027 188.814 118.027L189.609 121.207Z" fill="#055257"/>
<path d="M181.129 135.12H175.299L176.094 128.627H179.142L181.129 135.12Z" fill="#D64E27"/>
<path d="M181.129 135.12H178.479L178.214 128.627H179.142L181.129 135.12Z" fill="#C23827"/>
<path d="M174.637 126.507C174.239 128.627 172.517 129.29 172.384 129.025C172.119 128.76 172.252 128.362 172.782 127.435C173.179 126.772 173.312 125.845 173.312 125.315C173.312 125.05 173.312 124.785 173.312 124.785L174.769 124.917C174.769 125.58 174.769 126.11 174.637 126.507Z" fill="#1DA8B7"/>
<path d="M174.637 126.507C174.239 126.11 173.577 125.712 173.312 125.447C173.312 125.182 173.312 124.917 173.312 124.917L174.769 125.05C174.769 125.58 174.769 126.11 174.637 126.507Z" fill="#055257"/>
<path d="M185.104 126.11L188.814 123.062H193.849L189.477 121.207L186.429 121.869L182.852 125.58C182.984 125.58 183.514 126.375 185.104 126.11Z" fill="#A6D6B4"/>
<path d="M185.634 119.087C185.634 119.087 186.297 118.027 188.682 118.159C188.814 118.159 188.019 119.484 185.634 119.087Z" fill="#A6D6B4"/>
<path d="M174.504 121.869H173.047L172.782 124.785L174.107 125.05L174.504 121.869Z" fill="#5621A5"/>
<path d="M182.984 124.52L180.599 126.11L174.107 125.05V124.652L174.372 121.869H180.864L182.322 123.725L182.984 124.52Z" fill="#2B91BE"/>
<path d="M182.984 124.52L180.599 126.11L174.107 125.05V124.652C175.299 124.652 179.804 124.917 179.804 124.917L182.189 123.857L182.984 124.52Z" fill="#5621A5"/>
<path d="M179.407 125.845V126.905H175.432V125.182L179.407 125.845Z" fill="#1E7EA0"/>
<path d="M179.407 125.845V126.64L175.432 125.58V125.182L179.407 125.845Z" fill="#4C1288"/>
<path d="M179.142 128.627H176.094V126.905H178.744L179.142 128.627Z" fill="#F7981D"/>
<path d="M179.142 128.627H178.082L177.022 126.905H178.744L179.142 128.627Z" fill="#DD8426"/>
<path d="M173.842 122.797L173.709 124.122H173.047L172.384 123.99L172.649 122.532L173.709 122.665L173.842 122.797Z" fill="#D64E27"/>
<path d="M173.842 122.797L173.709 124.122H173.047L173.709 122.665L173.842 122.797Z" fill="#C23827"/>
<path d="M197.56 135.12H187.357L186.694 132.337L185.104 126.11L188.814 122.93H193.982L196.499 131.41L197.56 135.12Z" fill="#1DA8B7"/>
<path d="M197.56 135.12H187.357L186.694 132.337C187.489 132.47 189.742 132.867 191.332 132.867C192.657 132.867 194.909 132.072 196.499 131.542L197.56 135.12Z" fill="#0B9399"/>
<path d="M202.462 135.915C202.462 136.445 202.065 136.71 201.667 136.71H175.299C174.769 136.71 174.504 136.312 174.504 135.915C174.504 135.65 174.637 135.517 174.769 135.385C174.902 135.252 175.167 135.12 175.432 135.12H201.8C202.065 135.12 202.462 135.385 202.462 135.915Z" fill="#FFC40C"/>
<path d="M202.462 135.915C202.462 136.445 202.065 136.71 201.667 136.71H192.127L192.922 134.987H201.535C202.065 135.12 202.462 135.385 202.462 135.915Z" fill="#F7981D"/>
<path d="M188.417 135.12C188.417 135.517 188.284 136.047 188.284 136.842C188.019 139.492 187.622 143.865 187.092 147.177C186.694 149.562 186.164 151.285 185.634 151.285C184.044 151.02 184.707 146.78 184.574 146.515C184.442 146.382 183.249 151.417 181.924 151.285C180.599 151.02 181.792 146.382 181.924 145.985C181.792 146.382 179.804 150.622 178.744 150.092C177.684 149.562 179.539 144.262 179.539 144.13C179.539 143.997 176.889 147.972 175.962 147.575C175.167 147.177 176.094 145.852 176.889 143.202C177.419 141.612 178.612 138.83 179.539 136.975C179.804 136.312 180.202 135.65 180.334 135.252H188.417V135.12Z" fill="#77C7D7"/>
<path d="M205.642 144.66C205.377 144.13 203.655 144.13 202.197 143.865C202.065 143.865 201.932 143.865 201.8 143.732C201.535 143.732 201.402 143.6 201.137 143.6C200.077 143.202 198.752 142.54 197.692 142.275C197.559 142.275 197.427 142.142 197.294 142.142C197.162 142.142 197.029 142.142 196.897 142.142C196.499 142.142 196.234 142.275 195.969 142.54L195.174 140.022L195.042 139.625L194.379 137.505L194.247 137.107L193.584 135.12C193.584 135.12 194.512 134.855 195.307 134.987C195.572 134.987 195.704 135.12 195.969 135.252L196.102 135.385C196.234 135.517 196.499 134.457 197.427 133.795C197.559 133.662 197.692 133.662 197.824 133.53C198.222 133.265 198.752 133.132 199.547 133.132C199.68 133.132 199.812 133.132 199.812 133.132C199.945 133.132 199.945 133.132 200.077 133.132C201.27 133.265 202.197 133.927 202.86 134.855C202.992 134.987 202.992 135.12 203.125 135.252C203.787 136.312 204.45 137.505 204.847 138.83C204.847 138.962 204.98 139.095 204.98 139.227C205.51 140.685 205.642 142.142 205.775 143.335C205.775 143.865 205.775 144.262 205.775 144.527C205.642 144.527 205.642 144.66 205.642 144.66Z" fill="#D64E27"/>
<path d="M205.642 144.925C205.642 144.925 205.642 144.792 205.642 144.66C205.245 143.997 202.727 144.13 201.004 143.6C199.149 142.937 196.632 141.48 195.837 142.54C195.439 143.07 197.824 143.6 199.547 144.262C201.27 144.925 205.51 145.852 205.642 144.925Z" fill="#C23827"/>
<path d="M204.45 158.572L198.354 160.03C198.354 160.03 198.619 161.62 198.619 161.752L204.715 160.56L204.45 158.572Z" fill="#F06080"/>
<path d="M192.127 159.897V161.355L198.62 161.752L198.354 160.03L192.127 159.897Z" fill="#B72D4C"/>
<path d="M198.354 157.512C198.222 157.38 192.127 159.765 192.127 159.765L198.354 160.03L204.45 158.572C204.45 158.572 198.487 157.645 198.354 157.512Z" fill="#ED3455"/>
<path d="M190.537 148.237C188.682 148.502 189.344 142.407 189.477 141.347C189.344 142.275 188.417 147.177 187.224 147.045H187.092C186.032 146.515 187.224 140.95 187.357 140.287C187.224 140.817 185.767 145.455 184.574 145.19C183.382 144.925 184.574 138.962 184.574 138.962C184.574 138.962 182.322 143.997 181.129 143.6C180.334 143.335 181.262 139.227 182.057 136.71C182.322 136.047 182.454 135.385 182.587 134.987H192.127C192.127 135.385 192.127 135.915 192.127 136.71C192.259 140.552 192.127 147.972 190.537 148.237Z" fill="#A6DDEB"/>
<path d="M197.56 142.407C197.427 142.407 197.294 142.275 197.162 142.275C197.029 141.48 196.897 140.817 196.764 140.155C196.764 140.022 196.764 139.89 196.632 139.757C196.499 138.962 196.367 138.167 196.102 137.505C196.102 137.372 195.969 137.24 195.969 137.107C195.704 136.312 195.439 135.65 195.042 134.987C195.307 134.987 195.439 135.12 195.704 135.252C195.969 135.782 196.234 136.445 196.499 137.107C196.499 137.24 196.632 137.372 196.632 137.505C196.764 138.167 197.029 138.962 197.162 139.757C197.162 139.89 197.162 140.022 197.294 140.155C197.294 140.817 197.427 141.48 197.56 142.407C197.56 142.275 197.56 142.275 197.56 142.407Z" fill="#EB5729"/>
<path d="M202.197 143.865C202.065 143.865 201.932 143.865 201.8 143.732C201.535 142.407 201.005 140.95 200.475 139.625C200.475 139.492 200.342 139.36 200.342 139.227C199.944 138.3 199.547 137.372 199.149 136.71C199.149 136.577 199.017 136.445 199.017 136.312C198.354 135.12 197.824 134.06 197.427 133.53C197.559 133.397 197.692 133.397 197.824 133.265C198.222 133.927 198.885 134.987 199.547 136.18C199.547 136.312 199.68 136.445 199.812 136.577C200.21 137.372 200.607 138.3 201.005 139.227C201.005 139.36 201.137 139.492 201.137 139.625C201.402 141.082 201.8 142.407 202.197 143.865Z" fill="#EB5729"/>
<path d="M205.642 144.262C204.98 142.54 204.185 140.817 203.257 139.227C203.125 139.095 203.125 138.962 202.992 138.83C202.33 137.77 201.8 136.71 201.27 135.915C201.137 135.782 201.137 135.65 201.005 135.517C200.342 134.457 199.68 133.53 199.149 132.867C199.282 132.867 199.415 132.867 199.415 132.867C199.547 132.867 199.547 132.867 199.679 132.867C200.21 133.53 200.74 134.325 201.27 135.252C201.402 135.385 201.402 135.517 201.535 135.65C202.065 136.577 202.727 137.637 203.39 138.697C203.522 138.83 203.522 138.962 203.655 139.095C204.317 140.42 204.98 141.745 205.51 142.937C205.642 143.6 205.642 143.997 205.642 144.262Z" fill="#EB5729"/>
<path d="M202.86 134.987C202.462 135.252 202.065 135.385 201.667 135.65C201.535 135.782 201.402 135.782 201.27 135.782C200.74 136.047 200.077 136.312 199.415 136.577C199.282 136.577 199.149 136.71 199.017 136.71C198.222 136.975 197.427 137.107 196.632 137.24C196.499 137.24 196.367 137.24 196.234 137.24C195.572 137.372 194.909 137.372 194.247 137.372L194.114 136.975C194.777 136.975 195.572 136.975 196.234 136.842C196.367 136.842 196.499 136.842 196.632 136.842C197.427 136.71 198.222 136.577 198.885 136.312C199.017 136.312 199.15 136.18 199.282 136.18C199.945 135.915 200.475 135.65 201.005 135.517C201.137 135.385 201.27 135.385 201.402 135.252C201.932 134.987 202.33 134.722 202.595 134.59C202.727 134.722 202.86 134.855 202.86 134.987Z" fill="#EB5729"/>
<path d="M204.715 138.962C204.45 139.095 204.052 139.095 203.655 139.227C203.522 139.227 203.39 139.227 203.257 139.36C202.595 139.492 201.667 139.625 200.872 139.757C200.74 139.757 200.607 139.757 200.475 139.89C199.414 140.022 198.354 140.155 197.294 140.155C197.162 140.155 197.029 140.155 196.897 140.155C196.499 140.155 196.102 140.155 195.704 140.155C195.439 140.155 195.307 140.155 195.042 140.155L194.909 139.757C195.572 139.757 196.102 139.757 196.764 139.757C196.897 139.757 197.029 139.757 197.162 139.757C198.222 139.757 199.282 139.625 200.21 139.492C200.342 139.492 200.475 139.492 200.607 139.492C201.402 139.36 202.197 139.227 202.992 139.095C203.125 139.095 203.257 139.095 203.39 138.962C203.787 138.83 204.185 138.83 204.582 138.697C204.715 138.697 204.715 138.697 204.715 138.962C204.715 138.83 204.715 138.83 204.715 138.962Z" fill="#EB5729"/>
<path d="M105.603 156.717L103.881 156.85H103.616C103.616 156.85 102.026 154.067 98.8459 149.297C95.6659 144.527 93.4133 139.625 90.8958 132.867C88.3783 126.242 91.5583 121.074 91.5583 121.074C91.5583 121.074 88.7758 115.244 86.7883 109.282C84.9333 103.982 81.6207 94.5742 80.8257 92.4542C80.6932 92.1892 80.6932 92.0567 80.6932 92.0567C80.6932 92.0567 79.7657 97.0917 79.1032 100.537C79.1032 100.802 78.9707 101.332 78.9707 101.729C78.1757 106.897 76.1882 121.339 76.1882 121.339C78.5732 127.302 77.3807 133.662 75.3932 138.83C73.2731 143.997 67.0456 155.922 67.0456 155.922H66.9131L65.4556 156.187C65.4556 156.187 67.3106 114.449 67.4431 105.704C67.5756 97.0917 67.5756 78.674 67.5756 78.674L69.2981 72.314C69.2981 72.314 69.2981 72.314 69.2981 72.1815C69.2981 72.049 69.2981 71.9165 69.2981 71.6515C69.2981 71.1215 69.1656 70.1939 69.0331 69.0014C69.0331 68.8689 69.0331 68.7364 69.0331 68.4714C68.6356 64.3639 67.8406 57.3413 67.3106 51.7763C67.1781 49.7887 67.0456 47.9337 66.9131 46.4762C66.7806 45.0187 66.7806 43.5612 66.9131 41.9712C67.0456 39.9836 67.1781 37.8636 67.4431 36.1411C67.9731 32.4311 68.6356 29.6485 68.6356 29.6485C69.9606 29.3835 71.2856 28.986 72.7431 28.721C72.4781 30.311 72.3456 33.0936 72.2131 35.8761C72.0806 37.8636 72.0806 39.9836 71.9481 41.7062C71.8156 44.0912 71.8156 45.9462 71.8156 45.9462L89.1733 45.6812C89.1733 44.2237 89.3058 42.7662 89.4383 41.3087C89.7033 39.3211 89.9683 37.4661 90.3658 35.8761C91.0283 32.9611 91.6908 30.576 92.0883 29.251C93.1483 29.516 94.3409 29.781 95.5334 30.046C95.2684 31.3711 94.8709 33.6236 94.4734 36.1411C94.2084 37.8636 93.9434 39.8511 93.8109 41.7062C93.4133 44.6212 93.1483 47.5362 93.1483 49.5237C93.0158 52.1738 93.1483 57.2088 93.2808 61.7139C93.4133 64.2314 93.5459 66.6164 93.5459 68.2064C93.5459 68.3389 93.5459 68.4714 93.5459 68.6039C93.5459 69.6639 93.6783 70.3264 93.6783 70.3264C93.6783 70.3264 93.6783 70.5914 93.8109 71.1215C93.8109 71.254 93.8109 71.3865 93.8109 71.519C94.7384 78.409 98.8459 110.209 99.5084 117.894C100.171 127.435 105.603 156.717 105.603 156.717Z" fill="#A6DDEB"/>
<path d="M78.8382 101.994C78.0432 107.162 76.0557 121.605 76.0557 121.605C78.4407 127.567 77.2482 133.927 75.2607 139.095C73.1406 144.262 66.9131 156.187 66.9131 156.187H66.7806C68.7681 151.417 74.3331 137.77 75.1282 132.205C76.1882 125.58 75.1282 120.677 75.1282 120.677L78.8382 101.994Z" fill="#66C8CE"/>
<path d="M103.881 156.85H103.616C103.616 156.85 102.026 154.067 98.846 149.297C95.666 144.527 93.4135 139.625 90.8959 132.867C88.3784 126.242 91.5585 121.075 91.5585 121.075C91.5585 121.075 88.7759 115.244 86.7884 109.282C84.9334 103.982 81.6208 94.5743 80.8258 92.4543L80.9583 91.9243L93.546 120.545C92.0885 129.555 95.0035 135.517 96.5935 141.347C97.786 146.117 102.026 153.537 103.881 156.85Z" fill="#66C8CE"/>
<path d="M91.9559 29.781C91.9559 29.9135 91.9559 29.9135 91.8234 30.046C90.8959 32.961 88.9084 39.8511 88.9084 46.3437L71.5507 46.6087C71.5507 46.6087 71.8157 34.021 72.3458 29.3835C73.1408 29.251 73.9358 28.986 74.7308 28.8535C76.9833 28.3235 79.2358 27.7935 80.8258 27.5285C80.8258 28.191 80.9583 28.8535 80.9583 29.1185C81.2233 29.6485 81.7533 30.7085 83.4759 30.4435C85.1984 30.1785 85.7284 29.3835 85.7284 29.251C85.7284 29.251 85.7284 28.8535 85.7284 28.456C85.9934 28.456 88.7759 29.1185 91.9559 29.781Z" fill="#F79738"/>
<path d="M66.9134 40.5137C66.7809 42.6337 66.6483 44.8862 66.7808 47.1388C66.9133 48.5963 67.0459 50.4513 67.1784 52.4388H67.0459C66.3834 52.4388 65.7209 52.3063 65.0583 52.1738C61.7458 51.3788 59.4933 48.9938 59.4933 48.9938C59.3608 41.1762 61.2158 35.0811 61.8783 34.0211C62.8058 32.5636 63.4683 31.6361 67.9734 30.5761C68.1059 30.5761 68.2384 30.5761 68.3709 30.4436C68.3709 30.4436 67.3109 35.0811 66.9134 40.5137Z" fill="#F79738"/>
<path d="M106.001 39.9837C106.001 43.8262 104.676 50.4513 104.676 50.4513C103.219 51.1138 98.846 51.7763 96.3285 52.0413C95.2685 52.1738 94.4735 52.3063 94.4735 52.3063C93.6785 54.8238 93.1484 61.9789 93.0159 62.3764C92.8834 58.5339 92.7509 54.2938 92.7509 51.5113C92.7509 50.9813 92.7509 50.5838 92.7509 50.1863C93.0159 45.1512 94.341 34.4186 95.2685 30.5761C98.846 31.3711 106.001 32.8286 106.001 39.9837Z" fill="#F79738"/>
<path d="M98.9785 42.3687C97.9185 45.5488 96.726 50.5838 96.3285 52.0413C95.2685 52.1738 94.4735 52.3063 94.4735 52.3063C93.6785 54.8239 93.1484 61.9789 93.0159 62.3764C92.8834 58.5339 92.7509 54.2938 92.7509 51.5113C92.7509 51.5113 92.7509 51.5113 92.7509 51.3788C95.931 45.0188 98.9785 42.3687 98.9785 42.3687Z" fill="#E18726"/>
<path d="M67.1783 52.4388C66.3833 52.4388 65.7208 52.3063 65.0583 52.1738C65.0583 51.7763 65.1908 44.2237 66.9133 40.6461C66.7808 42.7662 66.6483 45.0187 66.7808 47.2712C66.7808 48.5962 66.9133 50.4512 67.1783 52.4388Z" fill="#E18726"/>
<path d="M91.9558 29.7811C91.9558 29.9136 91.9558 29.9136 91.8233 30.0461C89.5708 30.8411 86.1258 31.9012 82.5482 31.9012C78.3082 31.9012 75.7906 30.0461 74.7306 28.9861C76.9832 28.4561 79.2357 27.9261 80.8257 27.6611C80.8257 28.3236 80.9582 28.9861 80.9582 29.2511C81.2232 29.7811 81.7532 30.8411 83.4757 30.5761C85.1983 30.3111 85.7283 29.5161 85.7283 29.3836C85.7283 29.3836 85.7283 28.9861 85.7283 28.5886C85.9933 28.4561 88.7758 29.1186 91.9558 29.7811Z" fill="#E18726"/>
<path d="M93.4135 69.399C88.7759 70.459 84.4034 70.724 80.6933 70.724C75.1283 70.724 70.8882 69.929 68.9007 69.5315C68.9007 69.399 68.9007 69.2665 68.9007 69.0015C72.0807 69.664 82.1509 71.3866 93.546 68.7365C93.4135 69.0015 93.4135 69.134 93.4135 69.399Z" fill="#CC4527"/>
<path d="M93.6785 72.4466C91.2934 72.9766 87.1859 73.5066 81.7533 73.6391V89.8042C81.7533 89.9367 81.6208 90.0692 81.4883 90.0692C81.3558 90.0692 81.2233 89.9367 81.2233 89.8042V73.6391C80.8258 73.6391 80.2958 73.6391 79.8983 73.6391C74.2008 73.6391 70.7557 73.1091 69.0332 72.7116C69.0332 72.5791 69.0332 72.4466 69.0332 72.1816C70.7557 72.5791 74.7308 73.2416 81.4883 73.1091C87.0534 72.9766 91.1609 72.4466 93.546 71.9165C93.6785 72.0491 93.6785 72.3141 93.6785 72.4466Z" fill="#CC4527"/>
<path d="M94.6061 15.7359C93.6786 17.9885 91.0285 18.121 91.0285 18.121C91.0285 18.121 91.0286 18.2535 90.8961 18.386C90.4986 19.446 89.1735 23.421 86.2585 25.1435C85.331 25.6735 84.271 26.071 83.0785 25.9385C82.2835 25.9385 81.4885 25.806 80.8259 25.541C76.5859 24.0835 75.2609 18.651 75.2609 18.651H75.1284C73.1409 18.651 72.3459 16.3984 72.3459 14.4109C72.3459 13.8809 72.3459 13.4834 72.4784 13.0859C72.4784 12.8209 72.6109 12.5559 72.7434 12.4234C73.0084 12.0259 73.2734 11.7609 73.5384 11.7609C74.7309 11.8934 74.9959 13.7484 74.9959 14.8084C74.9959 15.0734 74.9959 15.3384 74.9959 15.6034C74.9959 15.6034 74.9959 15.4709 75.1284 15.3384C75.3934 14.2784 76.3209 11.0984 77.1159 9.24336C78.0434 6.99084 78.3084 6.46084 79.2359 6.85834C80.1634 7.25584 86.2585 8.05085 87.3185 7.52085C87.3185 7.52085 88.6435 8.05085 89.4385 9.64087C89.571 10.0384 89.7035 10.3034 89.836 10.7009C90.2335 11.6284 90.4985 12.5559 90.631 13.3509C90.631 13.4834 90.631 13.6159 90.7635 13.7484C90.896 14.5434 91.0285 15.2059 91.0285 15.2059C91.0285 15.2059 91.9561 12.5559 93.0161 12.1584C93.1486 12.1584 93.2811 12.1584 93.4136 12.1584C94.6061 12.4234 95.4011 13.7484 94.6061 15.7359Z" fill="#F1B5AB"/>
<path d="M93.6783 12.2908C93.5458 12.2908 93.4133 12.2908 93.2808 12.2908C92.2208 12.5558 91.2933 15.3384 91.2933 15.3384C91.2933 15.3384 91.0283 13.7483 90.4983 11.8933C90.3658 11.4958 90.2333 11.0983 90.1008 10.7008C89.9683 10.3033 89.8358 9.90581 89.7033 9.64081C88.7758 8.05079 87.5833 7.52078 87.5833 7.52078C86.5232 8.05079 80.4282 7.25578 79.5007 6.85828C78.5732 6.46077 78.3081 6.99078 77.3806 9.2433C76.9831 10.1708 76.5856 11.3633 76.1881 12.5558C75.6581 14.1459 75.2606 15.6034 75.2606 15.6034C75.2606 15.6034 75.2606 15.3384 75.2606 14.8084C75.2606 13.7483 74.9956 11.8933 73.8031 11.7608C73.5381 11.7608 73.2731 12.0258 73.0081 12.4233C72.8756 12.6883 72.7431 13.0858 72.7431 13.0858C72.3456 12.2908 72.8756 10.5683 73.6706 8.7133C73.9356 8.18329 74.2006 7.52079 74.5981 6.99078C75.9231 4.47325 77.5131 3.41324 78.8382 3.81075C78.8382 3.81075 79.7657 0.763216 83.3432 0.100709C86.9207 -0.429296 90.1008 1.16072 92.0883 4.20825C93.0158 5.53327 93.4133 7.12328 93.6783 8.58079C93.6783 10.5683 93.6783 12.2908 93.6783 12.2908Z" fill="#654526"/>
<path d="M66.9133 156.32C66.9133 156.32 63.6008 156.452 59.7583 159.632C59.7583 159.632 65.3233 159.765 67.8408 159.632C67.7083 159.5 67.4433 157.645 66.9133 156.32Z" fill="#3D2958"/>
<path d="M103.351 156.717C103.351 156.717 104.544 155.525 107.194 156.32C109.844 157.115 110.904 159.632 110.904 159.632H103.881L103.351 156.717Z" fill="#3D2958"/>
<path d="M66.5158 69.929C66.5158 70.459 66.6483 70.989 66.7808 71.6516C64.2633 71.1215 58.6982 67.4115 58.6982 67.4115C58.6982 67.4115 58.3007 66.6165 58.0357 64.894C57.9032 63.834 57.7707 62.509 57.7707 60.9189C57.7707 56.6789 58.1682 51.2463 59.4932 48.8613C59.4932 48.8613 61.7458 51.2464 65.0583 52.0414C65.7208 52.1739 66.3833 52.3064 67.0458 52.3064C67.4433 53.8964 66.9133 60.1239 66.7808 60.6539C67.7083 61.0514 68.7683 62.3765 69.1658 62.774C68.6358 63.4365 66.2508 65.5565 66.5158 69.929Z" fill="#F1B5AB"/>
<path d="M71.948 36.6711C71.8155 38.6586 71.8155 40.7786 71.683 42.5011L66.6479 42.7661C66.7804 40.7786 66.9129 38.6586 67.1779 36.9361C68.2379 36.6711 69.9605 36.2736 71.948 36.6711Z" fill="#D64E27"/>
<path d="M94.3408 36.6711C94.0758 38.3937 93.8108 40.3812 93.6783 42.2362C92.4858 42.2362 90.6308 42.1037 89.3058 41.9712C89.5708 39.9837 89.8358 38.1287 90.2333 36.5386C91.2933 36.5386 92.8833 36.5386 94.3408 36.6711Z" fill="#D64E27"/>
<path d="M72.3455 68.339C72.213 68.339 72.0805 68.2065 72.0805 68.2065C71.418 65.159 70.623 51.9089 70.623 51.3789V51.2463L70.7555 51.1138C71.948 51.1138 73.008 51.1138 74.2005 51.1138C82.8131 51.1138 89.3056 50.1863 89.3056 50.1863H89.4382L89.5707 50.3188L90.1007 66.8815C90.1007 67.014 89.9682 67.1465 89.8357 67.1465L72.3455 68.339ZM71.153 51.5113C71.2855 53.3664 71.948 64.7615 72.6105 67.809L89.9682 66.6165L89.4382 50.5838C88.1131 50.7163 82.1506 51.5113 74.4655 51.5113C73.273 51.6439 72.213 51.6439 71.153 51.5113Z" fill="#CC4527"/>
<path d="M94.6062 52.4388C94.4737 52.4388 94.3412 52.3063 94.3412 52.1738C94.4737 51.7763 94.6062 51.2463 94.7387 50.5838C95.4012 47.4037 96.8588 41.7062 98.3163 39.4537C98.4488 39.3212 98.5813 39.3212 98.5813 39.4537C98.7138 39.5862 98.7138 39.7187 98.5813 39.7187C97.1238 41.8387 95.7988 47.5362 95.1362 50.5838C95.0037 51.2463 94.8712 51.9088 94.7387 52.1738C94.7387 52.4388 94.7387 52.4388 94.6062 52.4388Z" fill="#CC4527"/>
<path d="M86.2584 25.1436C86.2584 25.6736 86.1259 26.4686 85.9934 27.2636C85.9934 27.7936 85.8609 28.1911 85.8609 28.5886C85.8609 28.9861 85.8609 29.2511 85.8609 29.3836C85.8609 29.5161 85.3309 30.3111 83.6084 30.5761C81.8859 30.8411 81.3558 29.7811 81.0908 29.2511C80.9583 29.1186 80.9583 28.4561 80.9583 27.6611C80.9583 27.5286 80.9583 27.2636 80.9583 27.1311C80.9583 26.6011 80.9583 25.9386 80.9583 25.6736C81.6209 25.9386 82.4159 26.0711 83.2109 26.0711C84.2709 26.0711 85.3309 25.6736 86.2584 25.1436Z" fill="#F1B5AB"/>
<path d="M86.2584 25.1436C86.2584 25.6736 86.1259 26.4686 85.9934 27.2636C83.4759 28.0586 81.6208 27.5286 80.8258 27.1311C80.8258 26.6011 80.8258 25.9386 80.8258 25.6736C81.4883 25.9386 82.2833 26.0711 83.0784 26.0711C84.2709 26.0711 85.3309 25.6736 86.2584 25.1436Z" fill="#F5948D"/>
<path d="M75.1284 18.651C73.1409 18.651 72.3459 16.3985 72.3459 14.411C72.3459 13.881 72.3459 13.4835 72.4784 13.086C72.4784 12.821 72.6109 12.556 72.7434 12.4235C73.0084 12.026 73.2734 11.7609 73.5384 11.7609C74.7309 11.8935 74.9959 13.7485 74.9959 14.8085C74.9959 15.0735 74.9959 15.3385 74.9959 15.6035C74.9959 15.6035 74.9959 15.471 75.1284 15.3385C74.9959 16.3985 74.9959 17.591 75.1284 18.651Z" fill="#F5948D"/>
<path d="M94.606 15.7359C93.6784 17.9884 91.0284 18.1209 91.0284 18.1209C91.0284 18.1209 91.0284 18.2534 90.8959 18.3859C91.1609 16.3984 91.0284 14.6758 90.7634 13.8808C90.8959 14.6758 91.0284 15.3384 91.0284 15.3384C91.0284 15.3384 91.9559 12.6883 93.0159 12.2908C93.1484 12.2908 93.281 12.2908 93.4135 12.2908C94.606 12.4233 95.401 13.7483 94.606 15.7359Z" fill="#F5948D"/>
<path d="M66.7808 60.7864C65.8533 60.7864 65.3233 61.1839 65.3233 61.1839C65.5883 59.7264 65.1908 54.5589 65.0583 52.1739C65.7208 52.3064 66.3833 52.4389 67.0458 52.4389C67.4433 53.8964 66.9133 60.1239 66.7808 60.7864Z" fill="#F5948D"/>
<path d="M66.6485 71.5191C64.1309 70.989 58.5659 67.279 58.5659 67.279C58.5659 67.279 58.1684 66.484 57.9034 64.7615C59.2284 65.954 62.6734 68.7365 66.251 69.7965C66.516 70.459 66.516 70.989 66.6485 71.5191Z" fill="#F5948D"/>
<path d="M104.676 50.4513C104.543 51.5113 103.881 55.6188 102.423 60.2564C100.701 65.5564 99.1109 69.7965 99.1109 69.7965C99.1109 69.7965 99.1109 71.3865 96.9909 76.6865C95.6659 80.2641 94.3408 82.3841 93.6783 83.4441C93.5458 82.9141 93.2808 81.4566 92.2208 79.0716C91.4258 77.349 90.4983 76.4215 89.7033 75.8915C89.3058 75.6265 88.9083 75.494 88.6433 75.3615C89.8358 72.1815 92.7508 67.9414 92.7508 67.9414C92.7508 67.9414 92.8833 65.8214 93.1483 62.2439C93.1483 61.8464 93.8108 54.6913 94.6058 52.1738C94.6058 52.1738 95.4009 52.0413 96.4609 51.9088C98.9784 51.7763 103.218 51.1138 104.676 50.4513Z" fill="#F1B5AB"/>
<path d="M96.4609 52.0413C95.4009 56.4138 93.8108 65.4239 93.6783 69.134L89.7033 76.024C89.3058 75.759 88.9083 75.6265 88.6433 75.494C89.8358 72.314 92.7508 68.0739 92.7508 68.0739C92.7508 68.0739 92.8833 65.9539 93.1483 62.3764C93.1483 61.9789 93.8108 54.8238 94.6058 52.3063C94.6058 52.3063 95.2684 52.1738 96.4609 52.0413Z" fill="#F5948D"/>
<path d="M80.4284 14.8084C80.4284 15.4709 80.2959 16.0009 80.0309 16.0009C79.7659 16.0009 79.6335 15.4709 79.6335 14.8084C79.6335 14.1458 79.7659 13.6158 80.0309 13.6158C80.1634 13.6158 80.4284 14.1458 80.4284 14.8084Z" fill="#1E1724"/>
<path d="M87.8487 14.8084C87.8487 15.4709 87.7162 16.0009 87.4512 16.0009C87.1862 16.0009 87.0536 15.4709 87.0536 14.8084C87.0536 14.1458 87.1862 13.6158 87.4512 13.6158C87.7162 13.6158 87.8487 14.1458 87.8487 14.8084Z" fill="#1E1724"/>
<path d="M84.9331 19.5785C84.5356 19.5785 84.1381 19.5785 83.6081 19.446L83.4756 19.3135L83.6081 19.181C85.1981 19.446 86.1256 19.181 86.3906 19.0485C85.0656 17.326 84.8006 14.0135 84.8006 13.7485C84.8006 13.7485 84.8006 13.616 84.9331 13.616C84.9331 13.616 85.0656 13.616 85.0656 13.7485C85.0656 13.7485 85.3306 17.4585 86.6556 18.916C86.6556 18.916 86.6556 18.916 86.6556 19.0485C86.6556 19.0485 86.6556 19.0485 86.6556 19.181C86.5231 19.181 86.1256 19.5785 84.9331 19.5785Z" fill="#983222"/>
<path d="M91.8232 16.6635C91.6907 16.6635 91.6907 16.531 91.6907 16.531C91.9557 15.0735 93.1482 13.4835 93.1482 13.4835H93.2807V13.616C93.4132 13.616 92.2207 15.206 91.8232 16.6635C91.9557 16.6635 91.8232 16.6635 91.8232 16.6635Z" fill="#983222"/>
<path d="M74.2005 16.9285C74.068 16.9285 74.068 16.796 74.2005 16.9285C74.2005 15.206 73.4055 13.2185 73.4055 13.2185V13.086H73.538C73.538 13.086 74.333 15.0735 74.2005 16.9285C74.2005 16.796 74.2005 16.9285 74.2005 16.9285Z" fill="#983222"/>
<path d="M73.6705 15.8685C73.538 15.8685 73.538 15.8685 73.4055 15.736C73.4055 15.736 73.273 15.6035 73.273 15.471C73.273 14.941 73.803 14.676 73.803 14.5435H73.9355V14.676C73.9355 14.676 73.4055 14.941 73.4055 15.3385C73.4055 15.471 73.4055 15.471 73.4055 15.471C73.538 15.471 73.803 15.471 73.9355 15.471H74.068V15.6035C74.068 15.8685 73.9355 15.8685 73.6705 15.8685Z" fill="#983222"/>
<path d="M92.6182 16.001C92.3532 16.001 92.0882 15.8685 92.0882 15.8685C92.0882 15.8685 91.9557 15.736 92.0882 15.736C92.0882 15.736 92.2207 15.6035 92.2207 15.736C92.3532 15.736 92.7507 15.8685 92.8832 15.736C93.0157 15.6035 92.7507 15.206 92.4857 14.941V14.8085H92.6182C92.7507 14.941 93.2807 15.6035 93.0157 15.8685C92.8832 16.001 92.7507 16.001 92.6182 16.001Z" fill="#983222"/>
<path d="M77.513 12.5558C77.513 12.5558 77.5131 12.5558 77.6456 12.4233C77.7781 12.2908 77.9105 12.2908 78.043 12.1583C78.1755 12.0258 78.4405 12.0258 78.7055 11.8933C78.8381 11.8933 78.9706 11.7608 79.1031 11.7608C79.2356 11.7608 79.3681 11.6283 79.5006 11.6283C79.6331 11.6283 79.7656 11.6283 79.8981 11.6283C80.0306 11.6283 80.1631 11.6283 80.2956 11.6283C80.5606 11.6283 80.8256 11.6283 80.9581 11.6283C81.3556 11.7608 81.6206 11.7608 81.6206 11.7608C81.7531 11.7608 81.7531 11.8933 81.7531 12.0258C81.7531 12.1583 81.6206 12.1583 81.6206 12.1583C81.6206 12.1583 81.3556 12.1583 80.9581 12.1583C80.8256 12.1583 80.5606 12.1583 80.2956 12.1583C80.1631 12.1583 80.0306 12.1583 79.8981 12.1583C79.7656 12.1583 79.6331 12.1583 79.5006 12.1583C79.3681 12.1583 79.2356 12.1583 79.1031 12.2908C78.9706 12.2908 78.8381 12.2908 78.7055 12.4233C78.4405 12.5558 78.308 12.5558 78.043 12.5558C77.9105 12.5558 77.6456 12.6883 77.6456 12.6883C77.5131 12.6883 77.513 12.6883 77.513 12.6883C77.3805 12.6883 77.3805 12.6883 77.248 12.5558C77.513 12.6883 77.513 12.6883 77.513 12.5558Z" fill="#51351B"/>
<path d="M85.1985 12.1585C85.1985 12.1585 85.1985 12.1585 85.331 12.026L85.4635 11.8935C85.4635 11.8935 85.596 11.7609 85.7285 11.7609C85.861 11.6284 86.126 11.4959 86.391 11.3634C86.5235 11.3634 86.656 11.2309 86.7885 11.2309C86.921 11.2309 87.0535 11.0984 87.186 11.0984C87.3185 11.0984 87.451 11.0984 87.5835 11.0984C87.716 11.0984 87.8485 11.0984 87.981 11.0984C88.1135 11.0984 88.246 11.0984 88.3785 11.0984C88.511 11.0984 88.6435 11.0984 88.776 11.2309C89.1735 11.3634 89.4385 11.4959 89.4385 11.4959C89.571 11.4959 89.571 11.6284 89.571 11.7609L89.4385 11.8935C89.4385 11.8935 89.1735 11.8935 88.776 11.8935C88.6435 11.8935 88.511 11.8935 88.511 11.8935C88.3785 11.8935 88.246 11.8935 88.1135 11.8935C87.981 11.8935 87.8485 11.8935 87.716 11.8935C87.5835 11.8935 87.451 11.8935 87.3185 11.8935C87.0535 11.8935 86.7885 12.026 86.5235 12.026C86.2585 12.1585 86.126 12.1585 85.861 12.291C85.7285 12.291 85.7285 12.4235 85.596 12.4235C85.4635 12.4235 85.4635 12.4235 85.331 12.556C85.1985 12.556 85.1985 12.556 85.1985 12.556C85.066 12.556 85.066 12.556 84.9335 12.4235C85.066 12.291 85.1985 12.291 85.1985 12.1585Z" fill="#51351B"/>
<path d="M87.716 20.2409C87.716 20.2409 87.5835 20.9034 87.186 21.5659C86.656 22.8909 85.4635 24.4809 83.6085 24.6134C81.886 24.6134 80.826 23.4209 80.296 22.3609C79.766 21.5659 79.6335 20.7709 79.6335 20.7709C79.766 20.7709 85.1985 21.1684 87.716 20.2409Z" fill="#AA2423"/>
<path d="M87.716 20.2409C87.716 20.2409 87.5835 20.9034 87.186 21.5659C84.4035 22.6259 81.621 22.4934 80.296 22.3609C79.766 21.5659 79.6335 20.7709 79.6335 20.7709C79.766 20.7709 85.1985 21.1684 87.716 20.2409Z" fill="white"/>
<path d="M78.043 76.1566C77.3805 76.1566 76.453 76.024 75.2605 75.0965V74.964C75.2605 74.964 75.393 74.8315 75.393 74.964C77.6455 76.4216 78.9706 75.759 78.9706 75.759H79.103V75.8915C78.9705 76.024 78.7055 76.1566 78.043 76.1566Z" fill="#983222"/>
<path d="M83.0786 83.3117C83.3436 83.3117 83.6086 83.3117 84.0061 83.4442C83.6086 83.5767 83.3436 83.4442 83.0786 83.3117Z" fill="#761815"/>
<path d="M75.9235 12.4234C75.3935 14.0134 74.996 15.471 74.996 15.471C74.996 15.471 74.996 15.206 74.996 14.6759C74.996 13.6159 74.731 11.7609 73.5385 11.6284C73.2735 11.6284 73.0085 11.8934 72.7435 12.2909C72.611 12.5559 72.4785 12.9534 72.4785 12.9534C72.081 12.1584 72.611 10.4359 73.406 8.58088C73.8035 9.6409 74.466 11.2309 75.9235 12.4234Z" fill="#4F331B"/>
<path d="M93.6782 12.2909C93.5457 12.2909 93.4132 12.2909 93.2807 12.2909C92.2207 12.5559 91.2932 15.3385 91.2932 15.3385C91.2932 15.3385 91.0282 13.7484 90.4982 11.8934C91.8232 10.8334 92.7507 9.6409 93.5457 8.58088C93.6782 10.5684 93.6782 12.2909 93.6782 12.2909Z" fill="#4F331B"/>
<path d="M85.3306 161.355C85.3306 161.355 85.4631 161.355 85.3306 161.355C85.3306 161.222 85.1981 161.09 85.1981 161.09C85.3306 161.222 85.3306 161.222 85.3306 161.355Z" fill="#B75349"/>
<path d="M85.3309 161.355C85.3309 161.222 85.331 161.222 85.1985 161.09C84.9335 160.295 84.2709 159.5 83.7409 159.632C82.9459 159.897 84.1384 163.077 85.0659 162.547C85.1984 162.415 85.1984 162.415 85.3309 162.282C85.4634 162.017 85.4634 161.752 85.3309 161.355Z" fill="#1DA8B7"/>
<path d="M98.7134 160.825C98.7134 160.692 98.5809 160.56 98.5809 160.56C98.5809 160.56 98.7134 160.692 98.7134 160.825Z" fill="#732723"/>
<path d="M102.556 160.56C102.556 160.295 102.423 160.162 102.423 160.162C102.423 160.162 102.556 160.295 102.556 160.56Z" fill="#732723"/>
<path d="M103.351 157.247V158.97C103.351 158.97 103.351 158.97 103.219 158.97H103.086C101.364 158.705 95.1362 159.765 90.4987 160.427C88.1137 160.825 86.1261 161.222 85.3311 161.355C85.3311 161.222 85.1986 161.09 85.1986 161.09C84.9336 160.295 84.2711 159.5 83.7411 159.632C85.0661 159.235 86.3911 158.837 87.7162 158.44C96.1962 156.452 103.351 157.247 103.351 157.247Z" fill="#A6D6B4"/>
<path d="M85.4631 162.282C85.4631 162.415 85.3306 162.547 85.1981 162.547C85.3306 162.547 85.3306 162.415 85.4631 162.282Z" fill="#732723"/>
<path d="M90.4987 160.427C88.1137 160.825 86.1261 161.222 85.3311 161.355C85.3311 161.222 85.1986 161.09 85.1986 161.09C84.9336 160.295 84.2711 159.5 83.7411 159.632C85.0661 159.235 86.3911 158.837 87.7162 158.44C88.6437 159.102 89.7037 159.897 90.4987 160.427Z" fill="#63C4BA"/>
<path d="M93.6786 158.44C93.2811 158.44 92.8836 158.175 92.8836 157.91L85.066 114.582L75.6584 62.5089C75.6584 62.1114 75.7909 61.7139 76.1884 61.7139C76.5859 61.7139 76.9834 61.8464 76.9834 62.2439L86.921 116.967L94.3411 157.645C94.3411 158.042 94.0761 158.44 93.6786 158.44Z" fill="#D0918E"/>
<path d="M93.6786 158.44C93.2811 158.44 92.8836 158.175 92.8836 157.91L85.066 114.582C85.596 115.244 86.2585 116.039 86.921 116.834L94.3411 157.512C94.3411 158.042 94.0761 158.44 93.6786 158.44Z" fill="#B97B7B"/>
<path d="M103.616 161.09C103.086 161.487 102.689 160.957 102.556 160.56C102.556 160.427 102.424 160.295 102.424 160.162C102.424 160.162 102.424 160.295 102.556 160.56C102.556 160.692 102.556 160.957 102.424 161.09C102.026 161.62 100.039 160.56 100.039 160.56C100.039 160.56 100.039 161.09 99.5085 161.355C99.111 161.62 98.846 161.09 98.581 160.692C98.581 160.56 98.4485 160.427 98.4485 160.427C98.4485 160.427 98.4485 160.56 98.581 160.692C98.7135 160.957 98.7135 161.355 97.786 161.62C96.461 162.017 95.7985 161.222 95.7985 161.222C95.7985 161.222 95.666 161.752 94.7385 162.017C93.811 162.282 92.8835 161.222 92.8835 161.222C92.8835 161.222 92.8835 161.752 92.486 162.15C92.3535 162.282 92.2209 162.282 92.0884 162.415C91.4259 162.68 90.3659 161.885 90.2334 161.885C90.2334 161.885 90.3659 162.282 88.9084 162.68C87.3184 163.077 86.2584 162.415 86.2584 162.415C85.4634 163.077 84.8009 162.415 84.8009 162.415C84.9334 162.415 84.9334 162.282 85.0659 162.15C85.1984 161.885 85.1984 161.487 85.0659 161.222C85.9934 161.09 88.1134 160.692 90.7634 160.162C95.401 159.367 101.231 158.572 102.821 158.705H102.954H103.086C103.351 158.97 104.411 160.56 103.616 161.09Z" fill="#FFC40C"/>
<path d="M92.6184 162.415C92.4859 162.547 92.3535 162.547 92.221 162.68C91.5584 162.945 90.4984 162.15 90.3659 162.15C90.3659 162.15 90.4984 162.547 89.0409 162.945C87.4509 163.342 86.3909 162.68 86.3909 162.68C85.5959 163.342 84.9334 162.68 84.9334 162.68C85.0659 162.68 85.0659 162.547 85.1984 162.415C85.3309 162.15 85.3309 161.752 85.1984 161.487C86.1259 161.355 88.2459 160.957 90.8959 160.427C91.5584 161.09 92.0884 161.752 92.6184 162.415Z" fill="#F7981D"/>
<path d="M80.1635 71.3864C80.0309 71.5189 79.8985 71.5189 79.8985 71.5189C79.8985 71.5189 79.8984 71.6514 80.0309 71.6514C80.5609 72.5789 80.0309 73.6389 79.7659 73.7714C79.7659 73.7714 79.766 73.9039 79.8985 73.9039C80.031 74.1689 80.0309 74.3014 80.0309 74.5665C80.0309 75.3615 79.2359 75.6265 79.1034 75.759C78.9709 75.759 78.9709 77.084 76.9834 76.9515C74.8634 76.819 72.4784 74.0365 72.4784 74.0365C70.2258 72.8439 66.7808 71.5189 66.7808 71.5189C66.6483 70.9889 66.6483 70.4589 66.5158 69.9289C66.2508 65.5564 68.6358 63.3038 69.1658 62.7738L69.2983 62.6413L74.2009 66.4839C77.7784 63.5688 79.1034 64.3639 80.1635 65.9539C80.9585 67.1464 80.4285 69.0014 80.296 69.5314C80.296 69.6639 80.1635 69.6639 80.1635 69.7964C80.561 70.7239 80.4285 71.2539 80.1635 71.3864Z" fill="#F7981D"/>
<path d="M79.7659 74.169C79.5009 74.3015 78.9709 74.434 78.3084 74.434C77.3809 74.434 76.1884 74.169 75.1284 73.1089V72.9764H75.2609C77.2484 74.699 79.1034 74.1689 79.7659 73.9039C79.7659 74.0364 79.7659 74.0365 79.7659 74.169Z" fill="#983222"/>
<path d="M79.8985 71.5189C79.8985 71.6514 80.031 71.6514 79.8985 71.5189C79.8985 71.6514 79.7659 71.6514 79.5009 71.6514C78.8384 71.6514 77.7784 71.3864 76.3209 70.1939V70.0614H76.4534C78.3084 71.6514 79.6334 71.5189 80.0309 71.3864C80.0309 71.5189 79.8985 71.5189 79.8985 71.5189Z" fill="#983222"/>
<path d="M80.1635 69.6639C80.1635 69.7964 80.0309 69.7964 80.0309 69.9289C79.5009 69.7964 78.3084 68.7364 77.6459 67.4114V67.2789H77.7784C78.5734 68.7364 79.7659 69.6639 80.1635 69.6639Z" fill="#983222"/>
<path d="M79.8984 74.699C79.8984 75.494 79.1034 75.759 78.9709 75.8915C78.8384 75.8915 78.8384 77.2165 76.8509 77.084C74.7309 76.9515 72.3459 74.169 72.3459 74.169C70.0934 72.9764 66.6483 71.6514 66.6483 71.6514C66.5158 71.1214 66.5158 70.5914 66.3833 70.0614C68.2383 71.1214 75.5259 75.8915 79.8984 74.699Z" fill="#DD8426"/>
<path d="M93.8108 83.8417C93.8108 83.8417 93.4133 84.3717 92.6183 85.4317C92.4858 85.5642 92.3533 85.6967 92.2208 85.8292C91.6908 86.4917 91.0283 87.2867 90.2333 88.3467C87.8482 91.1292 85.5957 93.9118 83.3432 94.5743C81.6207 95.1043 80.2957 94.7068 80.2957 94.0443C80.2957 93.9118 80.2957 93.6468 80.4282 93.5143C80.4282 93.5143 80.4282 93.3818 80.5607 93.3818C80.5607 93.3818 80.4282 93.3818 80.4282 93.2493C80.0307 93.1168 79.2356 92.4543 79.5006 91.3943L79.3681 91.2618C78.9706 90.8643 78.3081 89.9367 78.7056 89.0092V88.8767C78.7056 88.8767 78.7056 88.8767 78.5731 88.7442C78.3081 88.3467 77.5131 87.2867 78.1756 86.2267C78.9706 85.0342 80.5607 83.4442 83.0782 83.4442C83.3432 83.4442 83.6082 83.4442 84.0057 83.5767C84.0057 83.5767 86.2582 79.6016 87.1857 78.0116V77.8791C87.3182 77.7466 87.3182 77.6141 87.4507 77.4816C88.1132 76.2891 88.3782 75.4941 88.3782 75.4941C88.5107 75.4941 88.6432 75.4941 88.7757 75.6266C89.0407 75.7591 89.4382 75.8916 89.9682 76.2891C90.6308 76.8191 91.5583 77.7466 92.3533 79.3366C93.4133 81.5892 93.8108 83.0467 93.8108 83.5767C93.8108 83.5767 93.8108 83.5767 93.8108 83.7092V83.8417Z" fill="#F7981D"/>
<path d="M81.3557 87.2867C81.3557 87.2867 81.3557 87.4192 81.2232 87.4192C80.1632 87.6842 78.9706 88.4792 78.4406 88.8767V88.7442C78.4406 88.7442 78.4407 88.7442 78.3082 88.6117C78.9707 88.0817 80.0307 87.4192 81.0907 87.1542C81.3557 87.2867 81.3557 87.2867 81.3557 87.2867Z" fill="#983222"/>
<path d="M82.5482 89.5392C82.5482 89.6717 82.4157 89.6717 82.5482 89.5392C80.9582 89.8042 79.8982 90.8643 79.3681 91.3943L79.2357 91.2618C79.7657 90.5993 80.8257 89.6717 82.5482 89.5392C82.4157 89.4067 82.5482 89.5392 82.5482 89.5392Z" fill="#983222"/>
<path d="M82.8132 92.3218C81.7532 93.2493 80.9582 93.3818 80.4282 93.5143C80.4282 93.5143 80.4282 93.3818 80.5607 93.3818C80.5607 93.3818 80.4282 93.3818 80.4282 93.2493C80.9582 93.2493 81.7532 92.9843 82.8132 92.1893H82.9457C82.8132 92.1893 82.8132 92.3218 82.8132 92.3218Z" fill="#983222"/>
<path d="M89.8358 76.0241C88.5107 77.7466 84.8007 83.0467 83.8732 83.4442C83.8732 83.4442 86.1257 79.4691 87.0532 77.8791V77.7466C87.1857 77.6141 87.1857 77.4816 87.3182 77.3491C87.9807 76.1566 88.2457 75.3616 88.2457 75.3616C88.3782 75.3616 88.5107 75.3616 88.6432 75.4941C89.0407 75.4941 89.4383 75.7591 89.8358 76.0241Z" fill="#DD8426"/>
<path d="M93.8108 83.8417C93.8108 83.8417 93.4133 84.3717 92.6183 85.4317C92.4858 85.5642 92.3533 85.6967 92.2208 85.8292C91.6908 86.4917 91.0283 87.2867 90.2333 88.3467C87.8482 91.1292 85.5957 93.9118 83.3432 94.5743C81.6207 95.1043 80.2957 94.7068 80.2957 94.0443C81.2232 93.7793 82.2832 93.3818 83.8732 92.8518C87.7157 91.5267 92.2208 85.6967 93.8108 83.4442C93.8108 83.4442 93.8108 83.4442 93.8108 83.5767C93.8108 83.7092 93.8108 83.8417 93.8108 83.8417Z" fill="#DD8426"/>
<path d="M153.569 114.582C153.171 114.714 151.979 114.847 150.389 115.112C148.004 115.377 144.426 115.642 140.584 115.907C137.006 116.039 133.164 116.172 129.851 116.172C129.586 116.172 129.321 116.172 129.056 116.172C126.009 116.039 123.624 115.907 121.901 115.774C121.239 115.774 120.576 115.642 120.046 115.642C118.058 115.509 117.263 115.244 117.263 115.244C116.866 113.124 120.974 87.6841 122.299 83.1791C123.624 78.6741 128.394 72.049 128.394 72.049C128.394 71.3865 128.526 70.5915 128.526 69.7965C128.791 67.8089 129.056 65.4239 129.321 63.3039C129.851 59.5939 130.381 56.5463 130.381 56.5463C138.994 56.8113 142.969 55.7513 142.969 55.7513C142.969 55.7513 143.366 56.5463 143.896 57.7388C144.559 59.3289 145.486 61.5814 145.354 62.2439C145.089 63.0389 144.029 64.3639 143.499 65.0264C143.234 65.2914 143.101 65.4239 143.101 65.4239C143.234 67.2789 145.619 83.4441 147.474 89.8042C149.329 95.8992 153.569 114.582 153.569 114.582Z" fill="#A6DDEB"/>
<path d="M145.354 62.1115C145.089 62.9065 144.029 64.2315 143.499 64.894C140.982 65.689 140.717 64.894 140.717 64.894C144.162 63.9665 144.029 58.6664 144.029 57.4739C144.692 59.1964 145.619 61.3165 145.354 62.1115Z" fill="#66C8CE"/>
<path d="M134.356 64.8939C134.356 64.8939 132.369 67.2789 129.984 66.2189C129.984 66.2189 129.719 72.4465 129.321 73.639C128.924 74.8315 124.949 82.2516 122.829 94.8392C121.239 104.114 120.444 111.932 120.179 115.509C118.191 115.377 117.396 115.112 117.396 115.112C116.999 112.992 121.106 87.5516 122.431 83.0466C123.756 78.5415 128.526 71.9165 128.526 71.9165C128.526 71.254 128.659 70.4589 128.659 69.6639C128.924 67.6764 129.189 65.2914 129.454 63.1714C130.381 63.9664 131.971 65.1589 134.356 64.8939Z" fill="#66C8CE"/>
<path d="M123.756 80.2641C123.756 80.2641 123.359 81.8542 122.829 81.9867C122.299 82.1192 119.251 79.0716 115.409 75.2291C111.566 71.3865 108.121 66.219 108.121 66.219C108.916 63.1715 116.601 54.1614 116.601 54.1614C116.601 54.1614 118.456 55.0889 120.046 57.0764C120.444 57.4739 120.709 57.8714 120.974 58.2689C122.034 59.7264 122.166 60.7864 122.166 60.7864C120.311 63.304 116.601 65.8215 116.601 65.8215C116.601 65.8215 119.251 70.459 120.709 73.2416C120.709 73.3741 120.841 73.5066 120.841 73.5066C122.299 76.4216 123.756 80.2641 123.756 80.2641Z" fill="#F1B5AB"/>
<path d="M143.102 55.4864C143.102 55.4864 142.307 55.7514 140.849 55.8839C140.717 55.8839 140.584 55.8839 140.452 55.8839C138.729 56.1489 136.079 56.2814 132.369 56.2814C132.237 56.2814 132.104 56.2814 131.972 56.2814C131.574 56.2814 131.044 56.2814 130.647 56.2814C130.647 56.2814 130.117 59.4614 129.587 63.0389C129.322 64.894 129.057 67.014 128.792 68.869C128.792 69.134 128.792 69.2665 128.659 69.5315C128.659 69.399 128.527 69.2665 128.527 69.134C127.467 64.7615 125.612 56.6789 125.612 56.6789C124.684 58.0039 121.901 60.6539 121.901 60.6539C121.901 60.6539 121.504 59.7264 120.841 58.5339C120.576 58.0039 120.179 57.4739 119.781 56.9439C118.589 55.4864 116.204 54.2938 116.204 54.2938C116.601 53.7638 121.901 46.6088 124.419 45.1513C125.612 44.4887 126.937 43.6937 128.262 43.1637C128.394 43.0312 128.527 43.0312 128.659 43.0312C130.117 42.3687 131.574 41.8387 132.369 41.7062C132.369 41.7062 134.754 41.8387 135.814 42.1037C136.212 42.2362 136.609 42.2362 137.007 42.5012C137.139 42.5012 137.404 42.6337 137.537 42.7662C138.332 43.0312 138.994 43.5612 139.524 44.3562C140.319 45.8138 140.982 45.9463 140.982 48.0663C141.512 50.0538 143.102 55.4864 143.102 55.4864Z" fill="#7544AA"/>
<path d="M132.369 56.4138C132.369 56.5463 132.236 56.5463 132.236 56.6788C132.104 56.6788 132.104 56.5463 131.971 56.5463L128.659 43.4287C128.791 43.2962 128.924 43.2962 129.056 43.2962L132.369 56.4138Z" fill="#90D6E9"/>
<path d="M144.029 37.7311C142.439 39.3212 139.391 39.8512 136.741 39.0562C136.476 38.9237 136.211 38.9237 135.946 38.7912C135.814 38.7912 135.681 38.6587 135.549 38.6587C133.561 37.7311 132.236 36.1411 131.441 35.0811C131.044 34.5511 130.911 34.2861 130.911 34.2861C130.381 34.2861 129.851 34.0211 129.586 33.7561C128.129 32.4311 127.996 29.1186 129.189 28.5886C130.646 27.926 130.911 29.7811 130.911 29.7811C130.911 29.7811 131.574 26.866 132.899 25.1435C133.031 25.011 133.164 24.8785 133.296 24.746C134.621 23.421 136.609 21.566 137.271 20.9035C137.536 20.771 137.536 20.6385 137.536 20.6385C141.909 21.566 143.499 21.036 143.499 21.036C143.499 21.036 143.499 21.1685 143.632 21.4335C143.632 21.566 143.764 21.6985 143.764 21.831C144.294 23.421 145.487 26.866 146.017 28.8536C147.077 31.3711 145.752 35.8761 144.029 37.7311Z" fill="#F1B5AB"/>
<path d="M128.924 130.615C128.659 137.902 128.924 158.97 128.924 158.97C128.924 158.97 128.394 158.97 127.997 158.97H127.466C127.334 158.97 120.179 135.517 119.914 129.952C119.649 124.387 122.961 120.015 122.961 120.015L121.769 115.774C122.299 115.774 122.961 115.907 123.624 115.907C125.081 116.039 126.936 116.039 129.056 116.172C129.321 116.172 129.587 116.172 129.852 116.172C129.852 117.895 129.189 124.52 128.924 130.615Z" fill="#563A7F"/>
<path d="M159.664 157.38L158.074 157.777C158.074 157.777 152.376 148.237 149.064 143.6C145.884 138.962 142.704 133.265 142.174 129.025C141.644 124.785 142.969 119.087 142.969 119.087L140.849 115.774C141.776 115.774 142.704 115.642 143.631 115.642C146.281 115.509 148.799 115.244 150.521 115.112C150.786 117.232 151.979 124.652 153.039 130.88C154.231 138.035 159.664 157.38 159.664 157.38Z" fill="#563A7F"/>
<path d="M128.394 80.5291C127.997 80.7941 126.274 79.4691 124.949 79.8666C124.949 79.8666 127.202 81.0591 126.937 81.7216C126.672 82.2516 124.684 81.4566 124.287 81.1916C124.684 81.5891 125.877 83.0467 125.612 83.3117C125.347 83.7092 123.491 81.9866 123.491 81.9866C123.491 81.9866 124.286 83.5767 123.756 83.9742C123.359 84.3717 122.829 81.9866 122.829 81.9866C122.829 81.9866 123.359 80.7941 123.756 80.2641C124.419 79.3366 125.214 77.8791 126.274 78.2766C127.202 78.6741 128.792 80.2641 128.394 80.5291Z" fill="#F1B5AB"/>
<path d="M154.894 66.4839C154.629 69.0014 153.702 70.1939 152.244 70.4589C151.581 70.5914 150.787 70.5914 149.859 70.3264C147.209 69.6639 146.149 66.0864 145.221 62.7739C144.294 59.3288 142.041 52.3063 141.644 49.6562C141.246 47.0062 141.379 45.4162 141.379 45.4162C141.379 45.4162 140.716 45.4162 140.319 45.0187L140.186 44.8862C140.186 44.6212 140.584 44.3562 141.114 44.2237C140.451 44.4887 139.391 44.7537 139.259 44.4887C138.861 44.0912 140.849 42.6337 140.849 42.5012C140.716 42.5012 138.596 43.4287 138.331 43.1637C138.066 42.8987 140.319 41.5736 140.584 41.3086C140.319 41.4411 137.801 42.5012 137.536 42.1037C137.271 41.7061 140.054 39.9836 140.849 39.5861C141.776 39.3211 142.571 40.1161 142.571 40.1161C142.571 40.1161 143.896 39.8511 143.764 40.9111C143.764 40.9111 144.956 41.4411 144.691 42.7662C144.426 44.0912 143.896 45.4162 143.896 45.4162C144.029 45.5487 148.931 53.3663 151.051 56.4138C153.039 59.3288 155.292 62.6414 154.894 66.4839Z" fill="#F1B5AB"/>
<path d="M157.942 157.777L158.604 159.5H166.289C166.289 159.5 162.447 155.525 157.942 157.777Z" fill="#D24C27"/>
<path d="M136.742 39.0561L136.609 40.3811L136.344 43.5611C135.019 44.2236 132.634 42.6336 132.634 41.9711C132.634 41.7061 132.369 40.2486 132.104 38.6586C131.839 36.8036 131.442 34.8161 131.442 34.8161C132.237 35.8761 133.562 37.4661 135.549 38.3936C136.079 38.7911 136.344 38.9236 136.742 39.0561Z" fill="#F1B5AB"/>
<path d="M147.077 19.181C146.944 20.3735 145.487 21.1685 143.897 21.1685C143.764 20.9035 143.764 20.771 143.764 20.771C143.764 20.771 142.174 21.4335 137.801 20.3735C137.801 20.3735 135.019 22.891 133.429 24.481C132.501 25.4085 131.839 26.9986 131.441 28.0586C131.176 28.8536 131.044 29.5161 131.044 29.5161C131.044 29.5161 130.911 27.9261 129.586 28.3236C129.454 28.3236 129.454 28.3236 129.321 28.4561C128.659 28.7211 128.394 29.7811 128.526 30.8411C128.526 31.6361 128.791 32.5636 129.321 33.2261C129.454 33.3586 129.586 33.4911 129.719 33.7561C129.586 34.0211 129.321 34.5511 129.189 35.0811C128.129 38.2612 131.441 40.9112 133.296 42.5012C134.621 43.8262 135.946 46.7413 135.151 49.1263C134.886 49.7888 134.356 50.4513 133.694 50.9813C130.514 53.1013 127.599 51.7763 127.599 51.7763C129.321 50.4513 128.261 47.2713 125.744 45.8137C123.226 44.3562 122.034 43.2962 122.034 39.4537C122.034 35.6111 126.539 32.4311 126.539 32.4311L127.731 30.0461L128.394 28.8536C128.129 27.3961 127.334 23.686 128.659 20.6385C129.984 17.591 134.091 15.6034 139.524 16.0009C144.692 16.3984 147.077 17.856 147.077 19.181Z" fill="#721813"/>
<path d="M131.441 28.1911C131.176 28.9861 131.044 29.6486 131.044 29.6486C131.044 29.6486 130.779 27.7936 129.321 28.4561C128.261 28.9861 128.129 31.6361 129.189 33.2261C127.996 32.5636 126.804 31.3711 127.466 30.0461C128.659 27.7936 130.911 28.0586 131.441 28.1911Z" fill="#983222"/>
<path d="M140.849 55.8838C140.849 56.0163 140.849 56.1488 140.716 56.1488C140.584 56.1488 140.451 56.0163 140.451 56.0163L137.536 42.5012C137.669 42.5012 137.934 42.6337 138.066 42.7662L140.849 55.8838Z" fill="#90D6E9"/>
<path d="M116.469 65.8214C116.469 65.8214 119.119 70.459 120.576 73.2415C118.191 69.929 115.144 66.6164 115.144 66.6164C116.734 65.4239 119.649 60.3889 120.841 58.4014C121.901 59.8589 122.034 60.9189 122.034 60.9189C120.179 63.3039 116.469 65.8214 116.469 65.8214Z" fill="#F5948D"/>
<path d="M128.394 80.5291C127.997 80.7941 126.274 79.4691 124.949 79.8666C124.949 79.8666 127.202 81.0591 126.937 81.7216C126.672 82.2516 124.684 81.4566 124.287 81.1916C124.684 81.5891 125.877 83.0467 125.612 83.3117C125.347 83.7092 123.491 81.9866 123.491 81.9866C123.491 81.9866 124.286 83.5767 123.756 83.9742C123.359 84.3717 122.829 81.9866 122.829 81.9866C122.829 81.9866 123.359 80.7941 123.756 80.2641C124.419 79.3366 125.214 77.8791 126.274 78.2766C127.202 78.6741 128.792 80.2641 128.394 80.5291Z" fill="#F5948D"/>
<path d="M152.244 70.3265C151.581 70.459 150.786 70.459 149.859 70.194C147.209 69.5315 146.149 65.954 145.221 62.6415C144.294 59.1964 142.041 52.1739 141.644 49.5238C141.246 46.8738 141.379 45.2838 141.379 45.2838C141.379 45.2838 140.716 45.2838 140.319 44.8863L140.186 44.7538C140.584 44.8863 141.776 45.1513 142.704 44.2238C142.704 44.2238 142.041 46.8738 142.704 50.3188C143.366 53.6314 145.619 58.6664 148.004 62.509C149.726 64.894 151.316 68.2065 152.244 70.3265Z" fill="#F5948D"/>
<path d="M136.741 39.0562L136.609 40.3812C134.621 40.3812 133.164 39.4537 132.236 38.7912C131.971 36.9362 131.574 34.9487 131.574 34.9487C132.369 36.0087 133.694 37.5987 135.681 38.5262C136.079 38.7912 136.344 38.9237 136.741 39.0562Z" fill="#F5948D"/>
<path d="M136.079 38.7912C135.947 38.7912 135.814 38.6587 135.682 38.6587C133.694 37.7312 132.369 36.1412 131.574 35.0812C131.177 34.5511 131.044 34.2861 131.044 34.2861C130.514 34.2861 129.984 34.0211 129.719 33.7561C128.262 32.4311 128.129 29.1186 129.322 28.5886C130.779 27.9261 131.044 29.7811 131.044 29.7811C131.044 29.7811 131.707 26.8661 133.032 25.1436C132.104 27.3961 131.972 29.7811 132.634 33.0936C133.032 35.3462 134.754 37.4662 136.079 38.7912Z" fill="#F5948D"/>
<path d="M144.029 21.6985C142.042 21.831 138.994 21.301 137.404 20.771C137.669 20.6385 137.669 20.506 137.669 20.506C142.042 21.4335 143.632 20.9035 143.632 20.9035C143.632 20.9035 143.632 21.036 143.764 21.301C143.897 21.301 143.897 21.566 144.029 21.6985Z" fill="#F5948D"/>
<path d="M113.554 67.2789C113.421 67.2789 113.289 67.1464 113.289 67.0139C113.289 66.8814 113.421 66.7489 113.554 66.7489C115.011 66.6164 116.866 65.1589 116.866 65.1589C116.999 65.0264 117.131 65.1589 117.131 65.1589C117.264 65.2914 117.131 65.4239 117.131 65.4239C117.131 65.5564 115.276 67.0139 113.554 67.2789C113.686 67.1464 113.554 67.2789 113.554 67.2789Z" fill="#983222"/>
<path d="M140.186 32.6961C140.054 32.6961 139.921 32.6961 139.789 32.6961C139.789 32.6961 139.656 32.6961 139.656 32.5636C139.656 32.5636 139.656 32.4311 139.789 32.4311C141.379 32.4311 142.041 32.1661 142.174 32.0336C141.644 31.1061 140.584 27.5286 140.584 27.2636C140.584 27.2636 140.584 27.1311 140.716 27.1311C140.716 27.1311 140.849 27.1311 140.849 27.2636C140.849 27.5286 141.909 31.2386 142.439 32.0336V32.1661C142.571 32.1661 142.041 32.6961 140.186 32.6961Z" fill="#983222"/>
<path d="M133.164 26.4686C133.694 25.806 135.019 23.951 137.801 24.8785C137.801 24.8785 137.536 25.276 135.416 25.6735C133.429 26.2035 133.164 26.4686 133.164 26.4686Z" fill="#721813"/>
<path d="M140.849 25.1435C140.849 25.1435 142.041 24.2159 143.499 24.4809C144.956 24.746 145.089 25.541 145.089 25.541C145.089 25.541 143.764 25.1435 140.849 25.1435Z" fill="#721813"/>
<path d="M135.417 34.0211C135.682 34.0211 136.874 34.9486 139.392 34.9486C141.909 34.9486 143.234 34.2861 143.234 34.2861C143.234 34.2861 142.042 36.9361 139.259 37.2011C136.609 37.4661 135.417 34.0211 135.417 34.0211Z" fill="white"/>
<path d="M130.249 32.6961C130.116 32.6961 130.116 32.6961 130.249 32.6961C130.249 31.2385 129.321 29.516 129.321 29.516V29.3835H129.454C129.454 29.516 130.514 31.2385 130.249 32.6961C130.381 32.6961 130.249 32.6961 130.249 32.6961Z" fill="#983222"/>
<path d="M129.851 31.7686C129.586 31.7686 129.454 31.7686 129.321 31.5036C129.189 31.1061 129.719 30.5761 129.851 30.5761H129.984V30.7086C129.851 30.8411 129.454 31.2386 129.586 31.3711C129.719 31.6361 130.116 31.5036 130.249 31.5036C130.249 31.5036 130.381 31.5036 130.381 31.6361C130.381 31.6361 130.381 31.7686 130.249 31.7686C130.249 31.7686 129.984 31.7686 129.851 31.7686Z" fill="#983222"/>
<path d="M136.609 27.926C136.609 28.5885 136.344 29.1185 136.079 29.1185C135.814 29.1185 135.549 28.5885 135.549 27.926C135.549 27.2635 135.814 26.7335 136.079 26.7335C136.344 26.7335 136.609 27.2635 136.609 27.926Z" fill="#1E1724"/>
<path d="M143.102 27.661C143.102 28.456 142.837 29.1185 142.572 29.1185C142.307 29.1185 142.042 28.456 142.042 27.661C142.042 26.866 142.307 26.2035 142.572 26.2035C142.969 26.2035 143.102 26.866 143.102 27.661Z" fill="#1E1724"/>
<path d="M129.454 63.1714C129.189 65.0265 128.924 67.1465 128.659 69.0015L128.527 69.2665C127.467 64.8939 125.612 56.8114 125.612 56.8114C124.684 58.1364 121.901 60.7864 121.901 60.7864C121.901 60.7864 121.504 59.8589 120.841 58.6664C122.299 57.4739 125.612 54.6914 126.142 52.3063C126.274 52.4388 126.539 59.7264 129.454 63.1714Z" fill="#591F9C"/>
<path d="M133.164 42.5013C134.489 43.8263 135.814 46.7413 135.019 49.1263C134.886 47.4038 134.356 44.4888 131.574 43.1638C127.466 41.1762 125.744 35.3462 127.996 31.7687C128.129 31.5037 128.261 31.2386 128.526 30.9736C128.526 31.7687 128.791 32.6962 129.321 33.3587C129.454 33.4912 129.586 33.6237 129.719 33.8887C129.586 34.1537 129.321 34.6837 129.189 35.2137C127.996 38.1287 131.309 40.7787 133.164 42.5013Z" fill="#661513"/>
<path d="M147.076 19.3134C146.944 20.5059 145.486 21.1684 143.896 21.3009C143.764 21.0359 143.764 20.9034 143.764 20.9034C143.764 20.9034 142.174 21.5659 137.801 20.5059C137.801 20.5059 135.019 23.0235 133.429 24.6135C132.501 25.541 131.839 27.131 131.441 28.191C131.176 28.986 131.044 29.6485 131.044 29.6485C131.044 29.6485 130.911 28.0585 129.586 28.456C130.646 25.9385 131.309 23.5535 133.429 21.8309C136.476 19.3134 140.849 17.3259 147.076 19.3134Z" fill="#661513"/>
<path d="M150.256 140.95C153.436 147.177 156.484 154.465 158.074 157.777C158.074 157.777 152.376 148.237 149.064 143.6C145.884 138.962 142.704 133.265 142.174 129.025C141.644 124.784 142.969 119.087 142.969 119.087L140.849 115.774C141.776 115.774 142.704 115.642 143.631 115.642L144.426 119.352C143.101 123.857 145.884 132.47 150.256 140.95Z" fill="#3D2B60"/>
<path d="M127.997 158.97H127.466C127.334 158.97 120.179 135.517 119.914 129.952C119.649 124.387 122.961 120.015 122.961 120.015L121.769 115.774C122.299 115.774 122.961 115.907 123.624 115.907C123.624 118.027 123.624 121.605 123.624 121.605C123.624 121.605 121.504 124.255 122.696 133.53C123.889 141.612 127.201 155.79 127.997 158.97Z" fill="#3D2B60"/>
<path d="M126.671 156.32C126.141 158.042 125.876 159.367 125.876 159.367C125.876 159.367 128.924 159.367 130.514 159.102L128.924 156.187L126.671 156.32Z" fill="#D24C27"/>
</svg>
