<svg width="107" height="202" viewBox="0 0 107 202" fill="none" xmlns="http://www.w3.org/2000/svg">
<path d="M94.6875 46.326C94.6875 71.8746 84.2218 92.6521 71.2936 92.6521C58.3655 92.6521 47.8998 71.8746 47.8998 46.326C47.8998 20.7774 58.3655 0 71.2936 0C84.2218 0 94.6875 20.7774 94.6875 46.326Z" fill="#B69898"/>
<path d="M92.6867 46.326C92.6867 71.8746 82.221 92.6521 69.2928 92.6521C56.3646 92.6521 45.8989 71.8746 45.8989 46.326C45.8989 20.7774 56.3646 0 69.2928 0C82.221 0 92.6867 20.7774 92.6867 46.326Z" fill="#E39142"/>
<path d="M88.5312 46.3261C88.5312 70.3356 79.2967 90.6514 68.2154 90.6514C59.7505 90.6514 52.363 78.8005 49.4388 62.4864C48.5153 57.5613 48.0536 52.0207 48.0536 46.48C48.0536 44.941 48.0536 43.4019 48.2075 41.8628C49.2849 19.8541 58.0575 2.15479 68.3693 2.15479C71.9092 2.15479 75.2952 4.30949 78.2194 8.00326C81.1436 11.697 83.76 17.0838 85.6069 23.5479C87.4538 30.1659 88.5312 38.0151 88.5312 46.3261Z" fill="#7BC6CE"/>
<path d="M85.453 23.3942L49.4388 62.3327C48.5153 57.4077 48.0536 51.867 48.0536 46.3264C48.0536 44.7873 48.0536 43.2482 48.2075 41.7092L78.2194 7.84961C81.1436 11.6973 83.6061 17.084 85.453 23.3942Z" fill="#9CD8DB"/>
<path d="M44.2059 91.7287H9.11511L9.42295 2.15479H44.2059C43.7442 2.15479 44.2059 91.7287 44.2059 91.7287Z" fill="#E4CBCC"/>
<path d="M44.206 91.7287H26.9684L30.6621 2.15479H44.0521C43.7443 2.15479 44.206 91.7287 44.206 91.7287Z" fill="#D2B5B5"/>
<path d="M30.9699 2.15479L26.9683 91.7287H26.5066L30.5082 2.15479H30.9699Z" fill="#7A5959"/>
<path d="M104.538 96.3462V145.443H23.2746L21.8895 118.201V117.893L20.966 100.81V100.348L20.6582 96.3462H104.538Z" fill="#E4CBCC"/>
<path d="M83.1444 96.3462C82.8366 96.3462 79.1428 145.443 79.1428 145.443H104.537V96.3462H83.1444Z" fill="#D2B5B5"/>
<path d="M52.363 89.1118V96.3454H47.8997V91.7282H42.8208V94.0368H40.2043V89.1118H52.363Z" fill="#65BCC4"/>
<path d="M87.4539 89.1118V96.3454H82.9906V91.7282H77.7578V93.8829H75.1414V89.1118H87.4539Z" fill="#65BCC4"/>
<path d="M104.537 100.348V100.81H20.9659V100.348H104.537Z" fill="#7A5959"/>
<path d="M83.2983 96.3462L82.9905 100.348V100.81L79.4507 145.443H79.1428L81.2975 118.201V117.893L82.5288 100.81V100.348L82.8366 96.3462H83.2983Z" fill="#7A5959"/>
<path d="M81.4514 118.047C81.4514 118.201 81.2975 118.201 81.2975 118.201H21.8894V117.739H81.2975C81.4515 117.893 81.4514 117.893 81.4514 118.047Z" fill="#7A5959"/>
<path d="M54.8255 114.969H44.6676C44.5137 114.969 44.5137 114.815 44.5137 114.815C44.5137 114.661 44.6676 114.661 44.6676 114.661H54.8255C54.9794 114.661 54.9794 114.815 54.9794 114.815C55.1333 114.815 54.9794 114.969 54.8255 114.969Z" fill="#7A5959"/>
<path d="M54.8255 128.666H44.6676C44.5137 128.666 44.5137 128.512 44.5137 128.512C44.5137 128.358 44.6676 128.358 44.6676 128.358H54.8255C54.9794 128.358 54.9794 128.512 54.9794 128.512C55.1333 128.512 54.9794 128.666 54.8255 128.666Z" fill="#7A5959"/>
<path d="M52.363 89.1118V96.3454H47.8997V91.7282H47.1301L50.3622 89.1118H52.363Z" fill="#56B0B4"/>
<path d="M87.4538 89.1119V96.1916H82.9905V91.5744H82.3749C83.6061 90.8049 85.1452 89.8815 86.3765 88.958H87.4538V89.1119Z" fill="#56B0B4"/>
<path d="M65.4451 48.7885C63.7521 49.0963 62.5208 48.4807 61.5974 46.9416C60.8278 45.8643 60.2122 44.1713 59.9044 42.3244C59.1349 37.8611 59.4427 30.4736 59.9044 26.7798C60.3661 23.086 63.5982 21.3931 66.2146 21.3931C66.5224 21.3931 66.9841 21.547 67.2919 21.7009C68.831 22.6243 69.4466 25.5486 69.1388 29.0884C68.831 33.3978 69.2927 37.0916 69.6005 41.0932C69.7545 44.9409 68.3693 48.1729 65.4451 48.7885Z" fill="#AE56CA"/>
<path d="M65.4451 48.7884C63.7521 49.0962 62.5209 48.4806 61.5974 46.9415C67.1381 48.1728 67.9076 44.479 67.4459 40.7853C66.9842 36.9376 66.8303 32.7821 67.7537 28.3188C68.5232 24.625 68.5232 23.7016 67.1381 21.5469C68.6771 22.4703 69.2928 25.3946 68.985 28.9344C68.6771 33.2438 69.1389 36.9376 69.4467 40.9392C69.7545 44.9407 68.3693 48.1728 65.4451 48.7884Z" fill="#7F3AB5"/>
<path d="M42.8208 195.77C42.8208 195.77 42.2052 196.232 41.7435 196.539C41.2818 196.847 40.82 197.309 40.82 197.463C40.6661 197.463 31.8934 182.072 30.0466 175.762C28.1997 169.452 29.5848 160.063 29.5848 160.063C29.5848 160.063 26.1989 150.983 24.352 145.134C22.659 139.286 18.0418 122.818 17.8879 122.202C17.8879 122.202 15.1176 146.52 14.6558 153.138C14.1941 159.756 12.1933 196.539 12.1933 196.539L11.2699 197.155L10.3464 197.617C10.3464 197.617 2.6511 174.839 2.49719 167.451C2.34329 160.217 4.19016 154.061 4.19016 154.061C4.19016 154.061 -0.119241 122.664 0.34248 111.121C0.804202 99.4241 4.8058 95.7303 5.57534 95.2686C5.42143 95.4225 5.42142 95.4225 5.42142 95.4225C5.42142 95.4225 8.03785 98.3467 11.7316 100.347C12.6551 100.809 13.5785 101.271 14.5019 101.579C19.5809 103.272 27.7379 103.733 31.1239 102.04C31.1239 102.04 36.8185 144.519 37.588 152.984C38.2036 161.603 42.8208 195.77 42.8208 195.77Z" fill="#F79738"/>
<path d="M6.80652 175.608C7.42215 181.302 9.88468 191.46 10.962 197.309L10.0386 197.771C10.0386 197.771 2.34322 174.992 2.18931 167.605C2.0354 160.371 3.8823 154.215 3.8823 154.215C3.8823 154.215 -0.427102 122.818 0.0346191 111.275C0.49634 99.5779 4.49791 95.8841 5.26745 95.4224C5.11354 95.5763 5.11356 95.5763 5.11356 95.5763C5.11356 95.5763 7.72996 98.5005 11.4237 100.501L5.57528 112.66C5.57528 112.66 4.80574 124.511 5.11356 133.283C5.42137 142.056 7.26825 154.061 7.26825 154.061C7.26825 154.061 6.80653 158.832 6.65263 160.833C6.65263 162.834 6.19089 168.836 6.80652 175.608Z" fill="#E18726"/>
<path d="M41.7434 196.539C41.2817 196.847 40.82 197.309 40.82 197.463C40.6661 197.463 31.8934 182.072 30.0465 175.762C28.1996 169.452 29.5847 160.063 29.5847 160.063C29.5847 160.063 26.1988 150.983 24.3519 145.134C22.6589 139.286 18.0417 122.818 17.8878 122.202C18.0417 122.356 19.8886 125.896 21.7355 130.051C23.5824 134.361 33.2785 158.832 33.2785 158.832C33.2785 158.832 32.509 165.296 33.2785 171.298C34.0481 177.301 37.2801 188.998 39.4348 192.23C40.6661 193.923 41.2817 195.308 41.7434 196.539Z" fill="#E18726"/>
<path opacity="0.2" d="M7.26824 117.278C7.11434 117.585 6.80652 120.664 6.80652 120.664C6.80652 120.664 12.3472 124.511 14.8097 123.28C14.8097 123.28 21.1199 115.431 22.0433 111.737L21.7355 108.197L17.7339 106.042C17.7339 105.888 10.5003 111.121 7.26824 117.278Z" fill="#A04741"/>
<path d="M32.2012 67.7193C32.0473 67.7193 31.8934 67.7193 31.8934 67.7193C31.8934 67.7193 32.2013 68.181 32.5091 68.6428C33.1247 69.5662 33.8942 71.2592 33.7403 72.7983C33.5864 73.5678 33.2786 74.1834 32.9708 74.799C32.0473 76.0303 30.97 76.6459 30.97 76.6459C30.5083 78.4928 29.277 83.7257 29.8926 87.4194C30.5083 91.1132 31.1239 102.348 31.1239 102.348C28.5075 103.734 22.8129 103.734 18.0418 102.81C16.8105 102.502 15.5793 102.348 14.5019 101.887C9.423 100.194 5.42143 95.8843 5.42143 95.8843C5.42143 95.8843 5.42143 95.8843 5.57534 95.7304C6.03706 95.2687 7.26831 93.8835 8.96129 90.8054C11.116 86.9577 12.3472 82.6483 12.6551 79.878C12.809 77.5694 12.1933 73.4139 11.8855 72.1826C11.8855 71.8748 11.8855 71.8748 11.8855 71.8748C11.8855 71.8748 11.8855 72.0287 11.7316 72.1826C11.7316 72.3365 11.5777 72.4904 11.5777 72.6444C11.2699 73.7217 10.6543 75.4147 10.5004 76.7998C10.5004 77.1077 10.3464 77.4155 10.3464 77.8772C10.1925 79.5702 10.1926 81.571 10.1926 81.571C10.1926 81.571 9.57691 81.7249 8.80738 82.1866C8.19175 82.4944 7.42222 82.9561 6.65269 83.4178C6.34487 83.5718 6.03705 83.8796 5.72923 84.1874C4.49798 85.5725 4.03627 87.2655 4.03627 87.2655C0.650315 82.9561 1.72766 76.3381 3.11282 68.1811C3.42063 66.3342 3.72846 64.6412 4.03627 63.256C5.11362 58.6388 6.03704 56.7919 6.03704 56.7919C6.49877 56.3302 7.42221 55.7146 8.34565 55.099C11.116 53.2521 15.2715 51.0974 16.5027 50.7896H21.5817C21.5817 50.7896 24.0442 52.1747 27.2762 53.7138C30.97 55.5607 35.4333 57.7154 37.7419 58.1771C42.0513 58.9466 45.7451 58.331 45.7451 58.331C46.0529 59.8701 46.2068 61.2552 46.2068 62.1787C46.2068 62.9482 46.3607 63.5638 46.3607 64.1795C46.5146 66.0263 46.5146 67.1037 46.5146 67.5654V67.7193C42.0513 69.7201 34.202 68.181 32.2012 67.7193C32.3552 67.7193 32.3552 67.7193 32.2012 67.7193Z" fill="#A6DDEB"/>
<path d="M27.4301 53.7134C25.891 54.4829 23.5824 55.2525 20.8121 56.022C16.1949 57.2533 11.1159 55.8681 8.49951 54.9447C11.2698 53.0978 15.4253 50.9431 16.6566 50.6353H21.7355C21.7355 50.6353 24.198 52.0204 27.4301 53.7134Z" fill="#66C8CE"/>
<path d="M5.72923 84.0334C4.49798 85.4186 4.03627 87.1115 4.03627 87.1115C0.650315 82.8021 1.72766 76.1841 3.11282 68.0271C3.42063 66.1802 3.72846 64.4872 4.03627 63.1021L4.34408 65.5645C4.34408 65.5645 4.34408 72.1826 4.34408 75.2607C4.34408 78.3388 5.42142 82.1865 5.72923 84.0334Z" fill="#66C8CE"/>
<path d="M14.8097 90.9591C15.4253 93.1138 17.2722 99.7318 17.8879 102.502C16.6566 102.194 15.4253 102.04 14.348 101.579C9.26905 99.8858 5.26746 95.5763 5.26746 95.5763C5.26746 95.5763 5.26747 95.5764 5.42137 95.4225C5.88309 94.9607 7.11435 93.5756 8.80732 90.4974C10.962 86.6498 12.1933 82.3403 12.5011 79.57C12.655 77.2614 12.0394 73.1059 11.7316 71.8747C11.7316 71.5669 11.7316 71.5669 11.7316 71.5669C11.7316 71.5669 11.7316 71.7208 11.5777 71.8747C11.5777 72.0286 11.4237 72.1825 11.4237 72.3364C11.5776 71.4129 11.7316 70.1817 12.0394 69.2582C12.8089 66.9496 12.655 63.2559 12.655 63.2559C12.655 63.2559 13.7324 69.8739 14.6558 72.0286C15.4253 74.1833 18.8113 76.4919 18.8113 76.4919C15.1175 76.1841 13.4246 72.952 13.2706 72.6442C13.2706 72.7981 13.5784 73.4137 14.1941 75.8763C14.8097 78.4927 13.8863 82.8021 14.0402 82.956C14.348 83.1099 14.0402 88.3427 14.8097 90.9591Z" fill="#66C8CE"/>
<path d="M46.6684 67.7189C41.8973 69.7197 34.2019 68.1806 32.3551 67.8728H32.2011C30.2003 65.5642 28.8152 61.4087 28.8152 61.4087C28.8152 61.4087 32.6629 63.7173 35.8949 64.7946C39.127 66.0259 42.8207 65.4103 42.8207 65.4103C42.8207 65.4103 44.9754 64.9486 46.5145 64.3329C46.6684 66.0259 46.6684 67.2572 46.6684 67.7189C46.6684 67.565 46.6684 67.7189 46.6684 67.7189Z" fill="#66C8CE"/>
<path d="M10.1925 197.77L10.6542 199.463H19.7347C19.7347 199.463 13.8863 194.384 10.1925 197.77Z" fill="#A61BB2"/>
<path d="M40.8199 197.463L41.2817 198.694H50.0544C49.9005 198.694 44.2059 192.384 40.8199 197.463Z" fill="#A61BB2"/>
<path d="M21.5816 109.89C21.5816 109.89 21.2738 110.506 20.3504 112.198C20.0426 112.814 19.5808 113.584 19.1191 114.507C18.3496 115.892 17.2722 117.431 16.3488 118.663C15.1175 120.356 14.1941 121.587 14.1941 121.587C14.1941 121.587 12.0394 121.279 9.88469 119.74C9.42297 119.432 8.96126 118.97 8.65345 118.663C7.5761 117.431 7.11438 116.508 7.11438 116.508C7.11438 116.508 8.19172 114.507 9.57688 112.506C9.88469 112.045 10.3464 111.429 10.6542 110.967C11.7316 109.736 12.9628 108.043 14.0402 106.966C14.9636 105.888 15.5793 105.273 15.5793 105.273C15.5793 105.273 18.3496 105.119 19.1191 104.965L21.1199 106.812L21.5816 109.89Z" fill="#ED3451"/>
<path d="M20.3504 112.198C20.0425 112.814 19.5808 113.583 19.1191 114.507C18.3496 115.892 17.2722 117.431 16.3488 118.662C14.6558 117.739 11.5777 115.584 9.42297 112.352C9.73079 111.89 10.1925 111.275 10.5003 110.813C11.5777 109.582 12.8089 107.889 13.8863 106.812C14.9636 108.197 17.7339 110.967 20.3504 112.198Z" fill="#442B6A"/>
<path d="M20.1965 76.7996C17.734 76.7996 15.7332 75.8762 14.5019 74.3371C13.4246 72.952 13.1168 71.259 13.2707 71.1051C13.2707 70.9512 13.4246 70.9512 13.5785 70.9512C13.7324 70.9512 13.7324 71.1051 13.7324 71.1051C13.7324 71.259 14.0402 73.1059 15.2715 74.491C16.5027 75.7223 18.1957 76.3379 20.3504 76.4918C20.5043 76.4918 20.5043 76.6458 20.5043 76.6458C20.3504 76.6458 20.3504 76.7996 20.1965 76.7996Z" fill="#96413A"/>
<path d="M29.277 76.7993C28.9692 76.7993 28.8153 76.7993 28.6614 76.7993C28.5075 76.7993 28.5074 76.6454 28.5074 76.6454C28.5074 76.4915 28.6614 76.4915 28.6614 76.4915C29.1231 76.4915 31.1239 76.7993 32.6629 74.7985C32.6629 74.6446 32.8168 74.6446 32.9707 74.7985C33.1246 74.7985 33.1246 74.9525 32.9707 75.1064C31.7395 76.6454 30.2004 76.7993 29.277 76.7993Z" fill="#96413A"/>
<path d="M11.8855 71.8745C11.7316 71.8745 11.7316 71.7205 11.7316 71.7205C11.7316 71.4127 11.8855 70.7971 12.0394 70.1815C12.3472 68.6424 12.8089 66.6416 12.655 64.6408C12.5011 62.0244 11.7316 60.7932 11.7316 60.7932C11.7316 60.6393 11.7316 60.6393 11.7316 60.4854C11.8855 60.4854 11.8855 60.4854 12.0394 60.4854C12.0394 60.4854 12.8089 61.7166 13.1167 64.4869C13.2706 66.4877 12.8089 68.4885 12.3472 70.0276C12.1933 70.6432 12.0394 71.1049 12.0394 71.5667C12.0394 71.8745 12.0394 71.8745 11.8855 71.8745Z" fill="#96413A"/>
<path d="M32.6629 68.6424C30.97 67.1033 28.5074 61.5627 28.5074 61.5627C28.5074 61.4088 28.5075 61.4088 28.6614 61.2549C28.8153 61.2549 28.8153 61.2549 28.9692 61.4088C28.9692 61.4088 30.97 66.026 32.509 67.8729C32.3551 67.8729 32.2012 67.719 32.2012 67.719C32.0473 67.719 32.3551 68.0268 32.6629 68.6424Z" fill="#96413A"/>
<path d="M22.659 59.5622C20.6582 60.3317 16.8105 52.9442 16.8105 52.9442C16.8105 52.9442 16.8105 52.9442 16.6566 51.2512C16.6566 50.4817 16.1949 49.2504 15.7332 48.0192C15.1175 46.0184 14.348 44.1715 14.1941 44.0176C14.348 44.1715 14.6558 44.4793 14.8097 44.6332C15.7332 45.5567 17.1183 46.3262 18.6574 46.7879C19.7348 47.0957 20.8121 47.0957 21.7356 46.9418L21.5816 49.2504L21.4277 52.6364C21.5816 52.4825 24.5059 58.7927 22.659 59.5622Z" fill="#F1B5AB"/>
<path d="M21.8894 46.7875L21.7356 49.0961C19.5809 49.0961 17.1183 48.3266 15.7332 47.8649C15.1175 45.8641 14.348 44.0172 14.1941 43.8633C14.348 44.0172 14.6558 44.325 14.8097 44.4789C15.7332 45.4023 17.1183 46.1719 18.6574 46.6336C19.8887 46.7875 20.966 46.9414 21.8894 46.7875Z" fill="#F5948D"/>
<path d="M67.4459 38.1688C67.4459 39.2461 63.7521 44.479 63.7521 44.479C63.7521 44.479 57.1341 57.8689 54.3638 61.4087C52.0552 64.4869 47.8997 67.1033 46.6685 67.565C46.5146 67.2572 46.6685 65.872 46.5145 64.0252C46.5145 63.4095 46.3607 62.7939 46.3607 62.1783C46.0528 60.0236 45.8989 58.3306 45.8989 58.3306C45.8989 58.3306 48.9771 57.0994 54.5177 48.7884C56.5185 45.7102 58.5193 42.4782 58.5193 42.4782C58.5193 42.4782 58.0576 35.2446 58.5193 34.9367C58.6732 34.7828 58.981 35.2446 59.1349 35.8602C59.2888 36.6297 59.4428 37.861 59.4428 37.861C59.4428 37.861 59.4428 37.5531 59.4428 37.0914C59.4428 35.7063 59.7506 33.0899 60.3662 33.0899C61.1357 33.0899 60.8279 36.4758 60.8279 36.4758C60.8279 36.4758 60.8279 36.4758 60.8279 36.3219C60.8279 36.0141 61.1357 35.0907 61.2896 34.3211C61.5974 32.6281 62.2131 30.7812 62.5209 30.7812C62.8287 30.7812 62.8287 31.7047 62.6748 32.6281C62.5209 33.5516 62.367 34.6289 62.367 35.0907C62.367 34.9367 62.5209 34.3211 62.6748 33.7055C62.9826 32.4742 63.4443 31.0891 63.906 31.0891C64.5217 31.0891 64.2139 33.5516 64.2139 35.0907C64.2139 36.6297 64.0599 39.4 64.5217 39.8618C64.9834 40.3235 66.5225 38.1688 67.292 38.4766C67.4459 38.0149 67.4459 38.0149 67.4459 38.1688Z" fill="#F1B5AB"/>
<path d="M62.9826 33.2438C62.6748 35.0907 62.367 37.2454 62.367 37.2454C62.367 37.2454 62.367 37.3994 62.2131 37.3994C62.2131 37.3994 62.0592 37.3993 62.0592 37.2454C62.0592 37.2454 62.367 34.3212 62.8287 32.1665C62.6748 33.0899 62.5209 34.1673 62.5209 34.629C62.6748 34.4751 62.8287 33.8595 62.9826 33.2438Z" fill="#96413A"/>
<path d="M61.4435 34.0137C61.2896 35.5527 61.1357 37.5535 61.1357 37.7075C61.1357 37.7075 61.1357 37.8613 60.9818 37.8613L60.8279 37.7075C60.8279 37.7075 60.9818 36.9379 60.9818 36.1684C61.1357 35.7067 61.2896 34.9371 61.4435 34.0137Z" fill="#96413A"/>
<path d="M59.7505 38.1685C59.7505 38.1685 59.5966 38.3224 59.7505 38.1685C59.5966 38.3224 59.4427 38.3224 59.4427 38.1685C59.4427 38.1685 59.2888 36.9372 59.1349 35.8599C59.2888 36.6294 59.4427 37.8606 59.4427 37.8606C59.4427 37.8606 59.4427 37.5528 59.4427 37.0911C59.5966 37.7067 59.7505 38.1685 59.7505 38.1685Z" fill="#96413A"/>
<path d="M67.4459 38.1685C67.4459 39.2458 63.7521 44.4786 63.7521 44.4786C63.7521 44.4786 57.1341 57.8685 54.3638 61.4084C52.0552 64.4866 47.8997 67.103 46.6684 67.5647C46.5145 67.2569 46.6684 65.8717 46.5145 64.0248C48.0536 63.1014 51.9013 60.485 53.5943 58.6381C56.5185 55.0982 62.5209 43.863 62.5209 43.863C62.5209 43.863 65.9068 40.3232 67.4459 38.1685Z" fill="#F5948D"/>
<path d="M22.8128 103.272C22.8128 103.272 22.6589 103.733 22.1972 104.349C21.8894 104.965 21.4277 105.888 20.812 106.812L18.8112 105.58L18.5034 105.426C18.5034 105.426 20.5042 103.272 21.5816 102.194L22.8128 103.272Z" fill="#863531"/>
<path opacity="0.5" d="M22.8128 103.272C22.8128 103.272 22.6589 103.733 22.1972 104.349L18.8112 105.58L18.5034 105.426C18.5034 105.426 20.5042 103.272 21.5816 102.194L22.8128 103.272Z" fill="#712525"/>
<path d="M27.2761 103.888L25.7371 105.273L25.2754 105.735C25.2754 105.735 22.3511 102.656 21.7355 101.887C21.5816 101.733 21.2738 101.117 21.2738 100.656C21.2738 100.656 19.273 99.2704 19.4269 98.8087C19.5808 98.347 20.6581 98.347 21.8894 98.8087C22.3511 98.9626 22.8128 99.2704 23.4285 99.5782C25.2754 100.809 27.2761 103.888 27.2761 103.888Z" fill="#732526"/>
<path opacity="0.5" d="M25.7371 105.273L25.2754 105.735C25.2754 105.735 22.3511 102.656 21.7355 101.887C21.5816 101.733 21.2738 101.117 21.2738 100.656C21.2738 100.656 19.273 99.2704 19.4269 98.8087C19.5808 98.347 20.6581 98.347 21.8894 98.8087C21.5816 99.886 21.8894 100.809 22.3511 101.579C22.8128 102.349 24.8136 104.503 25.7371 105.273Z" fill="#712525"/>
<path opacity="0.5" d="M18.8113 104.811L16.6566 106.812C16.6566 106.812 14.9636 108.967 12.0394 112.352C10.1925 114.507 8.96122 117.124 8.34559 118.663C7.26824 117.431 6.80652 116.508 6.80652 116.508C6.80652 116.508 7.88388 114.507 9.26904 112.506C9.57686 112.045 10.0386 111.429 10.3464 110.967C11.4237 109.736 12.655 108.043 13.7323 106.966C14.6558 105.888 15.2714 105.273 15.2714 105.273C15.2714 105.273 18.0417 104.965 18.8113 104.811Z" fill="#712525"/>
<path d="M21.4277 107.581C20.9659 108.196 20.9659 106.811 20.812 106.657C20.812 106.503 20.6581 107.427 20.3503 107.581C19.8886 107.735 19.273 106.657 19.273 106.657C19.273 106.657 19.1191 107.119 18.9652 107.119C18.8112 107.119 18.6573 107.119 18.3495 106.965C17.58 106.349 16.8105 102.502 16.6565 102.348C16.5026 102.194 13.7323 99.7315 10.8081 96.4994C7.88384 93.2674 4.80569 88.6501 4.19006 87.265C4.19006 87.265 4.19006 85.572 5.72913 83.879C5.88304 83.7251 5.88304 83.7251 6.03694 83.5712C7.88383 81.8782 10.3463 81.4165 10.3463 81.4165C10.3463 81.4165 12.3471 85.7259 13.4245 88.4962C14.6557 91.4205 18.3495 100.655 19.273 101.117C20.1964 101.578 21.5816 102.04 21.5816 102.04C21.5816 102.04 21.4277 102.348 21.4277 103.733C21.5816 104.656 21.8894 106.965 21.4277 107.581Z" fill="#F1B5AB"/>
<path d="M18.9652 107.119C18.8112 107.119 18.6573 107.119 18.3495 106.965C17.58 106.35 16.8105 102.502 16.6565 102.348C16.5026 102.194 13.7323 99.7318 10.8081 96.4998C7.88384 93.2677 4.80569 88.6505 4.19006 87.2653C4.19006 87.2653 4.19006 85.5724 5.72913 83.8794C6.80648 88.0349 8.03775 90.6513 10.962 94.6529C14.194 99.1162 17.1183 102.348 17.1183 102.348C17.1183 102.348 18.0417 105.58 18.9652 107.119Z" fill="#F5948D"/>
<path d="M19.8886 109.89C19.8886 110.044 17.2722 115.276 15.4253 117.123L14.0402 115.892L18.6574 109.12L19.8886 109.89Z" fill="#9F4747"/>
<path d="M26.0449 104.349L26.6605 103.887C26.6605 103.887 24.6597 101.424 24.3519 101.732C24.0441 102.04 26.0449 104.349 26.0449 104.349Z" fill="#9F4747"/>
<path d="M27.5839 105.272L26.8144 105.734L26.3527 106.042L25.7371 105.272L26.3527 104.656L26.8144 104.349L27.5839 105.272Z" fill="#732526"/>
<path opacity="0.5" d="M26.8144 105.734L26.3527 106.042L25.7371 105.272L26.3527 104.657C26.5066 104.965 26.6605 105.426 26.8144 105.734Z" fill="#712525"/>
<path d="M107 197.925C107 197.925 105.153 200.233 95.9187 200.849C94.9953 200.849 93.764 201.003 92.6867 201.003C80.6819 201.311 76.9882 197.463 76.9882 197.463L77.296 194.693L81.2976 165.45C81.2976 167.451 86.0687 168.99 92.0711 168.99C95.1492 168.99 98.0734 168.528 100.074 167.913C101.767 167.297 102.845 166.528 102.845 165.604L106.692 195L107 197.925Z" fill="#A6D6B4"/>
<path d="M92.0711 162.218C86.0687 162.218 81.2976 163.757 81.2976 165.758C81.2976 167.758 86.0687 169.297 92.0711 169.297C98.0735 169.297 102.845 167.758 102.845 165.758C102.845 163.757 97.9196 162.218 92.0711 162.218Z" fill="#C4D8CF"/>
<path d="M61.1357 60.9473C61.1357 60.9473 60.9818 60.9473 61.1357 60.9473C60.9818 60.7934 60.9818 60.6395 60.9818 60.6395L76.8342 45.5566C76.9881 45.5566 76.9881 45.5566 77.1421 45.5566C77.1421 45.7105 77.1421 45.7106 77.1421 45.8645L61.1357 60.9473C61.2896 60.9473 61.1357 60.9473 61.1357 60.9473Z" fill="#EEDFE0"/>
<path d="M71.2936 44.633C71.1397 44.4791 71.1396 44.3252 71.1396 44.3252L82.221 32.4743C82.221 32.3204 82.3749 32.3204 82.5288 32.4743C82.6827 32.4743 82.6827 32.6282 82.5288 32.7821L71.2936 44.633C71.4475 44.633 71.4475 44.633 71.2936 44.633Z" fill="#EEDFE0"/>
<path d="M106.538 195.154C102.075 196.539 97.9195 197.309 94.2257 197.463C93.764 196.693 92.6867 195.77 90.0702 195.616C87.4538 195.462 85.607 196.231 84.8374 196.847C81.2976 196.231 78.6811 195.308 77.1421 194.692L76.8342 197.463C76.8342 197.463 80.528 201.31 92.5328 201.003C104.538 200.695 106.846 197.771 106.846 197.771L106.538 195.154Z" fill="#078B78"/>
<path opacity="0.3" d="M107 197.924C107 197.924 105.153 200.233 95.9187 200.849C97.7656 192.23 99.1507 176.685 100.074 167.913C101.767 167.297 102.845 166.527 102.845 165.604L106.692 195L107 197.924Z" fill="#5A3F3E"/>
<path d="M28.3535 44.7866C26.9683 46.1717 24.6597 47.5569 22.0433 47.8647C21.1198 48.0186 20.1964 47.8647 19.119 47.7108C18.3495 47.5569 17.7339 47.2491 17.1183 46.9413C16.5026 46.6335 16.0409 46.1718 15.5792 45.8639C15.4253 45.71 15.1175 45.4022 14.9636 45.2483C13.8862 44.1709 13.2706 43.2475 13.2706 43.2475C11.5776 43.5553 8.65336 42.0163 8.34555 40.0155C8.03773 38.1686 8.96119 37.2451 10.1925 37.7069C11.4237 38.0147 11.8854 37.553 12.9628 35.86C13.1167 35.5522 13.2706 35.2443 13.4245 34.9365C14.0401 32.7818 14.194 28.4724 14.3479 26.1638C14.6558 23.3935 16.6565 22.624 18.3495 22.47C20.0425 22.3161 21.4277 22.4701 22.505 22.7779C26.1988 23.8552 26.8144 27.0873 27.2761 29.242C27.43 29.8576 27.5839 30.3193 27.7378 30.9349C28.1996 32.3201 28.6613 33.5514 29.2769 34.7826C29.5847 35.3982 29.8925 36.0139 30.3543 36.6295C31.7394 38.6303 30.2003 42.7858 28.3535 44.7866Z" fill="#F1B5AB"/>
<path d="M17.2722 46.787C16.6565 46.4792 16.1948 46.0175 15.7331 45.7096C15.5792 45.5557 15.2714 45.2479 15.1175 45.094C14.0401 44.0167 13.4245 43.0932 13.4245 43.0932C11.7315 43.401 8.80729 41.862 8.49948 39.8612C8.19166 38.0143 9.1151 37.0908 10.3464 37.5526C11.5776 37.8604 12.0393 37.3987 13.1167 35.7057C13.2706 35.3979 13.4245 35.09 13.5784 34.7822C13.7323 38.476 14.194 41.7081 15.4253 43.8628C16.0409 44.9401 16.6565 46.0174 17.2722 46.787Z" fill="#F5948D"/>
<path d="M27.7378 30.6272C26.8144 30.0116 26.3527 28.1647 25.5831 26.6256C24.3519 24.317 24.5058 23.8553 22.505 22.624C26.1988 23.7014 26.8144 26.9334 27.2761 29.0881C27.43 29.5498 27.5839 30.1655 27.7378 30.6272Z" fill="#F5948D"/>
<path d="M30.5083 29.5503C29.277 31.2433 29.1231 34.3215 29.1231 34.3215C28.8153 33.7058 28.6614 33.2441 28.3535 32.6285C27.8918 31.3972 27.4301 30.166 27.1223 28.7808C26.9684 28.473 26.9684 28.1652 26.8145 27.7035C26.1988 25.241 24.9676 22.0089 19.4269 22.0089C18.9652 22.0089 18.5035 22.0089 18.0418 22.0089C16.3488 22.1628 14.348 22.7784 14.0402 25.7027C13.7324 28.0113 13.7324 32.0129 13.1167 34.3215C12.9628 34.7832 12.8089 35.2449 12.655 35.5527C11.5777 37.2457 11.2699 37.7074 9.88469 37.3996C8.65343 37.0918 7.73 37.8613 8.03781 39.7082C8.34562 41.5551 11.2699 43.0942 12.9628 42.9403C12.9628 42.9403 13.7324 44.3254 15.2714 45.5567C14.9636 46.0184 16.9644 52.9442 16.9644 52.9442C16.9644 52.9442 9.88469 49.8661 5.7292 47.0957C1.72762 44.3254 1.26589 42.4785 1.4198 37.5535C1.57371 35.2449 1.88154 32.4746 2.80498 29.8582C3.72842 26.78 5.26749 24.0097 7.73 22.1628C12.3472 18.7768 16.6566 19.0847 17.734 19.3925C17.734 19.3925 20.0426 17.8534 23.4285 17.3917C26.8145 16.93 29.277 18.3151 30.97 21.0855V21.2394C32.8169 24.0097 31.7395 27.8574 30.5083 29.5503Z" fill="#0C2321"/>
<path d="M15.7331 32.0127C15.5792 31.551 17.4261 29.858 18.9652 29.3963C20.5043 28.9346 20.6582 30.1658 20.0425 30.6276C19.4269 31.0893 15.7331 32.0127 15.7331 32.0127Z" fill="#0C2321"/>
<path d="M27.8919 30.6273C27.738 30.6273 25.7372 28.3187 24.1981 29.0882C23.4286 29.396 23.7364 30.4734 24.8137 30.3195C25.8911 30.3195 27.8919 30.6273 27.8919 30.6273Z" fill="#0C2321"/>
<path d="M22.8129 41.709C22.6589 41.709 22.6589 41.709 22.8129 41.709C22.6589 41.709 22.6589 41.709 22.6589 41.5551C22.6589 41.5551 22.6589 41.4012 22.8129 41.4012C22.8129 41.4012 22.8128 41.4012 22.9667 41.4012C25.5832 41.4012 26.5066 40.0161 26.6605 39.5543C22.9668 37.7075 23.7363 32.6285 23.7363 32.6285C23.7363 32.6285 23.7363 32.4746 23.8902 32.4746C23.8902 32.4746 24.0441 32.4746 24.0441 32.6285C24.0441 32.6285 23.4285 37.5535 26.9683 39.4004C26.9683 39.4004 27.1222 39.5543 26.9683 39.5543C26.6605 39.7083 25.891 41.709 22.8129 41.709Z" fill="#983222"/>
<path d="M12.6549 41.0931C11.7315 39.7079 9.88461 38.4767 9.7307 38.3228H9.57678V38.4767C9.57678 38.4767 10.3463 38.9384 11.1159 39.7079C10.9619 40.0157 10.5002 40.7853 10.962 41.0931C11.1159 41.0931 11.1159 41.247 11.2698 41.247C11.5776 41.247 11.8854 40.9392 12.0393 40.7853C12.1932 40.9392 12.1932 41.0931 12.3471 41.247C12.3471 41.247 12.3471 41.247 12.501 41.247C12.6549 41.247 12.6549 41.247 12.6549 41.0931ZM11.1159 41.0931C10.9619 40.9392 11.1159 40.3236 11.2698 40.0157C11.4237 40.1696 11.7315 40.4775 11.8854 40.6314C11.8854 40.9392 11.4237 41.247 11.1159 41.0931Z" fill="#983222"/>
<path d="M19.1191 42.4785C19.273 42.4785 24.6598 42.6324 26.045 43.2481C26.045 43.2481 24.0442 45.8645 22.1973 45.8645C20.1965 45.7106 19.1191 42.4785 19.1191 42.4785Z" fill="white"/>
<path d="M19.5808 34.629C19.5808 35.5525 19.1191 36.322 18.6574 36.322C18.1957 36.322 17.8878 35.5525 18.0417 34.629C18.0417 33.7056 18.5035 32.936 18.9652 32.936C19.273 32.936 19.5808 33.7056 19.5808 34.629Z" fill="#1E1724"/>
<path d="M26.9683 34.4747C26.9683 35.3981 26.5065 36.1677 26.0448 36.1677C25.5831 36.1677 25.2753 35.3981 25.4292 34.4747C25.4292 33.5513 25.8909 32.7817 26.3526 32.7817C26.6605 32.7817 26.9683 33.5513 26.9683 34.4747Z" fill="#1E1724"/>
<path d="M17.2721 52.944C17.2721 52.944 10.1924 49.8658 6.03692 47.0955C2.03534 44.3252 1.57363 42.4783 1.72754 37.5533C1.88145 35.2447 2.18925 32.4743 3.11269 29.8579C5.11349 32.3204 9.57679 35.2447 13.4245 34.4751C13.2706 34.9368 13.1166 35.3986 12.9627 35.7064C11.8854 37.3994 11.5776 37.8611 10.1924 37.5533C8.96117 37.2454 8.03771 38.015 8.34553 39.8619C8.65334 41.7088 11.5776 43.2478 13.2706 43.0939C13.2706 43.0939 14.0401 44.4791 15.5792 45.7103C15.4253 46.1721 17.2721 52.944 17.2721 52.944Z" fill="#071A18"/>
<path d="M31.2778 21.2388C30.8161 23.8552 30.0465 26.0099 28.3535 27.2411C28.0457 25.2403 27.2762 23.7013 25.891 22.3161C23.8902 20.4692 21.4277 21.3927 19.7347 22.3161C25.1215 22.3161 26.3527 25.5482 27.1223 28.0107C27.2762 28.3185 27.2762 28.7802 27.4301 29.088C27.584 29.5497 27.584 30.0115 27.7379 30.3193C27.7379 30.4732 27.7379 30.4732 27.8918 30.6271C28.0457 30.9349 28.0457 31.3966 28.1996 31.7044C28.1996 31.8583 28.1996 31.8584 28.3535 32.0123C28.5074 32.3201 28.6614 32.6279 28.6614 32.9357C28.8153 33.5513 29.1231 34.0131 29.4309 34.6287C29.4309 34.6287 29.4309 31.5505 30.816 29.8576C31.7395 27.8568 32.8168 24.0091 31.2778 21.2388Z" fill="#071A18"/>
</svg>
