<svg width="178" height="159" viewBox="0 0 178 159" fill="none" xmlns="http://www.w3.org/2000/svg">
<path d="M135.987 133.358H21.1978C20.9312 141.491 20.2646 148.024 20.1313 148.824H136.387C136.121 143.357 135.987 138.158 135.987 133.358Z" fill="#98D8EA"/>
<path d="M142.787 76.4302C142.787 79.0966 141.054 92.2955 139.587 102.161H139.32C138.521 104.561 137.721 108.561 137.054 113.76H20.6645C20.1312 109.094 19.3313 104.828 17.8648 101.628C15.865 90.2956 12.7986 76.1636 12.7986 76.1636C14.5318 74.1638 66.2604 75.497 79.9925 75.3636C80.1258 75.3636 80.2592 75.3636 80.3925 75.3636C80.6592 75.3636 80.7925 75.3636 81.0591 75.3636C93.458 75.097 142.787 76.4302 142.787 76.4302Z" fill="#C6E8EF"/>
<path d="M17.9981 102.295C17.9981 102.161 17.8648 101.895 17.8648 101.761C17.7315 101.095 17.4648 100.428 17.1982 99.7614C15.1984 95.4951 10.9321 92.962 6.79913 94.0286C5.06596 94.4286 3.59941 95.4952 2.53284 96.9617C0.666337 99.3615 -0.000286281 102.695 0.932963 106.161C1.73289 109.361 3.86608 111.894 6.39919 113.227C8.13236 114.027 10.1321 114.293 11.9986 113.893C16.3982 112.694 19.0646 107.494 17.9981 102.295Z" fill="#C6E8EF"/>
<path d="M6.66575 94.1622C10.7987 93.0956 15.0651 95.6287 17.0649 99.895C17.3315 100.428 17.7314 101.095 17.9981 101.628L15.9982 91.3624C4.39928 89.096 2.26616 97.0952 2.26616 97.0952C3.46605 95.6287 4.93257 94.5621 6.66575 94.1622Z" fill="#98D8EA"/>
<path d="M20.7979 113.76C20.9312 115.493 21.0645 117.36 21.1978 119.226H136.654C136.787 117.227 137.054 115.493 137.187 113.76C127.988 113.894 31.0636 113.76 20.7979 113.76Z" fill="#9DD9E1"/>
<path d="M21.1978 119.227C21.4645 124.026 21.4645 128.959 21.1978 133.359H135.987C135.987 128.159 136.254 123.493 136.521 119.227H21.1978Z" fill="#98D8EA"/>
<path d="M21.1978 119.227C21.0645 117.36 20.9312 115.494 20.7979 113.76C20.2646 113.76 20.7979 113.76 20.7979 113.76C20.2646 109.094 19.4646 104.828 17.9981 101.628C17.9981 101.895 17.9981 101.628 17.9981 101.628C17.7314 100.962 17.4648 100.428 17.0649 99.895C17.3315 100.562 17.5982 101.095 17.7315 101.895C17.7315 102.028 17.8648 102.295 17.8648 102.428C18.9313 107.628 16.2649 112.694 11.732 113.894C9.86552 114.427 7.86568 114.16 6.13251 113.227C6.13251 113.227 11.4653 129.359 9.99878 148.957H20.1312C20.1312 148.957 20.1312 148.957 20.1312 148.824C20.2646 148.024 20.9312 141.491 21.1978 133.359C21.4644 128.959 21.4644 124.026 21.1978 119.227Z" fill="#98D8EA"/>
<path d="M155.452 109.36C153.186 112.827 149.32 114.56 145.587 113.493C141.054 112.16 138.521 107.227 139.721 102.294H139.587H139.454C138.654 104.694 137.854 108.694 137.187 113.893C137.187 113.893 137.587 113.893 137.187 113.893C136.921 115.627 136.787 117.493 136.654 119.36C136.254 123.626 136.121 128.292 136.121 133.492C136.121 138.291 136.254 143.491 136.521 148.957H142.787H148.253C148.386 148.824 145.987 125.226 155.452 109.36Z" fill="#98D8EA"/>
<path d="M151.053 94.5621C152.919 95.0954 154.386 96.2953 155.452 97.7619C153.319 93.8955 148.52 87.6294 141.187 90.8291L139.454 102.161C139.854 101.095 140.254 100.295 140.52 99.7617C142.52 95.6287 146.92 93.3622 151.053 94.5621Z" fill="#98D8EA"/>
<path d="M156.919 100.695C156.786 100.428 156.386 99.2282 155.586 97.7617C154.519 96.2952 153.053 95.0953 151.186 94.562C147.053 93.3621 142.654 95.6286 140.654 99.8949C140.387 100.428 140.12 100.961 139.987 101.628C139.987 101.895 139.854 102.028 139.854 102.295C138.654 107.228 141.187 112.294 145.72 113.494C149.453 114.56 153.453 112.827 155.586 109.361C156.119 108.561 156.652 107.494 156.919 106.561C157.452 104.428 157.319 102.428 156.919 100.695Z" fill="#C6E8EF"/>
<path d="M81.4591 113.76H81.0591L80.1259 75.3638C80.2592 75.3638 80.3925 75.3638 80.5258 75.3638L81.4591 113.76Z" fill="#3883C4"/>
<path d="M81.3257 133.092C81.1924 133.092 81.1924 132.959 81.1924 132.959L81.0591 119.36C81.0591 119.227 81.1924 119.227 81.1924 119.227C81.3257 119.227 81.3257 119.36 81.3257 119.36L81.4591 132.959C81.5924 132.959 81.459 133.092 81.3257 133.092C81.459 133.092 81.459 133.092 81.3257 133.092Z" fill="#3883C4"/>
<path d="M135.987 133.358H21.1978C21.0645 133.358 21.0645 133.225 21.0645 133.225C21.0645 133.092 21.1978 133.092 21.1978 133.092H135.987C136.121 133.092 136.121 133.225 136.121 133.225C136.121 133.225 136.121 133.358 135.987 133.358Z" fill="#3883C4"/>
<path d="M147.853 109.494C147.72 109.494 147.586 109.494 147.453 109.494C145.453 109.094 145.053 106.961 145.187 105.094C145.453 102.828 146.653 100.428 148.653 100.428C148.786 100.428 149.053 100.428 149.186 100.428C151.186 100.828 151.586 103.095 151.453 104.828C151.186 107.228 149.853 109.494 147.853 109.494ZM148.653 100.828C146.92 100.828 145.72 103.095 145.453 105.228C145.32 106.828 145.72 108.961 147.453 109.227C147.586 109.227 147.72 109.227 147.853 109.227C149.586 109.227 150.786 106.961 151.053 104.961C151.186 103.361 150.786 101.228 149.053 100.828C148.92 100.828 148.786 100.828 148.653 100.828Z" fill="#3883C4"/>
<path d="M9.3322 109.627C6.66578 109.627 5.46592 106.827 5.19927 104.428C4.93263 102.028 5.59921 99.3614 7.33238 98.8281C7.59903 98.8281 7.73235 98.6948 7.99899 98.6948C10.3988 98.6948 12.6653 101.895 12.9319 104.828C13.1985 107.227 12.2653 108.961 10.2655 109.361C9.99883 109.627 9.59885 109.627 9.3322 109.627ZM7.99899 99.2281C7.73235 99.2281 7.59903 99.2281 7.33238 99.3614C5.73253 99.7614 5.19929 102.294 5.46593 104.561C5.73258 106.961 7.06574 109.361 9.3322 109.361C9.59885 109.361 9.86554 109.361 10.1322 109.227C12.6653 108.561 12.6653 106.027 12.5319 104.961C12.2653 102.294 10.2655 99.2281 7.99899 99.2281Z" fill="#3883C4"/>
<path d="M20.2645 148.957C20.2645 148.957 20.1312 148.957 20.2645 148.957C20.1312 148.957 20.1312 148.824 20.1312 148.824C22.1311 130.692 20.5312 113.094 20.3979 111.094C19.9979 106.828 18.9313 103.761 18.2647 102.161C18.9313 106.028 17.7314 111.494 13.5985 113.36C8.9322 115.494 6.26578 113.494 6.26578 113.36C6.13246 113.36 6.13246 113.227 6.26578 113.094C6.26578 112.96 6.39912 112.96 6.53244 113.094C6.53244 113.094 9.06553 115.094 13.5985 113.094C18.1314 110.961 18.9313 104.428 17.5981 100.695C17.5981 100.562 17.5981 100.562 17.7315 100.428C17.8648 100.428 17.8647 100.428 17.998 100.428C17.998 100.428 20.2645 104.028 20.9311 111.094C21.0644 113.094 22.7976 130.692 20.6645 148.824C20.3978 148.957 20.2645 148.957 20.2645 148.957Z" fill="#3883C4"/>
<path d="M136.521 148.957C136.387 148.957 136.387 148.824 136.387 148.824C136.387 148.69 135.188 134.825 136.387 120.826C137.587 106.827 139.454 102.694 139.454 102.561C139.454 102.428 139.587 102.428 139.72 102.428C139.854 102.428 139.854 102.561 139.854 102.561C139.854 102.561 139.454 104.694 139.987 107.094C140.654 110.294 142.654 112.294 145.72 113.227C153.186 115.36 155.986 108.294 156.119 108.027C156.119 107.894 156.252 107.894 156.386 107.894C156.519 107.894 156.519 108.027 156.519 108.161C156.519 108.294 153.453 115.76 145.72 113.627C139.987 112.027 139.32 106.694 139.454 104.161C138.787 106.294 137.587 111.36 136.787 120.959C135.587 134.958 136.787 148.824 136.787 148.957C136.654 148.957 136.654 148.957 136.521 148.957Z" fill="#3883C4"/>
<path d="M137.187 113.76H20.7979C31.0636 113.76 127.988 113.893 137.187 113.76Z" fill="#938B8B"/>
<path d="M136.654 119.359H21.1978C21.0645 119.359 21.0645 119.226 21.0645 119.226C21.0645 119.093 21.1978 119.093 21.1978 119.093H136.654C136.787 119.093 136.787 119.226 136.787 119.226C136.787 119.359 136.787 119.359 136.654 119.359Z" fill="#3883C4"/>
<path d="M177.717 151.757C177.717 153.623 172.651 155.223 165.718 155.756C164.118 155.89 162.518 155.89 160.785 155.89C151.453 155.89 143.72 154.023 143.72 151.757V149.89V149.357L144.253 122.293C144.253 124.559 151.586 126.292 160.652 126.292C163.852 126.292 166.918 126.026 169.451 125.626C174.117 124.959 177.184 123.626 177.184 122.159L177.717 148.557V149.09V151.757Z" fill="#F79738"/>
<path d="M177.717 151.757C177.717 153.623 172.651 155.223 165.718 155.756C168.251 146.957 169.184 134.692 169.584 125.759C174.251 125.092 177.317 123.759 177.317 122.293L177.85 148.69V149.224L177.717 151.757Z" fill="#E4822F"/>
<path d="M130.921 141.624L129.988 141.891C129.988 141.891 123.589 134.025 120.122 129.759C116.656 125.492 111.723 120.293 109.323 115.227C107.19 110.694 102.657 98.5615 101.457 95.3618C105.057 94.1619 107.19 92.4287 108.257 89.7623C109.99 85.3627 108.257 80.4298 106.923 77.63C106.39 76.5635 105.724 75.2302 105.057 73.897C104.924 73.6304 104.79 73.4971 104.79 73.2304C104.257 72.2972 103.857 71.4972 103.59 70.8306C103.59 70.6973 103.457 70.6973 103.457 70.564C103.324 70.2973 103.19 70.0307 103.19 69.8974C103.19 69.7641 103.19 69.7641 103.057 69.7641C103.19 69.6307 103.324 69.4974 103.457 69.4974C103.59 69.3641 103.724 69.2308 103.857 69.2308C104.657 68.5642 105.324 67.8976 105.857 67.231L105.99 67.3643C108.79 69.8974 110.656 75.0969 111.99 80.2965C112.923 84.1628 113.456 88.1624 113.856 90.8288C114.523 97.2283 115.989 112.827 115.989 112.827C121.455 114.427 123.989 117.493 125.322 121.359C125.588 122.159 125.988 123.626 126.655 125.359C127.988 131.492 130.921 141.624 130.921 141.624Z" fill="#D64E27"/>
<path d="M91.5915 118.293C95.1911 122.959 94.2579 128.692 92.3914 134.692C90.6583 140.424 87.4585 149.49 87.4585 149.49L86.392 149.224L85.592 149.09C85.592 149.09 84.3921 125.759 84.2588 118.693C83.9921 112.294 83.4589 99.4948 83.4589 96.5618C84.2588 96.6951 85.592 96.9617 87.4585 96.9617C88.6584 96.9617 90.1249 96.9617 91.9914 96.8284C92.9247 96.8284 93.8579 96.6951 94.6578 96.5618L91.5915 118.293Z" fill="#D64E27"/>
<path d="M130.921 141.624L129.988 141.891C129.988 141.891 123.589 134.025 120.122 129.759C116.656 125.492 111.723 120.293 109.323 115.227C107.19 110.694 102.657 98.5615 101.457 95.3618C105.057 94.1619 107.19 92.4287 108.257 89.7623C109.99 85.3627 108.257 80.4298 106.923 77.63C106.39 76.5635 105.724 75.2302 105.057 73.897C104.924 73.6304 104.79 73.4971 104.79 73.2304C104.257 72.2972 103.857 71.4972 103.59 70.8306C103.59 70.6973 103.457 70.6973 103.457 70.564C103.324 70.2973 103.19 70.0307 103.19 69.8974C103.19 69.7641 103.19 69.7641 103.057 69.7641C103.19 69.6307 103.324 69.4974 103.457 69.4974C103.59 69.3641 103.724 69.2308 103.857 69.2308C104.657 68.5642 105.324 67.8976 105.857 67.231L105.99 67.3643C108.79 69.8974 110.656 75.0969 111.99 80.2965C111.19 84.0295 109.99 89.3623 109.723 95.7617C109.323 104.161 112.656 115.36 112.656 115.36C112.656 115.36 119.322 124.292 126.655 125.492C127.988 131.492 130.921 141.624 130.921 141.624Z" fill="#C23F27"/>
<path d="M94.5245 96.6948L91.4582 118.426C95.0578 123.092 94.1246 128.825 92.2581 134.825C90.5249 140.558 87.3252 149.623 87.3252 149.623L86.2586 149.357C87.4585 145.224 90.6582 134.691 91.1915 128.825C91.8581 121.493 89.8583 119.759 89.8583 119.759C89.5917 114.56 88.1251 102.161 87.3252 96.9615C88.5251 96.9615 89.9916 96.9615 91.8581 96.8281C92.7914 96.8281 93.7246 96.6948 94.5245 96.6948Z" fill="#C23F27"/>
<path d="M106.79 40.7C106.79 40.7 105.724 42.0332 105.057 43.6331C104.79 44.1664 104.524 44.833 104.257 45.3663C103.724 46.4328 103.19 47.4994 103.19 47.4994L102.124 46.8328L101.991 46.6995L99.8574 45.3663H99.7241C99.7241 45.3663 99.7241 45.3663 99.5908 45.4996C97.4576 47.6327 96.2577 51.3657 96.2577 54.5654C96.2577 57.7651 97.7243 60.8315 99.1908 61.8981C100.524 62.8313 103.19 65.0978 103.99 65.7644C103.857 66.0311 103.59 66.2977 103.324 66.5643C102.257 67.8976 100.391 69.7641 97.191 71.4972C95.0579 72.6971 92.6581 73.3637 90.5249 73.7637C90.3916 73.7637 90.3916 73.7637 90.2583 73.7637C86.7919 74.4303 83.9922 74.297 83.9922 74.297C83.8588 73.4971 82.3923 68.0309 82.1257 63.8979C81.9924 62.698 81.8591 61.4981 81.7258 60.2982C81.4591 58.0318 81.1924 56.1653 81.1924 55.632C81.1924 55.4987 81.1924 55.4987 81.1924 55.4987C80.7925 55.3654 80.5258 55.232 80.1259 55.0987C78.7927 54.5654 77.8594 54.0321 77.1928 53.4989C75.9929 52.5656 75.7262 51.499 75.5929 50.6991C75.4596 49.2326 77.7261 45.3663 78.3927 43.2331C78.926 41.6333 79.5926 38.1669 80.1259 36.4337C80.2592 35.9004 80.3925 35.5005 80.5258 35.3672C80.6592 35.1005 81.3258 34.5672 81.859 34.0339C81.9924 33.9006 82.1257 33.7673 82.259 33.7673C82.7923 33.3673 83.3256 32.834 83.5922 32.4341C83.5922 32.5674 83.5922 32.7007 83.5922 32.7007C83.7255 33.3673 83.7255 35.1005 83.9922 36.7004C84.1255 37.7669 84.3921 38.5669 84.6588 38.8335C84.6588 38.8335 84.6588 38.8335 84.7921 38.8335H84.9254C84.9254 38.8335 84.9254 38.8335 84.9254 38.7002C85.1921 38.3002 85.4588 37.2337 85.7254 36.3004C85.8587 35.9004 85.992 35.6338 86.1253 35.2338C86.7919 33.5007 87.9918 31.2342 87.9918 30.8342C87.9918 30.8342 88.2584 30.8342 88.6584 30.8342C89.725 30.8342 91.7248 30.9675 93.1914 30.9675C93.7246 30.9675 94.2579 31.1009 94.5246 31.1009C95.8578 31.3675 97.191 32.4341 99.7241 34.4339C101.324 35.7671 103.724 37.9003 105.19 39.3668L105.324 39.5001C106.257 40.3 106.79 40.7 106.79 40.7Z" fill="#F79738"/>
<path d="M83.5922 32.7002C83.7255 33.3668 83.7255 35.1 83.9921 36.6999C82.2589 36.9665 80.9258 36.8332 80.1259 36.5665C80.2592 36.0332 80.3925 35.6333 80.5258 35.5C80.6591 35.2333 81.3257 34.7 81.859 34.1668C81.9923 34.0334 82.1256 33.9001 82.259 33.9001C82.7922 33.5001 83.3255 32.9669 83.5922 32.5669C83.5922 32.5669 83.5922 32.7002 83.5922 32.7002Z" fill="#E18726"/>
<path d="M93.3246 30.9673C91.9914 32.4339 89.4583 35.1003 85.9919 36.1669C86.1253 35.7669 86.2587 35.5003 86.392 35.1003C87.0586 33.3671 88.2584 31.1006 88.2584 30.7007C88.2584 30.7007 88.5251 30.7007 88.925 30.7007C89.8583 30.834 91.8581 30.9673 93.3246 30.9673Z" fill="#E18726"/>
<path d="M99.0575 61.7647C100.391 62.698 103.057 64.9644 103.857 65.631C103.724 65.8977 103.457 66.1643 103.19 66.431C100.924 64.8311 96.2577 61.3648 95.1911 59.0983C93.9913 56.1652 94.6578 53.2322 94.6578 53.2322C92.5247 54.5654 89.725 53.6321 89.725 53.6321C94.5246 52.9655 96.3911 51.099 96.3911 47.366C96.5244 43.633 95.5911 42.1665 95.5911 42.1665C95.5911 42.1665 94.6578 41.0999 96.9243 41.6332C98.9241 42.1665 102.257 44.2996 103.99 45.4995C103.457 46.5661 102.924 47.6327 102.924 47.6327L101.857 46.9661L101.724 46.8327L99.5907 45.4995H99.4574C99.4574 45.4995 99.4574 45.4995 99.3241 45.6328C97.1909 47.766 95.991 51.499 95.991 54.6987C96.1244 57.6318 97.591 60.6982 99.0575 61.7647Z" fill="#E18726"/>
<path d="M86.1254 24.1682C86.2587 22.835 86.1254 21.9018 86.1254 21.9018C89.725 18.9687 87.1919 15.2357 86.1254 15.5024C85.0588 15.769 85.0588 17.7688 85.0588 17.7688C85.0588 17.7688 85.0588 17.7688 83.4589 15.1024C83.059 14.4358 82.5257 13.9025 81.8591 13.6359C79.8592 12.7026 76.9262 12.9693 75.193 13.9025C72.9265 15.2357 70.3934 17.9021 70.1268 19.7686C69.0602 19.6353 67.327 18.3021 66.7938 16.0356C66.1271 13.3692 68.3936 8.303 71.46 6.83647C74.5264 5.36993 78.7927 6.83647 79.0593 6.83647C78.926 6.70315 77.4595 4.96997 79.0593 4.96997C80.5259 4.96997 84.6588 7.36976 85.592 7.90304C85.7254 8.03636 85.8587 8.03636 85.8587 8.03636C85.8587 8.03636 89.8583 11.7694 90.6582 15.5024C91.5915 19.3687 90.525 24.7015 86.1254 24.1682Z" fill="#B75349"/>
<path d="M86.1253 24.1683C86.2586 22.8351 86.1253 21.9018 86.1253 21.9018C89.725 18.9687 87.1919 15.2358 86.1253 15.5024C85.0587 15.769 85.0588 17.7689 85.0588 17.7689C85.0588 17.7689 85.0587 17.7689 83.4589 15.1024C83.0589 14.4358 82.5256 13.9025 81.859 13.6359C86.9252 13.1026 86.2586 11.1028 85.592 7.90308C85.7253 8.0364 85.8586 8.0364 85.8586 8.0364C85.8586 8.0364 89.8583 11.7694 90.6582 15.5024C91.5914 19.3687 90.5249 24.7016 86.1253 24.1683Z" fill="#A03E37"/>
<path d="M101.724 16.9688C101.457 19.7685 99.8574 22.435 97.4576 23.2349C97.4576 23.2349 98.3909 20.5685 97.7243 19.2353C97.191 18.1687 96.9244 18.302 95.0579 18.5687C93.3247 18.8353 92.1248 18.302 91.7248 15.9022C91.3249 13.5024 90.5249 9.5028 87.5918 8.70287C88.1251 7.23634 87.5918 5.7698 86.5253 5.7698C86.6586 5.1032 86.9252 4.16995 87.4585 3.2367C88.2585 2.03681 89.5916 0.836914 91.5915 0.836914C95.4578 0.836914 96.6577 3.37002 97.191 6.30309C97.7243 8.96952 96.5244 12.1692 96.3911 12.7025C96.5244 12.4359 97.0577 11.5026 98.5242 11.7693C99.8574 12.0359 101.324 13.6358 101.591 15.7689C101.724 16.0355 101.724 16.4355 101.724 16.9688Z" fill="#B75349"/>
<path d="M101.724 16.9688C101.457 19.7686 99.8574 22.435 97.4576 23.235C97.4576 23.235 98.3909 20.5685 97.7243 19.2353C97.191 18.1687 96.9244 18.3021 95.0579 18.5687C93.3247 18.8353 92.1248 18.3021 91.7248 15.9023C91.3249 13.5025 90.5249 9.50285 87.5918 8.70292C88.1251 7.23639 87.5918 5.76986 86.5253 5.76986C86.6586 5.10325 86.9252 4.17 87.4585 3.23675C91.1915 2.43682 94.2579 2.97011 95.3244 6.16982C96.5243 9.90282 94.9245 13.6358 95.5911 13.7691C96.1244 13.9025 100.257 11.636 101.591 15.769C101.724 16.0356 101.724 16.4356 101.724 16.9688Z" fill="#A03E37"/>
<path d="M86.1253 21.9016C86.1253 21.9016 86.1253 22.4349 86.1253 23.1015C86.1253 23.3681 86.1253 23.7681 86.1253 24.1681C85.992 25.7679 85.7253 28.0344 84.5254 29.5009C84.5254 29.5009 84.5254 29.5009 84.5254 29.6342C84.1255 30.1675 83.7255 30.5675 83.1922 30.9674C81.4591 32.434 79.7259 33.1006 77.0595 32.7006C73.7264 32.1673 72.1266 29.5009 71.46 26.0346C70.7934 22.5682 70.1268 20.0351 70.1268 20.0351C70.5267 18.3019 72.9265 15.5022 75.1929 14.169C76.7928 13.2357 79.4592 12.9691 81.4591 13.6357C82.259 13.9023 83.0589 14.5689 83.4589 15.2355C85.0587 17.902 85.0588 17.902 85.0588 17.902C85.0588 17.902 85.0587 15.9021 86.1253 15.6355C87.3252 15.2355 89.725 18.9685 86.1253 21.9016Z" fill="#F1B5AB"/>
<path d="M86.1253 21.9019C86.1253 21.9019 86.1253 22.4352 86.1253 23.1018C86.1253 23.3684 86.1253 23.7684 86.1253 24.1684C85.992 25.7682 85.7253 28.0347 84.5254 29.5012C84.5254 29.5012 84.5254 29.5012 84.5254 29.6345C86.1253 22.0352 83.1922 16.1691 81.4591 13.636C82.259 13.9026 83.0589 14.5692 83.4589 15.2358C85.0587 17.9023 85.0588 17.9023 85.0588 17.9023C85.0588 17.9023 85.0587 15.9024 86.1253 15.6358C87.3252 15.2358 89.725 18.9688 86.1253 21.9019Z" fill="#F5948D"/>
<path d="M86.5252 5.63646C85.192 5.50314 85.4587 7.90292 85.4587 7.90292C86.2586 8.43621 87.1918 9.50278 87.1918 9.50278C87.3251 9.23614 87.4584 8.96949 87.5918 8.70285C87.9917 7.10299 87.5918 5.76978 86.5252 5.63646Z" fill="#5F1D16"/>
<path d="M109.856 71.8972C109.856 71.7639 109.99 71.7639 109.99 71.7639C109.99 71.7639 109.99 71.7639 109.856 71.8972Z" fill="#F1B5AB"/>
<path d="M77.726 19.7686C77.726 19.7686 77.4594 18.1688 78.7926 18.0355C80.1258 17.9021 81.9923 18.9687 81.9923 18.9687C81.9923 18.9687 78.526 18.7021 77.726 19.7686Z" fill="#B75349"/>
<path d="M73.8597 20.4352C73.8597 20.4352 72.9264 19.7686 71.8599 20.4352C70.7933 21.1018 70.9266 22.5683 70.9266 22.5683C70.9266 22.5683 71.7266 21.9017 72.5265 21.3684C73.4597 20.8352 73.8597 20.4352 73.8597 20.4352Z" fill="#B75349"/>
<path d="M102.79 69.7638C103.857 68.8306 104.79 68.0307 105.457 67.0974L102.79 69.7638Z" fill="#5F1D16"/>
<path d="M106.79 77.4967C106.257 76.4302 105.59 75.0969 104.924 73.7637C104.79 73.4971 104.657 73.3638 104.657 73.0971C104.124 72.1639 103.724 71.3639 103.457 70.6973C103.457 70.564 103.324 70.564 103.324 70.4307C103.19 70.164 103.057 69.8974 103.057 69.7641C103.057 69.6308 103.057 69.6308 102.924 69.6308L105.324 67.231L105.59 66.9643L103.99 65.4978C103.057 66.831 101.057 69.2308 97.3243 71.2306C91.5914 74.297 84.1255 74.1637 84.1255 74.1637V75.7635C84.1255 75.7635 84.1255 75.8969 84.1255 76.0302C83.8588 78.43 81.859 94.0286 81.859 95.8951C81.859 95.8951 81.9923 96.295 83.4589 96.5617C84.7921 96.8283 87.3252 97.095 91.9914 96.8283C92.9246 96.8283 93.8579 96.695 94.6578 96.5617C97.3243 96.295 99.5908 95.8951 101.457 95.2285C105.057 94.0286 107.19 92.2954 108.257 89.629C109.856 85.3627 108.257 80.4298 106.79 77.4967Z" fill="#563A7F"/>
<path d="M105.457 67.0976C105.457 67.2309 105.324 67.2309 105.457 67.0976C105.59 66.9643 105.59 67.0976 105.457 67.0976Z" fill="#5F1D16"/>
<path d="M87.4585 149.49C87.4585 149.49 85.592 148.557 83.3255 148.957C81.0591 149.357 78.6593 151.756 78.6593 151.756H87.4585V149.49Z" fill="#563A7F"/>
<path d="M129.855 141.757C129.988 141.891 129.321 148.024 128.788 148.957C128.255 149.89 126.122 150.69 125.988 151.09C125.855 151.49 129.855 151.89 130.921 151.09C131.988 150.29 134.388 144.424 134.388 144.424L130.788 141.091L129.855 141.757Z" fill="#563A7F"/>
<path d="M84.7921 38.8333C84.6588 38.6999 82.6589 37.5001 81.1924 38.1667C81.1924 38.1667 81.5924 35.6336 82.259 33.7671C82.7923 33.3671 83.3255 32.8338 83.5922 32.4338C83.5922 32.5672 83.5922 32.7005 83.5922 32.7005C83.7255 33.9004 83.9922 38.3 84.7921 38.8333Z" fill="#563A7F"/>
<path d="M90.5249 36.0335C88.3917 36.1669 85.4587 38.4333 85.0587 38.7C85.4587 38.3 85.8587 36.5668 86.392 35.1003C87.0586 33.3671 88.2584 31.1006 88.2584 30.7007C88.2584 30.7007 88.5251 30.7007 88.925 30.7007L90.5249 36.0335Z" fill="#563A7F"/>
<path d="M86.2585 19.7685C85.3253 18.4353 85.7253 16.9688 86.1253 16.1689C86.1253 16.1689 86.2585 16.0356 86.2585 16.1689L86.3919 16.3022C85.992 17.1021 85.592 18.4353 86.3919 19.6352C86.3919 19.6352 86.3919 19.7685 86.2585 19.7685C86.3919 19.7685 86.2585 19.7685 86.2585 19.7685Z" fill="#983222"/>
<path d="M85.9919 18.8353C85.9919 18.8353 85.8586 18.702 85.9919 18.8353C85.8586 18.702 85.8586 18.5687 85.9919 18.5687C85.9919 18.5687 86.5253 18.4353 86.392 18.0354C86.392 17.902 86.2586 17.9021 86.2586 17.9021C86.1253 17.9021 85.8587 17.9021 85.8587 17.9021H85.7254V17.7687C85.7254 17.7687 86.1253 17.6354 86.392 17.7687C86.5253 17.7687 86.5252 17.902 86.6586 18.0354C86.6586 18.4353 86.2586 18.702 85.9919 18.8353Z" fill="#983222"/>
<path d="M69.9934 17.3686C69.8601 17.3686 69.8601 17.3686 69.9934 17.3686C69.8601 17.2352 69.7268 15.5021 70.2601 14.8354H70.3934V14.9688C69.9935 15.5021 69.9934 16.8353 69.9934 17.3686C70.1267 17.3686 69.9934 17.3686 69.9934 17.3686Z" fill="#993E3A"/>
<path d="M72.2599 11.1026C72.1265 11.1026 72.1266 10.9693 72.1266 10.9693C72.2599 10.836 73.3264 9.23613 73.993 8.96948H74.1264C74.1264 8.96948 74.1263 9.1028 73.993 9.1028C73.4597 9.36945 72.3932 10.836 72.2599 11.1026C72.2599 10.9693 72.2599 11.1026 72.2599 11.1026Z" fill="#993E3A"/>
<path d="M81.0591 11.2361C79.8592 10.3028 76.6595 10.5695 76.6595 10.5695C76.6595 10.5695 76.5262 10.5695 76.5262 10.4362C76.5262 10.4362 76.5261 10.3028 76.6595 10.3028C76.7928 10.3028 79.9925 10.0362 81.1924 10.9694C81.1924 10.9694 81.1924 11.1028 81.0591 11.2361C81.1924 11.2361 81.0591 11.2361 81.0591 11.2361Z" fill="#993E3A"/>
<path d="M82.9256 10.836C82.3923 10.0361 81.1924 9.1028 81.1924 9.1028V8.96948H81.3257C81.3257 8.96948 82.659 9.90273 83.0589 10.7027C83.0589 10.7027 83.0589 10.836 82.9256 10.836C83.0589 10.836 82.9256 10.836 82.9256 10.836Z" fill="#993E3A"/>
<path d="M68.7935 17.3686C67.8603 16.5687 68.2602 14.3022 68.3936 14.1689C68.3936 14.1689 68.5269 14.0356 68.5269 14.1689V14.3022C68.3935 14.5688 68.1269 16.4353 68.7935 17.1019C68.9268 17.2353 68.9268 17.3686 68.7935 17.3686C68.9268 17.3686 68.7935 17.3686 68.7935 17.3686Z" fill="#993E3A"/>
<path d="M94.3912 8.70266C94.3912 8.70266 94.2579 8.56934 94.3912 8.70266C94.2579 8.56934 93.4579 5.36963 91.3248 4.5697C89.1916 3.9031 88.6584 5.23631 88.6584 5.23631L88.5251 5.36963L88.3918 5.23631C88.3918 5.23631 89.0583 3.63645 91.3248 4.43638C93.5913 5.23631 94.3912 8.43602 94.5245 8.56934C94.5245 8.56934 94.5246 8.56934 94.3912 8.70266Z" fill="#5F1D16"/>
<path d="M95.4578 6.96955C95.4578 6.96955 95.3245 6.83623 95.4578 6.96955C95.4578 5.23637 94.2579 3.50319 94.2579 3.50319V3.36987H94.3912C94.5246 3.36987 95.7244 5.10305 95.4578 6.96955C95.5911 6.83623 95.5911 6.96955 95.4578 6.96955Z" fill="#5F1D16"/>
<path d="M88.5251 7.23611C88.3918 7.23611 88.3918 7.10279 88.3918 7.10279C88.3918 7.10279 89.0584 5.9029 89.725 6.03622C89.725 6.03622 89.8583 6.03622 89.8583 6.16954C89.8583 6.30286 89.8583 6.30286 89.725 6.30286C89.325 6.16954 88.7917 6.96947 88.5251 7.23611C88.6584 7.23611 88.6584 7.23611 88.5251 7.23611Z" fill="#5F1D16"/>
<path d="M92.658 13.1024C92.658 13.1024 92.5247 12.9691 92.658 13.1024C92.3914 11.5026 90.3916 9.76939 89.725 9.23611V9.10278H89.8583C90.5249 9.63607 92.5247 11.3692 92.658 12.9691C92.7913 12.9691 92.7913 13.1024 92.658 13.1024Z" fill="#5F1D16"/>
<path d="M99.3241 19.7685C99.1908 19.7685 99.1908 19.6351 99.1908 19.6351C99.3241 18.4352 98.1242 15.9021 97.9909 15.7688V15.6355H98.1242C98.5242 15.7688 99.5907 18.4352 99.3241 19.7685C99.4574 19.7685 99.4574 19.7685 99.3241 19.7685Z" fill="#5F1D16"/>
<path d="M100.391 18.302C100.257 18.302 100.257 18.302 100.391 18.302C100.257 18.302 100.257 18.1687 100.391 18.302C100.391 17.2354 100.124 16.3022 99.4574 15.3689C99.4574 15.3689 99.4574 15.3689 99.4574 15.2356V15.1023H99.5907C100.391 16.4355 100.524 17.5021 100.391 18.302Z" fill="#5F1D16"/>
<path d="M77.326 29.3676C77.326 29.3676 80.7924 27.6345 81.5923 26.4346C81.5923 26.4346 81.7257 28.5677 80.5258 30.0342C79.1926 31.5008 77.326 29.3676 77.326 29.3676Z" fill="white"/>
<path d="M75.1929 27.9013C74.6597 27.9013 74.2597 27.7679 74.2597 27.7679L74.1264 27.6346C74.1264 27.6346 74.393 26.4347 74.6596 25.2348C74.9263 23.9016 74.9263 23.235 74.1264 22.3018V22.1685H74.2597C75.0596 23.1017 75.0596 23.9016 74.793 25.2348C74.6597 26.3014 74.393 27.2347 74.2597 27.6346C74.5263 27.768 75.193 27.9013 75.7263 27.6346C76.3929 27.368 76.5262 26.8347 76.5262 26.8347L76.6594 26.7014C76.6594 26.7014 76.7928 26.8347 76.6594 26.8347C76.6594 26.8347 76.3929 27.368 75.7263 27.7679C75.7263 27.9013 75.4596 27.9013 75.1929 27.9013Z" fill="#983222"/>
<path d="M90.5249 73.6304C90.3916 73.6304 90.3915 73.6304 90.2582 73.6304C89.1916 71.3639 87.3252 64.6979 86.5252 61.6315C85.9919 59.4983 85.3254 57.6318 84.7921 56.032C84.3921 54.6988 83.9922 53.6322 83.7255 52.5656C83.0589 50.1658 83.4588 48.2993 83.8588 46.0329L83.9921 45.3663C84.2587 43.7664 84.3921 42.2999 84.6587 40.9667C84.792 40.1667 84.792 39.3668 84.9254 38.8335H85.0587C85.0587 38.8335 85.0587 38.8335 85.0587 38.7002C84.9254 39.3668 84.7921 40.1667 84.7921 41.1C84.6587 42.4332 84.3921 43.8997 84.1255 45.4996L83.9921 46.1662C83.5921 48.4327 83.3255 50.2992 83.8588 52.6989C84.1254 53.7655 84.5254 54.9654 84.9254 56.1653C85.4586 57.7651 86.1252 59.4983 86.6585 61.7648C87.5918 65.0978 89.4583 71.4972 90.5249 73.6304Z" fill="#993E3A"/>
<path d="M90.2582 53.6323C89.9916 53.6323 89.8583 53.6323 89.8583 53.6323C89.8583 53.6323 89.725 53.6323 89.725 53.499C89.725 53.499 89.725 53.3656 89.8583 53.3656C89.8583 53.3656 92.1248 53.6323 94.1246 52.1657C96.1244 50.6992 96.6577 49.0993 96.791 47.7661C96.791 47.7661 96.791 47.6328 96.9243 47.6328L97.0577 47.7661C96.791 49.0993 96.391 50.6992 94.2579 52.2991C92.658 53.499 91.0582 53.6323 90.2582 53.6323Z" fill="#993E3A"/>
<path d="M81.859 55.7654C81.5924 55.7654 81.0591 55.7654 80.1259 55.3654C80.1259 55.3654 79.9925 55.2321 80.1259 55.2321C80.1259 55.2321 80.2591 55.0988 80.2591 55.2321C81.459 55.7654 81.9923 55.6321 81.9923 55.6321C81.9923 55.6321 82.1257 55.6321 82.1257 55.7654C82.1257 55.7654 82.1256 55.8987 81.9923 55.8987C82.1256 55.7654 81.9923 55.7654 81.859 55.7654Z" fill="#993E3A"/>
<path d="M99.5907 45.3664C99.4574 45.3664 99.4575 45.3664 99.4575 45.3664L96.6577 42.9666V42.8333H96.791L99.5907 45.233C99.5907 45.3664 99.5907 45.3664 99.5907 45.3664Z" fill="#993E3A"/>
<path d="M105.59 39.6333C102.79 42.4331 101.99 46.8327 101.99 46.8327L101.857 46.6994C101.991 46.1661 102.79 42.0331 105.59 39.3667C105.457 39.5 105.59 39.5 105.59 39.6333Z" fill="#993E3A"/>
<path d="M105.59 67.2311C104.924 68.1643 103.99 69.0976 102.79 69.8975C101.724 70.8308 100.391 71.764 99.0575 72.5639C99.0575 72.5639 98.9242 72.6973 98.7908 72.6973C96.9243 73.8972 94.9245 74.8304 92.9247 75.3637C92.7913 75.3637 92.7913 75.3637 92.658 75.497C92.3914 75.6303 91.9915 75.6303 91.7248 75.7637C89.8583 76.1636 88.1251 76.2969 86.7919 76.2969C86.6586 76.2969 86.5252 76.2969 86.2586 76.2969C86.1253 76.2969 86.1253 76.2969 85.9919 76.2969C85.0587 76.2969 84.3921 76.1636 83.8588 76.0303C83.8588 75.897 83.8588 75.897 83.8588 75.7637C85.3254 76.0303 87.9918 76.1636 91.5914 75.497C91.8581 75.3637 92.258 75.3637 92.658 75.2304H92.7914C96.2577 74.1638 99.8574 72.0307 102.657 69.7642C102.79 69.6309 102.924 69.4976 103.057 69.4976C103.19 69.3642 103.324 69.2309 103.457 69.2309C104.124 68.6976 104.657 68.031 105.19 67.4977C105.324 67.3644 105.324 67.2311 105.457 67.2311C105.59 66.9645 105.59 67.0978 105.59 67.2311C105.59 67.0978 105.59 67.2311 105.59 67.2311Z" fill="#A6DDEB"/>
<path d="M85.3253 81.7628C85.192 81.7628 85.192 81.6295 85.192 81.6295C85.3254 80.563 86.1253 76.2967 86.1253 76.1633L86.2586 76.03L86.392 76.1633C86.392 76.2967 85.7253 80.6963 85.3253 81.7628C85.4587 81.7628 85.4587 81.7628 85.3253 81.7628Z" fill="#A6DDEB"/>
<path d="M93.9912 81.763C93.8579 81.763 93.8579 81.763 93.9912 81.763C93.8579 79.2299 92.7914 75.4969 92.7914 75.3636C92.7914 75.3636 92.7913 75.2302 92.9247 75.2302C92.9247 75.2302 93.058 75.2302 93.058 75.3636C92.9247 75.3636 93.9912 79.2299 93.9912 81.763Z" fill="#A6DDEB"/>
<path d="M101.99 81.6295C101.99 81.6295 101.99 81.4962 101.99 81.6295C101.857 81.4962 100.791 79.3631 99.8574 77.0966C98.9241 74.8302 98.7908 72.8303 98.7908 72.8303C98.7908 72.697 98.7908 72.697 98.9241 72.697C98.9241 72.697 99.0575 72.697 99.0575 72.8303C99.0575 72.8303 99.0575 74.8302 100.124 77.0966C101.057 79.3631 102.124 81.4962 102.124 81.4962C102.124 81.4962 102.124 81.4962 101.99 81.6295C102.124 81.6295 102.124 81.6295 101.99 81.6295Z" fill="#A6DDEB"/>
<path d="M73.3264 23.9016C73.5931 24.7015 73.4598 25.3681 73.1931 25.5014C72.7932 25.6348 72.3932 25.1015 72.1266 24.4349C71.8599 23.6349 71.9932 22.9683 72.2599 22.835C72.6598 22.7017 73.1931 23.235 73.3264 23.9016Z" fill="#1E1724"/>
<path d="M79.7259 21.5017C79.9926 22.3016 79.8592 22.9682 79.5926 23.1015C79.1926 23.2349 78.7926 22.7016 78.526 22.035C78.2594 21.235 78.3926 20.5684 78.6593 20.4351C78.9259 20.3018 79.4593 20.8351 79.7259 21.5017Z" fill="#1E1724"/>
<path d="M81.7257 60.2984V61.2316C81.7257 61.2316 79.8592 65.4979 78.3926 68.031C76.9261 70.5641 73.3264 72.9639 73.3264 72.9639C72.3931 74.0305 71.4599 75.0971 70.9266 74.8304C70.9266 74.8304 70.9266 74.8304 70.7933 74.6971C70.3933 74.1638 71.3265 72.8306 71.3265 72.8306L69.7268 73.6305C69.7268 73.6305 69.4601 75.7637 68.9268 75.497C68.3935 75.3637 68.5268 72.6973 68.9268 72.0307C69.3267 71.3641 71.5932 70.6975 71.5932 70.6975C71.5932 70.6975 72.9264 67.7644 74.5263 63.7647C76.1261 59.7651 77.0594 53.6323 77.0594 53.6323H77.1927C77.8593 54.1656 78.7926 54.6989 80.2591 55.2322C80.5257 55.3655 80.7924 55.4988 81.0591 55.4988C81.1924 55.4988 81.459 57.632 81.7257 60.2984Z" fill="#F1B5AB"/>
<path d="M81.7257 60.2984V61.2316C81.7257 61.2316 79.8592 65.4979 78.3927 68.031C76.9262 70.5641 73.3264 72.9639 73.3264 72.9639C72.3932 74.0305 71.4599 75.0971 70.9267 74.8304C71.5933 74.1638 72.3932 73.2306 72.9265 72.6973C73.7264 71.8973 78.7926 65.098 79.4592 62.2982C79.9925 60.4317 80.1258 57.0987 80.2591 55.2322C80.5258 55.3655 80.7925 55.4988 81.0591 55.4988C81.1924 55.4988 81.4591 57.632 81.7257 60.2984Z" fill="#F5948D"/>
<path d="M143.853 135.358C135.987 135.358 131.188 120.693 127.188 104.828C123.322 89.4957 117.322 80.8298 107.59 70.1641C98.2575 59.8983 91.9914 60.6983 84.9254 62.6981C78.2593 64.5646 73.3264 72.8305 72.9265 73.8971C72.7931 74.4304 72.2599 74.9636 71.5933 74.9636C70.7933 74.9636 70.26 74.297 70.26 73.6304C70.26 72.1639 76.3928 62.4314 84.2588 60.165C91.9914 57.8985 99.3241 56.9653 109.723 68.4309C119.722 79.3632 125.988 88.2958 129.988 104.161C132.121 112.694 137.187 132.558 143.987 132.558C144.12 132.558 144.12 132.558 144.253 132.558C145.053 132.425 145.72 133.092 145.72 133.758C145.72 134.558 145.187 135.225 144.52 135.225C144.12 135.358 143.987 135.358 143.853 135.358Z" fill="#A6D6B4"/>
<path d="M88.1252 30.8343C88.1252 31.2342 86.9252 33.5007 86.2586 35.2339C85.592 36.967 85.192 39.2335 84.6587 38.8335C83.8588 38.3003 83.7255 33.9006 83.5922 32.7008C83.5922 32.5674 83.5922 32.4341 83.5922 32.4341C83.5922 32.3008 83.4589 32.1675 83.4589 32.0342C83.3256 31.6342 82.9256 31.2342 82.7923 30.9676C83.1923 30.5676 83.7255 30.0343 84.1255 29.501C85.1921 28.1678 85.5921 25.9014 85.7254 24.3015C86.2587 25.2348 86.7919 26.7013 87.3252 27.9012C87.7251 29.3677 88.1252 30.7009 88.1252 30.8343Z" fill="#F1B5AB"/>
<path d="M87.1919 28.0345C85.992 30.0343 84.3922 31.3675 83.4589 32.0342C83.3256 31.6342 82.9256 31.2342 82.7923 30.9676C83.1923 30.5676 83.7255 30.0343 84.1255 29.501C85.1921 28.1678 85.5921 25.9014 85.7254 24.3015C86.1253 25.3681 86.6586 26.7013 87.1919 28.0345Z" fill="#F5948D"/>
<path d="M113.323 70.1637C113.723 72.5635 112.923 74.03 112.39 74.03C112.123 74.03 112.123 73.3634 112.256 72.9635C112.256 72.6968 112.39 72.4302 112.39 72.2969C112.39 72.2969 112.39 72.4302 112.256 72.4302C111.99 72.9635 111.19 74.2967 110.79 74.1634C110.523 74.1634 110.523 73.7634 110.656 73.3634C110.656 73.0968 110.79 72.8302 110.79 72.8302C110.79 72.9635 110.656 73.0968 110.656 73.2301C110.39 73.6301 110.123 74.1634 109.723 73.8967C109.59 73.7634 109.59 73.3634 109.59 72.9635C109.723 72.5635 109.856 72.1635 109.856 71.8969C109.856 72.0302 109.857 72.0302 109.723 72.1635C109.457 72.6968 109.19 73.2301 108.923 72.9635C108.523 72.5635 109.323 68.8305 109.323 68.8305C109.323 68.8305 107.99 69.8971 107.457 69.2305C107.323 69.0971 107.323 68.9638 107.323 68.8305C107.457 68.0306 108.923 66.6974 108.923 66.4307C108.79 66.1641 108.39 60.0313 107.59 55.8983C106.79 51.7654 107.057 50.6988 107.057 50.4322C107.057 50.1655 103.857 48.299 103.19 47.4991C103.19 47.4991 103.724 46.5658 104.39 45.366C104.657 44.8327 104.924 44.1661 105.19 43.6328C105.857 42.0329 106.923 40.6997 106.923 40.6997C108.923 42.2996 112.656 46.8325 112.656 46.8325C112.656 46.8325 113.456 47.7657 113.589 51.6321C113.723 55.4984 112.523 66.1641 112.523 66.1641C112.523 66.1641 112.923 67.7639 113.323 70.1637Z" fill="#F1B5AB"/>
<path d="M109.323 60.5646C109.323 65.2308 108.923 66.964 108.923 66.964C108.923 66.964 108.39 67.764 107.323 68.8305C107.457 68.0306 108.923 66.6974 108.923 66.4307C108.79 66.1641 108.39 60.0313 107.59 55.8983C106.79 51.7654 107.057 50.6988 107.057 50.4322C107.057 50.1655 103.857 48.299 103.19 47.4991C103.19 47.4991 103.724 46.5659 104.39 45.366C106.523 47.0991 107.59 49.099 107.99 50.1655C108.257 51.3654 109.323 55.8983 109.323 60.5646Z" fill="#F5948D"/>
<path d="M109.59 72.9638C109.723 72.5638 109.857 72.1639 109.857 71.8972C109.857 72.0306 109.857 72.0306 109.723 72.1639C109.857 71.6306 109.99 70.964 109.99 70.1641C110.123 71.364 109.856 72.2972 109.59 72.9638Z" fill="#993E3A"/>
<path d="M110.523 73.4967C110.523 73.2301 110.656 72.9634 110.656 72.9634C110.656 73.0967 110.523 73.2301 110.523 73.3634C110.79 72.8301 110.923 72.1635 111.19 71.2302C111.056 72.1635 110.79 72.9634 110.523 73.4967Z" fill="#993E3A"/>
<path d="M112.256 72.9635C112.256 72.6968 112.39 72.4302 112.39 72.2969C112.39 72.2969 112.39 72.4302 112.256 72.4302C112.523 71.7636 112.656 71.2303 112.656 70.697C112.79 71.3636 112.523 72.1636 112.256 72.9635Z" fill="#993E3A"/>
<path d="M160.652 126.426C169.709 126.426 177.05 124.635 177.05 122.426C177.05 120.217 169.709 118.426 160.652 118.426C151.595 118.426 144.253 120.217 144.253 122.426C144.253 124.635 151.595 126.426 160.652 126.426Z" fill="#FFC40C"/>
<path d="M160.652 119.893C155.052 119.893 150.52 120.96 150.52 122.426C150.52 123.759 155.052 124.959 160.652 124.959C166.251 124.959 170.784 123.893 170.784 122.426C170.784 120.96 166.251 119.893 160.652 119.893Z" fill="#F79738"/>
<path d="M144.92 154.69C145.32 153.223 146.786 152.29 147.986 152.69C149.32 153.09 149.986 154.556 149.586 156.023C149.186 157.489 147.72 158.423 146.52 158.023C145.187 157.756 144.52 156.156 144.92 154.69Z" fill="#5F1D16"/>
<path d="M147.053 156.823C146.92 156.823 146.92 156.823 146.787 156.823C146.387 156.69 146.253 156.423 146.253 156.29C146.12 156.023 146.12 155.623 146.12 155.223C146.253 154.556 146.92 154.156 147.32 154.156C147.453 154.156 147.453 154.156 147.586 154.156C147.986 154.29 148.12 154.556 148.12 154.69C148.253 154.956 148.253 155.356 148.253 155.756C148.12 156.423 147.586 156.823 147.053 156.823Z" fill="#9FD8D4"/>
<path d="M177.584 149.357C174.651 150.69 168.785 152.69 160.652 153.09C159.985 153.09 159.319 153.09 158.652 153.09C153.453 153.09 149.453 152.157 146.92 151.357C145.453 150.824 144.387 150.424 143.587 150.024V149.49C145.853 150.69 151.719 153.09 160.519 152.69C168.785 152.29 174.651 150.157 177.45 148.957L177.584 149.357Z" fill="#CE615A"/>
<path d="M170.651 130.025C170.384 130.025 170.118 130.025 170.118 130.025C169.984 130.025 169.984 129.892 169.984 129.892C169.984 129.759 170.118 129.759 170.118 129.759C170.118 129.759 173.851 129.892 175.317 129.359C175.451 129.359 175.451 129.359 175.584 129.492C175.584 129.625 175.584 129.625 175.451 129.759C174.251 130.025 171.718 130.025 170.651 130.025Z" fill="#CE615A"/>
<path d="M170.651 131.759C170.384 131.759 170.118 131.759 170.118 131.759C169.984 131.759 169.984 131.625 169.984 131.625C169.984 131.492 170.118 131.492 170.118 131.492C170.118 131.492 173.851 131.625 175.317 131.092C175.451 131.092 175.451 131.092 175.584 131.225C175.584 131.359 175.584 131.359 175.451 131.492C174.251 131.759 171.718 131.759 170.651 131.759Z" fill="#CE615A"/>
<path d="M170.651 133.492C170.384 133.492 170.118 133.492 170.118 133.492C169.984 133.492 169.984 133.358 169.984 133.358C169.984 133.225 170.118 133.225 170.118 133.225C170.118 133.225 173.851 133.358 175.317 132.825C175.451 132.825 175.451 132.825 175.584 132.959C175.584 133.092 175.584 133.092 175.451 133.225C174.251 133.492 171.718 133.492 170.651 133.492Z" fill="#CE615A"/>
<path d="M170.651 135.225C170.384 135.225 170.118 135.225 170.118 135.225C169.984 135.225 169.984 135.091 169.984 135.091C169.984 134.958 170.118 134.958 170.118 134.958C170.118 134.958 173.851 135.091 175.317 134.558C175.451 134.558 175.451 134.558 175.584 134.691C175.584 134.825 175.584 134.825 175.451 134.958C174.251 135.225 171.718 135.225 170.651 135.225Z" fill="#CE615A"/>
<path d="M170.651 136.958C170.384 136.958 170.118 136.958 170.118 136.958C169.984 136.958 169.984 136.825 169.984 136.825C169.984 136.691 170.118 136.691 170.118 136.691C170.118 136.691 173.851 136.825 175.317 136.291C175.451 136.291 175.451 136.291 175.584 136.425C175.584 136.558 175.584 136.558 175.451 136.691C174.251 136.958 171.718 136.958 170.651 136.958Z" fill="#CE615A"/>
<path d="M170.651 138.558C170.384 138.558 170.118 138.558 170.118 138.558C169.984 138.558 169.984 138.424 169.984 138.424C169.984 138.291 170.118 138.291 170.118 138.291C170.118 138.291 173.851 138.424 175.317 137.891C175.451 137.891 175.451 137.891 175.584 138.024C175.584 138.158 175.584 138.158 175.451 138.291C174.251 138.424 171.718 138.558 170.651 138.558Z" fill="#CE615A"/>
<path d="M170.651 140.158C170.384 140.158 170.118 140.158 170.118 140.158C169.984 140.158 169.984 140.024 169.984 140.024C169.984 139.891 170.118 139.891 170.118 139.891C170.118 139.891 173.851 140.024 175.317 139.491C175.451 139.491 175.451 139.491 175.584 139.625C175.584 139.758 175.584 139.758 175.451 139.891C174.251 140.024 171.718 140.158 170.651 140.158Z" fill="#CE615A"/>
<path d="M170.651 141.624C170.384 141.624 170.118 141.624 170.118 141.624C169.984 141.624 169.984 141.491 169.984 141.491C169.984 141.358 170.118 141.358 170.118 141.358C170.118 141.358 173.851 141.491 175.317 140.958C175.451 140.958 175.451 140.958 175.584 141.091C175.584 141.224 175.584 141.224 175.451 141.358C174.251 141.624 171.718 141.624 170.651 141.624Z" fill="#CE615A"/>
<path d="M170.651 143.624C170.384 143.624 170.118 143.624 170.118 143.624C169.984 143.624 169.984 143.491 169.984 143.491C169.984 143.357 170.118 143.357 170.118 143.357C170.118 143.357 173.851 143.491 175.317 142.957C175.451 142.957 175.451 142.957 175.584 143.091C175.584 143.224 175.584 143.224 175.451 143.357C174.251 143.624 171.718 143.624 170.651 143.624Z" fill="#CE615A"/>
<path d="M73.1931 73.3638L63.194 95.3618L59.7277 102.961L42.3959 140.958L39.4628 147.357L35.7299 147.89L38.9295 140.958L56.528 102.961L60.1276 95.3618L70.1267 73.6304L73.1931 73.3638Z" fill="#4D4263"/>
<path d="M35.7299 147.89L23.1976 152.157L45.1957 152.556L43.0625 151.09L39.5961 147.09L35.7299 147.89Z" fill="#F79738"/>
<path d="M23.1976 152.156V154.556H45.1957V152.556L23.1976 152.156Z" fill="#CA6428"/>
<path d="M63.194 95.3616L59.7277 102.961H56.528L60.1276 95.3616H63.194Z" fill="#563A7F"/>
<path d="M42.3959 140.958L39.4628 147.357L35.7299 147.89L38.9295 140.958H42.3959Z" fill="#563A7F"/>
<path d="M83.5922 41.5001C83.5922 41.7667 83.4588 42.0334 83.3255 42.0334C83.1922 42.0334 83.0589 41.7667 83.0589 41.5001C83.0589 41.2334 83.1922 40.9668 83.3255 40.9668C83.4588 41.1001 83.5922 41.2334 83.5922 41.5001Z" fill="#993E3A"/>
<path d="M83.0589 50.0325C83.0589 50.2992 82.9256 50.5658 82.7923 50.5658C82.659 50.5658 82.5256 50.2992 82.5256 50.0325C82.5256 49.7659 82.659 49.4993 82.7923 49.4993C82.9256 49.4993 83.0589 49.7659 83.0589 50.0325Z" fill="#993E3A"/>
<path d="M84.6587 57.4984C84.6587 57.7651 84.6588 58.0317 84.3921 58.0317C84.2588 58.0317 84.1255 57.8984 84.1255 57.6317C84.1255 57.3651 84.1255 57.0984 84.3921 57.0984C84.5255 56.9651 84.6587 57.2318 84.6587 57.4984Z" fill="#993E3A"/>
<path d="M86.6585 64.5646C86.6585 64.8312 86.6586 65.0979 86.392 65.0979C86.2586 65.0979 86.1253 64.9645 86.1253 64.6979C86.1253 64.4313 86.1253 64.1646 86.392 64.1646C86.5253 64.0313 86.6585 64.2979 86.6585 64.5646Z" fill="#993E3A"/>
<path d="M87.9918 69.7638C87.9918 70.0304 87.9918 70.2971 87.7252 70.2971C87.5919 70.2971 87.4585 70.1638 87.4585 69.8971C87.4585 69.6305 87.4585 69.3638 87.7252 69.3638C87.8585 69.2305 87.9918 69.4971 87.9918 69.7638Z" fill="#993E3A"/>
<path d="M168.651 151.49C169.451 148.69 172.118 146.957 174.651 147.624C177.184 148.29 178.65 151.223 177.717 154.023C176.917 156.823 174.251 158.556 171.718 157.889C169.185 157.223 167.851 154.423 168.651 151.49Z" fill="#5F1D16"/>
<path d="M172.917 156.823C172.651 156.823 172.384 156.823 172.118 156.69C171.318 156.423 170.518 155.89 170.118 154.956C169.718 154.023 169.584 152.957 169.851 151.89C170.384 150.157 171.851 148.957 173.451 148.957C173.717 148.957 173.984 148.957 174.251 149.09C175.051 149.357 175.851 149.89 176.25 150.824C176.65 151.757 176.784 152.823 176.517 153.89C175.984 155.49 174.517 156.823 172.917 156.823Z" fill="#9FD8D4"/>
<path opacity="0.5" d="M168.385 122.16C168.385 122.426 168.118 122.693 167.851 122.693H150.786C150.52 122.693 150.253 122.426 150.253 122.16C150.253 121.893 150.52 121.626 150.786 121.626H167.851C168.118 121.626 168.385 121.893 168.385 122.16Z" fill="#CE615A"/>
<path d="M168.385 122.426H166.251L165.585 118.56C165.585 118.56 157.052 117.36 152.519 118.96L152.386 122.426H150.12L150.386 118.693L150.52 116.827C150.52 116.827 162.118 115.36 167.851 116.827L167.985 118.16L168.385 122.426Z" fill="#9B3C36"/>
<path d="M168.385 122.426H166.251L165.585 118.56C165.585 118.56 157.052 117.36 152.519 118.959L152.386 122.426H150.12L150.386 118.693C151.853 118.16 155.052 117.226 159.319 117.226C163.185 117.36 166.385 117.893 167.985 118.16L168.385 122.426Z" fill="#872D2B"/>
<path d="M17.9981 101.628L18.1314 102.428C18.1314 102.161 18.1314 101.895 17.9981 101.628Z" fill="#A89E9E"/>
<path d="M139.854 101.494C139.987 100.961 140.254 100.295 140.52 99.7612C140.12 100.161 139.854 100.961 139.454 102.161H139.721C139.721 101.894 139.854 101.761 139.854 101.494Z" fill="#A89E9E"/>
<path d="M155.586 97.7615C156.386 99.228 156.919 100.428 156.919 100.695C156.652 99.628 156.119 98.5614 155.586 97.7615Z" fill="#B9B0B0"/>
<path d="M147.453 128.159L152.786 128.826L150.653 150.957L147.453 149.49V128.159Z" fill="#FFC10D"/>
</svg>
