<svg width="10" height="10" viewBox="0 0 10 10" fill="none" xmlns="http://www.w3.org/2000/svg">
<g clip-path="url(#clip0_58_34)">
<path d="M5.0001 9.53536C7.50485 9.53536 9.53536 7.50485 9.53536 5.0001C9.53536 2.49535 7.50485 0.464844 5.0001 0.464844C2.49535 0.464844 0.464844 2.49535 0.464844 5.0001C0.464844 7.50485 2.49535 9.53536 5.0001 9.53536Z" fill="#FDCA47" stroke="#231F20" stroke-miterlimit="10"/>
<path d="M7.27584 5.76953C7.27584 5.76953 6.8752 7.35607 5.08033 7.35607H5.0002C3.20533 7.35607 2.80469 5.76953 2.80469 5.76953H7.27584Z" fill="#D05F58" stroke="#231F20" stroke-miterlimit="10" stroke-linecap="round" stroke-linejoin="round"/>
<path d="M3.31871 4.61594C3.62848 4.61594 3.87961 4.36481 3.87961 4.05504C3.87961 3.74526 3.62848 3.49414 3.31871 3.49414C3.00893 3.49414 2.75781 3.74526 2.75781 4.05504C2.75781 4.36481 3.00893 4.61594 3.31871 4.61594Z" fill="#20201E"/>
<path d="M6.63512 4.61594C6.94489 4.61594 7.19601 4.36481 7.19601 4.05504C7.19601 3.74526 6.94489 3.49414 6.63512 3.49414C6.32534 3.49414 6.07422 3.74526 6.07422 4.05504C6.07422 4.36481 6.32534 4.61594 6.63512 4.61594Z" fill="#20201E"/>
</g>
<defs>
<clipPath id="clip0_58_34">
<rect width="10" height="10" fill="white"/>
</clipPath>
</defs>
</svg>
