<svg width="32" height="32" viewBox="0 0 32 32" fill="none" xmlns="http://www.w3.org/2000/svg">
<path d="M0 16C0 7.16344 7.16344 0 16 0V0C24.8366 0 32 7.16344 32 16V16C32 24.8366 24.8366 32 16 32V32C7.16344 32 0 24.8366 0 16V16Z" fill="white"/>
<path d="M16.0001 21.3334C18.9456 21.3334 21.3334 18.9455 21.3334 16C21.3334 13.0545 18.9456 10.6667 16.0001 10.6667C13.0546 10.6667 10.6667 13.0545 10.6667 16C10.6667 18.9455 13.0546 21.3334 16.0001 21.3334Z" fill="#7A7A7A"/>
<path d="M17.3334 5.42535V2.66669H14.6667V5.42535C12.3205 5.72493 10.14 6.79492 8.46751 8.46745C6.79498 10.14 5.72499 12.3204 5.42541 14.6667H2.66675V17.3334H5.42541C5.72455 19.6798 6.7944 21.8605 8.46701 23.5331C10.1396 25.2057 12.3203 26.2756 14.6667 26.5747V29.3334H17.3334V26.5747C19.6799 26.2758 21.8607 25.206 23.5334 23.5333C25.2061 21.8607 26.2758 19.6799 26.5747 17.3334H29.3334V14.6667H26.5747C26.2756 12.3202 25.2058 10.1396 23.5332 8.46695C21.8605 6.79434 19.6799 5.72449 17.3334 5.42535V5.42535ZM16.0001 24C11.5881 24 8.00008 20.412 8.00008 16C8.00008 11.588 11.5881 8.00002 16.0001 8.00002C20.4121 8.00002 24.0001 11.588 24.0001 16C24.0001 20.412 20.4121 24 16.0001 24Z" fill="#7A7A7A"/>
</svg>
